<svg id="svg" version="1.1" xmlns="http://www.w3.org/2000/svg" xmlns:xlink="http://www.w3.org/1999/xlink" width="400" height="49.39759036144578" viewBox="0, 0, 400,49.39759036144578"><g id="svgg"><path id="path0" d="M143.667 7.250 C 143.667 7.454,143.389 7.500,142.167 7.500 C 140.778 7.500,140.667 7.525,140.667 7.833 C 140.667 8.146,140.556 8.167,138.917 8.167 C 137.278 8.167,137.167 8.188,137.167 8.500 C 137.167 8.722,137.056 8.833,136.833 8.833 C 136.544 8.833,136.500 8.944,136.500 9.667 C 136.500 10.389,136.544 10.500,136.833 10.500 C 137.056 10.500,137.167 10.611,137.167 10.833 C 137.167 11.135,137.278 11.167,138.333 11.167 C 139.259 11.167,139.500 11.218,139.500 11.417 C 139.500 11.556,139.648 11.667,139.833 11.667 C 140.158 11.667,140.167 11.778,140.167 15.917 L 140.167 20.167 136.500 20.167 C 132.944 20.167,132.833 20.177,132.833 20.500 C 132.833 20.802,132.722 20.833,131.667 20.833 C 130.741 20.833,130.500 20.885,130.500 21.083 C 130.500 21.275,130.287 21.333,129.583 21.333 C 128.778 21.333,128.667 21.374,128.667 21.667 C 128.667 21.937,128.556 22.000,128.083 22.000 C 127.611 22.000,127.500 22.063,127.500 22.333 C 127.500 22.556,127.389 22.667,127.167 22.667 C 126.981 22.667,126.833 22.778,126.833 22.917 C 126.833 23.091,126.657 23.167,126.250 23.167 C 125.778 23.167,125.667 23.230,125.667 23.500 C 125.667 23.722,125.556 23.833,125.333 23.833 C 125.063 23.833,125.000 23.944,125.000 24.417 C 125.000 24.824,124.925 25.000,124.750 25.000 C 124.611 25.000,124.500 25.148,124.500 25.333 C 124.500 25.556,124.389 25.667,124.167 25.667 C 123.897 25.667,123.833 25.778,123.833 26.250 C 123.833 26.722,123.770 26.833,123.500 26.833 C 123.230 26.833,123.167 26.944,123.167 27.417 C 123.167 27.824,123.091 28.000,122.917 28.000 C 122.725 28.000,122.667 27.787,122.667 27.083 C 122.667 26.380,122.725 26.167,122.917 26.167 C 123.120 26.167,123.167 25.889,123.167 24.667 C 123.167 23.278,123.191 23.167,123.500 23.167 C 123.809 23.167,123.833 23.056,123.833 21.667 L 123.833 20.167 121.417 20.167 C 119.111 20.167,119.000 20.182,119.000 20.500 C 119.000 20.793,118.889 20.833,118.083 20.833 C 117.380 20.833,117.167 20.891,117.167 21.083 C 117.167 21.273,116.961 21.333,116.318 21.333 C 115.609 21.333,115.454 21.388,115.382 21.667 C 115.316 21.917,115.154 22.000,114.731 22.000 L 114.167 22.000 114.167 21.083 L 114.167 20.167 112.667 20.167 C 111.278 20.167,111.167 20.191,111.167 20.500 C 111.167 20.809,111.056 20.833,109.667 20.833 C 108.444 20.833,108.167 20.880,108.167 21.083 C 108.167 21.287,107.889 21.333,106.667 21.333 C 105.278 21.333,105.167 21.358,105.167 21.667 C 105.167 21.889,105.056 22.000,104.833 22.000 C 104.544 22.000,104.500 22.111,104.500 22.849 C 104.500 23.558,104.555 23.712,104.833 23.785 C 105.017 23.833,105.167 23.976,105.167 24.103 C 105.167 24.277,105.451 24.333,106.333 24.333 C 107.389 24.333,107.500 24.365,107.500 24.667 C 107.500 24.889,107.611 25.000,107.833 25.000 C 108.162 25.000,108.167 25.111,108.167 32.833 C 108.167 40.556,108.162 40.667,107.833 40.667 C 107.648 40.667,107.500 40.778,107.500 40.917 C 107.500 41.115,107.259 41.167,106.333 41.167 C 105.278 41.167,105.167 41.198,105.167 41.500 C 105.167 41.722,105.056 41.833,104.833 41.833 C 104.532 41.833,104.500 41.944,104.500 43.000 L 104.500 44.167 111.417 44.167 L 118.333 44.167 118.333 43.000 C 118.333 42.118,118.277 41.833,118.103 41.833 C 117.976 41.833,117.833 41.683,117.785 41.500 C 117.708 41.206,117.558 41.167,116.516 41.167 C 115.576 41.167,115.333 41.115,115.333 40.917 C 115.333 40.742,115.157 40.667,114.750 40.667 L 114.167 40.667 114.167 33.083 L 114.167 25.500 114.750 25.500 C 115.157 25.500,115.333 25.425,115.333 25.250 C 115.333 25.046,115.611 25.000,116.833 25.000 L 118.333 25.000 118.333 25.583 C 118.333 26.056,118.397 26.167,118.667 26.167 C 118.937 26.167,119.000 26.278,119.000 26.750 C 119.000 27.222,119.063 27.333,119.333 27.333 C 119.626 27.333,119.667 27.444,119.667 28.250 L 119.667 29.167 121.167 29.167 L 122.667 29.167 122.667 29.833 C 122.667 30.389,122.611 30.500,122.333 30.500 C 122.014 30.500,122.000 30.611,122.000 33.167 C 122.000 35.722,122.014 35.833,122.333 35.833 C 122.635 35.833,122.667 35.944,122.667 37.000 C 122.667 37.926,122.718 38.167,122.917 38.167 C 123.091 38.167,123.167 38.343,123.167 38.750 C 123.167 39.222,123.230 39.333,123.500 39.333 C 123.778 39.333,123.833 39.444,123.833 40.000 C 123.833 40.556,123.889 40.667,124.167 40.667 C 124.352 40.667,124.500 40.778,124.500 40.917 C 124.500 41.054,124.612 41.167,124.750 41.167 C 124.889 41.167,125.000 41.315,125.000 41.500 C 125.000 41.722,125.111 41.833,125.333 41.833 C 125.519 41.833,125.667 41.944,125.667 42.083 C 125.667 42.221,125.779 42.333,125.917 42.333 C 126.056 42.333,126.167 42.481,126.167 42.667 C 126.167 42.944,126.278 43.000,126.833 43.000 C 127.389 43.000,127.500 43.056,127.500 43.333 C 127.500 43.603,127.611 43.667,128.083 43.667 C 128.491 43.667,128.667 43.742,128.667 43.917 C 128.667 44.115,128.907 44.167,129.833 44.167 C 130.889 44.167,131.000 44.198,131.000 44.500 C 131.000 44.818,131.111 44.833,133.417 44.833 C 135.722 44.833,135.833 44.818,135.833 44.500 C 135.833 44.196,135.944 44.167,137.083 44.167 C 138.083 44.167,138.333 44.117,138.333 43.917 C 138.333 43.742,138.509 43.667,138.917 43.667 C 139.389 43.667,139.500 43.603,139.500 43.333 C 139.500 43.040,139.611 43.000,140.417 43.000 C 141.222 43.000,141.333 43.040,141.333 43.333 C 141.333 43.519,141.444 43.667,141.583 43.667 C 141.721 43.667,141.833 43.779,141.833 43.917 C 141.833 44.097,142.019 44.167,142.500 44.167 C 143.056 44.167,143.167 44.222,143.167 44.500 C 143.167 44.809,143.278 44.833,144.667 44.833 C 146.056 44.833,146.167 44.809,146.167 44.500 C 146.167 44.198,146.278 44.167,147.333 44.167 C 148.259 44.167,148.500 44.115,148.500 43.917 C 148.500 43.725,148.713 43.667,149.417 43.667 L 150.333 43.667 150.333 42.417 L 150.333 41.167 149.083 41.167 C 148.083 41.167,147.833 41.117,147.833 40.917 C 147.833 40.742,147.657 40.667,147.250 40.667 L 146.667 40.667 146.667 23.833 L 146.667 7.000 145.167 7.000 C 143.944 7.000,143.667 7.046,143.667 7.250 M196.667 7.250 C 196.667 7.454,196.389 7.500,195.167 7.500 C 193.778 7.500,193.667 7.525,193.667 7.833 C 193.667 8.142,193.556 8.167,192.167 8.167 C 190.778 8.167,190.667 8.191,190.667 8.500 C 190.667 8.685,190.556 8.833,190.417 8.833 C 190.228 8.833,190.167 9.037,190.167 9.667 C 190.167 10.296,190.228 10.500,190.417 10.500 C 190.556 10.500,190.667 10.648,190.667 10.833 C 190.667 11.126,190.778 11.167,191.583 11.167 C 192.287 11.167,192.500 11.225,192.500 11.417 C 192.500 11.591,192.676 11.667,193.083 11.667 L 193.667 11.667 193.667 26.167 C 193.667 38.944,193.637 40.667,193.417 40.667 C 193.279 40.667,193.167 40.779,193.167 40.917 C 193.167 41.117,192.917 41.167,191.917 41.167 C 190.778 41.167,190.667 41.196,190.667 41.500 C 190.667 41.685,190.556 41.833,190.417 41.833 C 190.218 41.833,190.167 42.074,190.167 43.000 L 190.167 44.167 196.750 44.167 L 203.333 44.167 203.333 43.000 C 203.333 41.944,203.302 41.833,203.000 41.833 C 202.778 41.833,202.667 41.722,202.667 41.500 C 202.667 41.198,202.556 41.167,201.500 41.167 C 200.574 41.167,200.333 41.115,200.333 40.917 C 200.333 40.778,200.185 40.667,200.000 40.667 C 199.669 40.667,199.667 40.556,199.667 23.833 L 199.667 7.000 198.167 7.000 C 196.944 7.000,196.667 7.046,196.667 7.250 M20.167 9.083 C 20.167 9.275,19.954 9.333,19.250 9.333 C 18.444 9.333,18.333 9.374,18.333 9.667 C 18.333 9.937,18.222 10.000,17.750 10.000 C 17.343 10.000,17.167 10.075,17.167 10.250 C 17.167 10.425,16.991 10.500,16.583 10.500 C 16.111 10.500,16.000 10.563,16.000 10.833 C 16.000 11.103,15.889 11.167,15.417 11.167 C 14.944 11.167,14.833 11.230,14.833 11.500 C 14.833 11.722,14.722 11.833,14.500 11.833 C 14.230 11.833,14.167 11.944,14.167 12.417 C 14.167 12.824,14.091 13.000,13.917 13.000 C 13.779 13.000,13.667 13.112,13.667 13.250 C 13.667 13.389,13.519 13.500,13.333 13.500 C 13.111 13.500,13.000 13.611,13.000 13.833 C 13.000 14.056,12.889 14.167,12.667 14.167 C 12.444 14.167,12.333 14.278,12.333 14.500 C 12.333 14.802,12.222 14.833,11.167 14.833 C 10.111 14.833,10.000 14.802,10.000 14.500 C 10.000 14.179,9.889 14.167,7.000 14.167 C 4.111 14.167,4.000 14.179,4.000 14.500 C 4.000 14.778,3.889 14.833,3.333 14.833 C 2.852 14.833,2.667 14.903,2.667 15.083 C 2.667 15.221,2.554 15.333,2.417 15.333 C 2.210 15.333,2.167 15.648,2.167 17.167 C 2.167 18.685,2.210 19.000,2.417 19.000 C 2.554 19.000,2.667 19.112,2.667 19.250 C 2.667 19.389,2.815 19.500,3.000 19.500 C 3.222 19.500,3.333 19.611,3.333 19.833 C 3.333 20.056,3.444 20.167,3.667 20.167 C 3.889 20.167,4.000 20.278,4.000 20.500 C 4.000 20.685,4.111 20.833,4.250 20.833 C 4.387 20.833,4.500 20.946,4.500 21.083 C 4.500 21.222,4.648 21.333,4.833 21.333 C 5.056 21.333,5.167 21.444,5.167 21.667 C 5.167 21.889,5.278 22.000,5.500 22.000 C 5.685 22.000,5.833 22.111,5.833 22.250 C 5.833 22.387,5.941 22.500,6.073 22.500 C 6.230 22.500,6.331 22.716,6.365 23.125 C 6.412 23.696,6.464 23.755,6.958 23.802 L 7.500 23.854 7.500 26.177 C 7.500 28.389,7.516 28.500,7.833 28.500 C 8.049 28.500,8.167 28.611,8.167 28.814 C 8.167 28.988,8.018 29.167,7.833 29.215 C 7.650 29.263,7.500 29.422,7.500 29.568 C 7.500 29.760,7.339 29.833,6.917 29.833 C 6.444 29.833,6.333 29.897,6.333 30.167 C 6.333 30.352,6.222 30.500,6.083 30.500 C 5.946 30.500,5.833 30.613,5.833 30.750 C 5.833 30.889,5.685 31.000,5.500 31.000 C 5.278 31.000,5.167 31.111,5.167 31.333 C 5.167 31.556,5.056 31.667,4.833 31.667 C 4.540 31.667,4.500 31.778,4.500 32.583 C 4.500 33.287,4.442 33.500,4.250 33.500 C 4.044 33.500,4.000 33.806,4.000 35.250 C 4.000 36.629,4.049 37.000,4.231 37.000 C 4.357 37.000,4.500 37.150,4.548 37.333 C 4.632 37.655,4.776 37.667,8.484 37.667 C 11.795 37.667,12.333 37.702,12.333 37.917 C 12.333 38.056,12.481 38.167,12.667 38.167 C 12.889 38.167,13.000 38.278,13.000 38.500 C 13.000 38.722,13.111 38.833,13.333 38.833 C 13.519 38.833,13.667 38.944,13.667 39.083 C 13.667 39.221,13.779 39.333,13.917 39.333 C 14.056 39.333,14.167 39.481,14.167 39.667 C 14.167 39.937,14.278 40.000,14.750 40.000 C 15.173 40.000,15.333 40.073,15.333 40.266 C 15.333 40.412,15.483 40.570,15.667 40.618 C 15.850 40.666,16.000 40.809,16.000 40.936 C 16.000 41.088,16.198 41.167,16.583 41.167 C 17.056 41.167,17.167 41.230,17.167 41.500 C 17.167 41.793,17.278 41.833,18.083 41.833 C 18.787 41.833,19.000 41.891,19.000 42.083 C 19.000 42.258,19.176 42.333,19.583 42.333 C 20.056 42.333,20.167 42.397,20.167 42.667 C 20.167 42.970,20.278 43.000,21.417 43.000 C 22.556 43.000,22.667 43.030,22.667 43.333 C 22.667 43.656,22.778 43.667,26.250 43.667 C 29.722 43.667,29.833 43.656,29.833 43.333 C 29.833 43.025,29.944 43.000,31.333 43.000 C 32.722 43.000,32.833 42.975,32.833 42.667 C 32.833 42.397,32.944 42.333,33.417 42.333 C 33.824 42.333,34.000 42.258,34.000 42.083 C 34.000 41.909,34.176 41.833,34.583 41.833 C 35.056 41.833,35.167 41.770,35.167 41.500 C 35.167 41.222,35.278 41.167,35.833 41.167 C 36.315 41.167,36.500 41.097,36.500 40.917 C 36.500 40.742,36.676 40.667,37.083 40.667 C 37.556 40.667,37.667 40.603,37.667 40.333 C 37.667 40.111,37.778 40.000,38.000 40.000 C 38.222 40.000,38.333 39.889,38.333 39.667 C 38.333 39.481,38.444 39.333,38.583 39.333 C 38.721 39.333,38.833 39.221,38.833 39.083 C 38.833 38.944,38.981 38.833,39.167 38.833 C 39.389 38.833,39.500 38.722,39.500 38.500 C 39.500 38.315,39.611 38.167,39.750 38.167 C 39.887 38.167,40.000 38.054,40.000 37.917 C 40.000 37.702,40.546 37.667,43.917 37.667 C 47.722 37.667,47.833 37.657,47.833 37.333 C 47.833 37.111,47.944 37.000,48.167 37.000 C 48.389 37.000,48.500 36.889,48.500 36.667 C 48.500 36.444,48.611 36.333,48.833 36.333 C 49.133 36.333,49.167 36.222,49.167 35.234 C 49.167 34.276,49.124 34.124,48.833 34.048 C 48.583 33.983,48.500 33.821,48.500 33.397 C 48.500 32.944,48.434 32.833,48.167 32.833 C 47.897 32.833,47.833 32.722,47.833 32.250 C 47.833 31.843,47.758 31.667,47.583 31.667 C 47.444 31.667,47.333 31.519,47.333 31.333 C 47.333 31.111,47.222 31.000,47.000 31.000 C 46.815 31.000,46.667 30.889,46.667 30.750 C 46.667 30.613,46.554 30.500,46.417 30.500 C 46.278 30.500,46.167 30.352,46.167 30.167 C 46.167 29.944,46.056 29.833,45.833 29.833 C 45.611 29.833,45.500 29.722,45.500 29.500 C 45.500 29.278,45.389 29.167,45.167 29.167 C 44.849 29.167,44.833 29.056,44.833 26.750 C 44.833 24.444,44.849 24.333,45.167 24.333 C 45.350 24.333,45.500 24.230,45.500 24.103 C 45.500 23.976,45.650 23.833,45.833 23.785 C 46.089 23.718,46.167 23.558,46.167 23.099 C 46.167 22.678,46.241 22.500,46.417 22.500 C 46.554 22.500,46.667 22.387,46.667 22.250 C 46.667 22.111,46.815 22.000,47.000 22.000 C 47.222 22.000,47.333 21.889,47.333 21.667 C 47.333 21.481,47.444 21.333,47.583 21.333 C 47.721 21.333,47.833 21.221,47.833 21.083 C 47.833 20.944,47.981 20.833,48.167 20.833 C 48.389 20.833,48.500 20.722,48.500 20.500 C 48.500 20.278,48.611 20.167,48.833 20.167 C 49.056 20.167,49.167 20.056,49.167 19.833 C 49.167 19.648,49.278 19.500,49.417 19.500 C 49.554 19.500,49.667 19.387,49.667 19.250 C 49.667 19.111,49.815 19.000,50.000 19.000 C 50.278 19.000,50.333 18.889,50.333 18.333 C 50.333 17.852,50.403 17.667,50.583 17.667 C 50.772 17.667,50.833 17.463,50.833 16.833 C 50.833 16.204,50.772 16.000,50.583 16.000 C 50.444 16.000,50.333 15.852,50.333 15.667 C 50.333 15.444,50.222 15.333,50.000 15.333 C 49.815 15.333,49.667 15.222,49.667 15.083 C 49.667 14.909,49.491 14.833,49.083 14.833 C 48.611 14.833,48.500 14.770,48.500 14.500 C 48.500 14.181,48.389 14.167,45.833 14.167 C 43.278 14.167,43.167 14.181,43.167 14.500 C 43.167 14.810,43.056 14.833,41.583 14.833 C 40.111 14.833,40.000 14.810,40.000 14.500 C 40.000 14.315,39.889 14.167,39.750 14.167 C 39.611 14.167,39.500 14.019,39.500 13.833 C 39.500 13.611,39.389 13.500,39.167 13.500 C 38.981 13.500,38.833 13.389,38.833 13.250 C 38.833 13.112,38.721 13.000,38.583 13.000 C 38.409 13.000,38.333 12.824,38.333 12.417 C 38.333 11.944,38.270 11.833,38.000 11.833 C 37.778 11.833,37.667 11.722,37.667 11.500 C 37.667 11.232,37.556 11.167,37.103 11.167 C 36.679 11.167,36.517 11.084,36.452 10.833 C 36.404 10.650,36.245 10.500,36.099 10.500 C 35.953 10.500,35.833 10.387,35.833 10.250 C 35.833 10.075,35.657 10.000,35.250 10.000 C 34.778 10.000,34.667 9.937,34.667 9.667 C 34.667 9.374,34.556 9.333,33.750 9.333 C 33.046 9.333,32.833 9.275,32.833 9.083 C 32.833 8.865,32.019 8.833,26.500 8.833 C 20.981 8.833,20.167 8.865,20.167 9.083 M49.667 10.500 L 49.667 11.667 50.333 11.667 C 50.889 11.667,51.000 11.722,51.000 12.000 C 51.000 12.288,51.111 12.333,51.814 12.333 C 52.488 12.333,52.643 12.391,52.715 12.667 C 52.763 12.850,52.922 13.000,53.068 13.000 C 53.214 13.000,53.333 13.112,53.333 13.250 C 53.333 13.389,53.481 13.500,53.667 13.500 C 53.997 13.500,54.000 13.611,54.000 26.750 C 54.000 39.889,53.997 40.000,53.667 40.000 C 53.444 40.000,53.333 40.111,53.333 40.333 C 53.333 40.556,53.222 40.667,53.000 40.667 C 52.815 40.667,52.667 40.778,52.667 40.917 C 52.667 41.115,52.426 41.167,51.500 41.167 C 50.444 41.167,50.333 41.198,50.333 41.500 C 50.333 41.722,50.222 41.833,50.000 41.833 C 49.698 41.833,49.667 41.944,49.667 43.000 L 49.667 44.167 58.750 44.167 C 66.713 44.167,67.833 44.136,67.833 43.917 C 67.833 43.718,68.074 43.667,69.000 43.667 C 70.056 43.667,70.167 43.635,70.167 43.333 C 70.167 43.040,70.278 43.000,71.083 43.000 C 71.889 43.000,72.000 42.960,72.000 42.667 C 72.000 42.397,72.111 42.333,72.583 42.333 C 72.991 42.333,73.167 42.258,73.167 42.083 C 73.167 41.909,73.343 41.833,73.750 41.833 C 74.222 41.833,74.333 41.770,74.333 41.500 C 74.333 41.278,74.444 41.167,74.667 41.167 C 74.850 41.167,75.000 41.063,75.000 40.936 C 75.000 40.809,75.150 40.666,75.333 40.618 C 75.517 40.570,75.667 40.412,75.667 40.266 C 75.667 40.120,75.779 40.000,75.917 40.000 C 76.056 40.000,76.167 39.852,76.167 39.667 C 76.167 39.444,76.278 39.333,76.500 39.333 C 76.685 39.333,76.833 39.222,76.833 39.083 C 76.833 38.946,76.946 38.833,77.083 38.833 C 77.275 38.833,77.333 38.620,77.333 37.917 C 77.333 37.111,77.374 37.000,77.667 37.000 C 77.989 37.000,78.000 36.889,78.000 33.750 C 78.000 30.611,77.989 30.500,77.667 30.500 C 77.389 30.500,77.333 30.389,77.333 29.833 C 77.333 29.352,77.264 29.167,77.083 29.167 C 76.909 29.167,76.833 28.991,76.833 28.583 C 76.833 28.111,76.770 28.000,76.500 28.000 C 76.278 28.000,76.167 27.889,76.167 27.667 C 76.167 27.481,76.056 27.333,75.917 27.333 C 75.779 27.333,75.667 27.221,75.667 27.083 C 75.667 26.903,75.481 26.833,75.000 26.833 C 74.444 26.833,74.333 26.778,74.333 26.500 C 74.333 26.230,74.222 26.167,73.750 26.167 C 73.343 26.167,73.167 26.091,73.167 25.917 C 73.167 25.742,72.991 25.667,72.583 25.667 C 72.111 25.667,72.000 25.603,72.000 25.333 C 72.000 25.111,72.111 25.000,72.333 25.000 C 72.556 25.000,72.667 24.889,72.667 24.667 C 72.667 24.397,72.778 24.333,73.250 24.333 C 73.657 24.333,73.833 24.258,73.833 24.083 C 73.833 23.946,73.946 23.833,74.083 23.833 C 74.222 23.833,74.333 23.685,74.333 23.500 C 74.333 23.278,74.444 23.167,74.667 23.167 C 74.937 23.167,75.000 23.056,75.000 22.583 C 75.000 22.111,75.063 22.000,75.333 22.000 C 75.603 22.000,75.667 21.889,75.667 21.417 C 75.667 21.009,75.742 20.833,75.917 20.833 C 76.131 20.833,76.167 20.352,76.167 17.500 C 76.167 14.648,76.131 14.167,75.917 14.167 C 75.742 14.167,75.667 13.991,75.667 13.583 C 75.667 13.111,75.603 13.000,75.333 13.000 C 75.111 13.000,75.000 12.889,75.000 12.667 C 75.000 12.444,74.889 12.333,74.667 12.333 C 74.481 12.333,74.333 12.222,74.333 12.083 C 74.333 11.946,74.221 11.833,74.083 11.833 C 73.944 11.833,73.833 11.685,73.833 11.500 C 73.833 11.278,73.722 11.167,73.500 11.167 C 73.278 11.167,73.167 11.056,73.167 10.833 C 73.167 10.540,73.056 10.500,72.250 10.500 C 71.546 10.500,71.333 10.442,71.333 10.250 C 71.333 10.058,71.120 10.000,70.417 10.000 C 69.611 10.000,69.500 9.960,69.500 9.667 C 69.500 9.337,69.389 9.333,59.583 9.333 L 49.667 9.333 49.667 10.500 M30.500 10.833 C 30.500 11.126,30.611 11.167,31.417 11.167 C 32.120 11.167,32.333 11.225,32.333 11.417 C 32.333 11.591,32.509 11.667,32.917 11.667 C 33.389 11.667,33.500 11.730,33.500 12.000 C 33.500 12.270,33.611 12.333,34.083 12.333 L 34.667 12.333 34.667 14.167 C 34.667 15.889,34.687 16.000,35.000 16.000 C 35.185 16.000,35.333 16.111,35.333 16.250 C 35.333 16.387,35.446 16.500,35.583 16.500 C 35.722 16.500,35.833 16.648,35.833 16.833 C 35.833 17.019,35.722 17.167,35.583 17.167 C 35.444 17.167,35.333 17.315,35.333 17.500 C 35.333 17.722,35.222 17.833,35.000 17.833 C 34.707 17.833,34.667 17.944,34.667 18.750 C 34.667 19.556,34.626 19.667,34.333 19.667 C 34.148 19.667,34.000 19.778,34.000 19.917 C 34.000 20.054,33.887 20.167,33.750 20.167 C 33.552 20.167,33.500 20.407,33.500 21.333 L 33.500 22.500 34.083 22.500 C 34.556 22.500,34.667 22.563,34.667 22.833 C 34.667 23.056,34.556 23.167,34.333 23.167 C 34.111 23.167,34.000 23.278,34.000 23.500 C 34.000 23.685,33.889 23.833,33.750 23.833 C 33.612 23.833,33.500 23.946,33.500 24.083 C 33.500 24.222,33.352 24.333,33.167 24.333 C 32.889 24.333,32.833 24.444,32.833 25.000 C 32.833 25.481,32.764 25.667,32.583 25.667 C 32.394 25.667,32.333 25.870,32.333 26.500 C 32.333 27.222,32.289 27.333,32.000 27.333 C 31.707 27.333,31.667 27.444,31.667 28.250 L 31.667 29.167 30.750 29.167 C 29.944 29.167,29.833 29.207,29.833 29.500 C 29.833 29.770,29.722 29.833,29.250 29.833 C 28.778 29.833,28.667 29.897,28.667 30.167 C 28.667 30.460,28.556 30.500,27.750 30.500 C 27.046 30.500,26.833 30.558,26.833 30.750 C 26.833 30.925,26.657 31.000,26.250 31.000 C 25.843 31.000,25.667 30.925,25.667 30.750 C 25.667 30.569,25.481 30.500,25.000 30.500 C 24.444 30.500,24.333 30.444,24.333 30.167 C 24.333 29.879,24.222 29.833,23.519 29.833 C 22.846 29.833,22.691 29.776,22.618 29.500 C 22.546 29.222,22.391 29.167,21.682 29.167 C 21.039 29.167,20.833 29.106,20.833 28.917 C 20.833 28.736,20.648 28.667,20.167 28.667 C 19.611 28.667,19.500 28.611,19.500 28.333 C 19.500 28.063,19.389 28.000,18.917 28.000 C 18.444 28.000,18.333 27.937,18.333 27.667 C 18.333 27.397,18.222 27.333,17.750 27.333 C 17.343 27.333,17.167 27.258,17.167 27.083 C 17.167 26.944,17.019 26.833,16.833 26.833 C 16.611 26.833,16.500 26.722,16.500 26.500 C 16.500 26.315,16.389 26.167,16.250 26.167 C 16.058 26.167,16.000 25.954,16.000 25.250 C 16.000 24.546,16.058 24.333,16.250 24.333 C 16.442 24.333,16.500 24.120,16.500 23.417 C 16.500 22.611,16.540 22.500,16.833 22.500 C 17.019 22.500,17.167 22.389,17.167 22.250 C 17.167 22.111,17.315 22.000,17.500 22.000 C 17.722 22.000,17.833 21.889,17.833 21.667 C 17.833 21.481,17.944 21.333,18.083 21.333 C 18.221 21.333,18.333 21.224,18.333 21.091 C 18.333 20.905,18.617 20.836,19.542 20.799 L 20.750 20.750 20.800 19.875 L 20.851 19.000 21.691 19.000 C 22.391 19.000,22.546 18.944,22.618 18.667 C 22.666 18.483,22.809 18.333,22.936 18.333 C 23.104 18.333,23.167 18.086,23.167 17.417 L 23.167 16.500 22.583 16.500 L 22.000 16.500 22.000 15.583 L 22.000 14.667 22.573 14.667 C 23.115 14.667,23.149 14.701,23.198 15.292 L 23.250 15.917 24.708 15.965 C 26.081 16.010,26.167 15.993,26.167 15.673 C 26.167 15.444,26.276 15.333,26.500 15.333 C 26.722 15.333,26.833 15.222,26.833 15.000 C 26.833 14.730,26.944 14.667,27.417 14.667 C 27.824 14.667,28.000 14.591,28.000 14.417 C 28.000 14.242,28.176 14.167,28.583 14.167 L 29.167 14.167 29.167 12.333 L 29.167 10.500 29.833 10.500 C 30.389 10.500,30.500 10.556,30.500 10.833 M22.000 11.417 C 22.000 11.591,22.189 11.673,22.625 11.686 C 22.969 11.697,23.119 11.740,22.958 11.782 C 22.752 11.835,22.667 12.025,22.667 12.429 C 22.667 12.889,22.602 13.000,22.333 13.000 C 22.063 13.000,22.000 12.889,22.000 12.417 C 22.000 11.944,21.937 11.833,21.667 11.833 C 21.444 11.833,21.333 11.722,21.333 11.500 C 21.333 11.278,21.444 11.167,21.667 11.167 C 21.852 11.167,22.000 11.278,22.000 11.417 M66.000 13.250 C 66.000 13.425,66.176 13.500,66.583 13.500 C 67.056 13.500,67.167 13.563,67.167 13.833 C 67.167 14.103,67.278 14.167,67.750 14.167 C 68.306 14.167,68.333 14.194,68.333 14.750 C 68.333 15.222,68.397 15.333,68.667 15.333 C 68.889 15.333,69.000 15.444,69.000 15.667 C 69.000 15.889,69.111 16.000,69.333 16.000 C 69.649 16.000,69.667 16.111,69.667 18.083 C 69.667 20.056,69.649 20.167,69.333 20.167 C 69.066 20.167,69.000 20.278,69.000 20.731 C 69.000 21.154,68.917 21.316,68.667 21.382 C 68.411 21.448,68.333 21.609,68.333 22.068 C 68.333 22.641,68.308 22.667,67.750 22.667 C 67.343 22.667,67.167 22.742,67.167 22.917 C 67.167 23.054,67.054 23.167,66.917 23.167 C 66.778 23.167,66.667 23.315,66.667 23.500 C 66.667 23.804,66.556 23.833,65.417 23.833 C 64.417 23.833,64.167 23.883,64.167 24.083 C 64.167 24.292,63.824 24.333,62.083 24.333 L 60.000 24.333 60.000 18.667 L 60.000 13.000 63.000 13.000 C 65.556 13.000,66.000 13.037,66.000 13.250 M18.794 14.781 C 18.634 14.823,18.334 14.824,18.127 14.785 C 17.920 14.745,18.050 14.711,18.417 14.709 C 18.783 14.707,18.953 14.739,18.794 14.781 M17.167 15.667 C 17.167 15.852,17.056 16.000,16.917 16.000 C 16.743 16.000,16.660 16.191,16.644 16.625 C 16.630 17.012,16.594 17.107,16.549 16.875 C 16.509 16.669,16.370 16.500,16.238 16.500 C 16.077 16.500,16.000 16.311,16.000 15.917 C 16.000 15.361,16.028 15.333,16.583 15.333 C 17.056 15.333,17.167 15.397,17.167 15.667 M10.548 16.833 C 10.500 17.017,10.357 17.167,10.231 17.167 C 10.078 17.167,10.000 17.364,10.000 17.750 C 10.000 18.222,9.937 18.333,9.667 18.333 C 9.374 18.333,9.333 18.444,9.333 19.250 L 9.333 20.167 8.750 20.167 C 8.278 20.167,8.167 20.230,8.167 20.500 C 8.167 20.722,8.056 20.833,7.833 20.833 C 7.611 20.833,7.500 20.722,7.500 20.500 C 7.500 20.315,7.389 20.167,7.250 20.167 C 7.075 20.167,7.000 19.991,7.000 19.583 C 7.000 19.111,6.937 19.000,6.667 19.000 C 6.444 19.000,6.333 18.889,6.333 18.667 C 6.333 18.444,6.222 18.333,6.000 18.333 C 5.778 18.333,5.667 18.222,5.667 18.000 C 5.667 17.778,5.778 17.667,6.000 17.667 C 6.185 17.667,6.333 17.556,6.333 17.417 C 6.333 17.242,6.509 17.167,6.917 17.167 C 7.389 17.167,7.500 17.103,7.500 16.833 C 7.500 16.524,7.611 16.500,9.068 16.500 C 10.553 16.500,10.631 16.517,10.548 16.833 M45.000 16.833 C 45.000 17.103,45.111 17.167,45.583 17.167 C 45.991 17.167,46.167 17.242,46.167 17.417 C 46.167 17.554,46.279 17.667,46.417 17.667 C 46.556 17.667,46.667 17.815,46.667 18.000 C 46.667 18.185,46.556 18.333,46.417 18.333 C 46.236 18.333,46.167 18.519,46.167 19.000 C 46.167 19.556,46.111 19.667,45.833 19.667 C 45.648 19.667,45.500 19.778,45.500 19.917 C 45.500 20.054,45.387 20.167,45.250 20.167 C 45.111 20.167,45.000 20.315,45.000 20.500 C 45.000 20.722,44.889 20.833,44.667 20.833 C 44.444 20.833,44.333 20.722,44.333 20.500 C 44.333 20.278,44.222 20.167,44.000 20.167 C 43.707 20.167,43.667 20.056,43.667 19.250 C 43.667 18.444,43.626 18.333,43.333 18.333 C 43.063 18.333,43.000 18.222,43.000 17.750 C 43.000 17.194,42.972 17.167,42.417 17.167 C 41.944 17.167,41.833 17.103,41.833 16.833 C 41.833 16.523,41.944 16.500,43.417 16.500 C 44.889 16.500,45.000 16.523,45.000 16.833 M87.667 20.500 C 87.667 20.793,87.556 20.833,86.750 20.833 C 86.046 20.833,85.833 20.891,85.833 21.083 C 85.833 21.258,85.657 21.333,85.250 21.333 C 84.778 21.333,84.667 21.397,84.667 21.667 C 84.667 21.937,84.556 22.000,84.083 22.000 C 83.611 22.000,83.500 22.063,83.500 22.333 C 83.500 22.556,83.389 22.667,83.167 22.667 C 82.981 22.667,82.833 22.778,82.833 22.917 C 82.833 23.054,82.721 23.167,82.583 23.167 C 82.444 23.167,82.333 23.315,82.333 23.500 C 82.333 23.722,82.222 23.833,82.000 23.833 C 81.815 23.833,81.667 23.944,81.667 24.083 C 81.667 24.221,81.547 24.333,81.401 24.333 C 81.255 24.333,81.096 24.483,81.048 24.667 C 81.000 24.850,80.857 25.000,80.731 25.000 C 80.604 25.000,80.500 25.150,80.500 25.333 C 80.500 25.556,80.389 25.667,80.167 25.667 C 79.878 25.667,79.833 25.778,79.833 26.500 C 79.833 27.130,79.772 27.333,79.583 27.333 C 79.391 27.333,79.333 27.546,79.333 28.250 C 79.333 29.056,79.293 29.167,79.000 29.167 C 78.677 29.167,78.667 29.278,78.667 32.750 C 78.667 36.222,78.677 36.333,79.000 36.333 C 79.293 36.333,79.333 36.444,79.333 37.250 C 79.333 37.954,79.391 38.167,79.583 38.167 C 79.758 38.167,79.833 38.343,79.833 38.750 C 79.833 39.222,79.897 39.333,80.167 39.333 C 80.389 39.333,80.500 39.444,80.500 39.667 C 80.500 39.852,80.611 40.000,80.750 40.000 C 80.887 40.000,81.000 40.120,81.000 40.266 C 81.000 40.412,81.150 40.570,81.333 40.618 C 81.517 40.666,81.667 40.809,81.667 40.936 C 81.667 41.063,81.817 41.167,82.000 41.167 C 82.222 41.167,82.333 41.278,82.333 41.500 C 82.333 41.685,82.444 41.833,82.583 41.833 C 82.721 41.833,82.833 41.946,82.833 42.083 C 82.833 42.222,82.981 42.333,83.167 42.333 C 83.389 42.333,83.500 42.444,83.500 42.667 C 83.500 42.937,83.611 43.000,84.083 43.000 C 84.556 43.000,84.667 43.063,84.667 43.333 C 84.667 43.603,84.778 43.667,85.250 43.667 C 85.657 43.667,85.833 43.742,85.833 43.917 C 85.833 44.117,86.083 44.167,87.083 44.167 C 88.222 44.167,88.333 44.196,88.333 44.500 C 88.333 44.821,88.444 44.833,91.266 44.833 C 94.058 44.833,94.202 44.817,94.285 44.500 C 94.362 44.207,94.512 44.167,95.519 44.167 C 96.428 44.167,96.667 44.115,96.667 43.917 C 96.667 43.742,96.843 43.667,97.250 43.667 C 97.722 43.667,97.833 43.603,97.833 43.333 C 97.833 43.056,97.944 43.000,98.500 43.000 C 99.056 43.000,99.167 42.944,99.167 42.667 C 99.167 42.397,99.278 42.333,99.750 42.333 C 100.157 42.333,100.333 42.258,100.333 42.083 C 100.333 41.946,100.446 41.833,100.583 41.833 C 100.722 41.833,100.833 41.685,100.833 41.500 C 100.833 41.278,100.944 41.167,101.167 41.167 C 101.350 41.167,101.500 41.063,101.500 40.936 C 101.500 40.809,101.650 40.666,101.833 40.618 C 102.089 40.552,102.167 40.391,102.167 39.932 C 102.167 39.511,102.241 39.333,102.417 39.333 C 102.554 39.333,102.667 39.221,102.667 39.083 C 102.667 38.944,102.815 38.833,103.000 38.833 C 103.270 38.833,103.333 38.722,103.333 38.250 C 103.333 37.843,103.409 37.667,103.583 37.667 C 103.775 37.667,103.833 37.454,103.833 36.750 C 103.833 35.944,103.874 35.833,104.167 35.833 C 104.491 35.833,104.500 35.722,104.500 31.917 C 104.500 28.111,104.491 28.000,104.167 28.000 C 103.874 28.000,103.833 27.889,103.833 27.083 C 103.833 26.380,103.775 26.167,103.583 26.167 C 103.446 26.167,103.333 26.054,103.333 25.917 C 103.333 25.778,103.185 25.667,103.000 25.667 C 102.722 25.667,102.667 25.556,102.667 25.000 C 102.667 24.519,102.597 24.333,102.417 24.333 C 102.279 24.333,102.167 24.221,102.167 24.083 C 102.167 23.944,102.019 23.833,101.833 23.833 C 101.611 23.833,101.500 23.722,101.500 23.500 C 101.500 23.278,101.389 23.167,101.167 23.167 C 100.981 23.167,100.833 23.056,100.833 22.917 C 100.833 22.779,100.721 22.667,100.583 22.667 C 100.444 22.667,100.333 22.519,100.333 22.333 C 100.333 22.066,100.222 22.000,99.769 22.000 C 99.346 22.000,99.184 21.917,99.118 21.667 C 99.052 21.411,98.891 21.333,98.432 21.333 C 98.011 21.333,97.833 21.259,97.833 21.083 C 97.833 20.894,97.630 20.833,97.000 20.833 C 96.278 20.833,96.167 20.789,96.167 20.500 C 96.167 20.175,96.056 20.167,91.917 20.167 C 87.778 20.167,87.667 20.175,87.667 20.500 M158.833 20.500 C 158.833 20.793,158.722 20.833,157.917 20.833 C 157.213 20.833,157.000 20.891,157.000 21.083 C 157.000 21.258,156.824 21.333,156.417 21.333 C 155.944 21.333,155.833 21.397,155.833 21.667 C 155.833 21.944,155.722 22.000,155.167 22.000 C 154.611 22.000,154.500 22.056,154.500 22.333 C 154.500 22.519,154.389 22.667,154.250 22.667 C 154.112 22.667,154.000 22.779,154.000 22.917 C 154.000 23.056,153.852 23.167,153.667 23.167 C 153.444 23.167,153.333 23.278,153.333 23.500 C 153.333 23.722,153.222 23.833,153.000 23.833 C 152.815 23.833,152.667 23.944,152.667 24.083 C 152.667 24.221,152.554 24.333,152.417 24.333 C 152.236 24.333,152.167 24.519,152.167 25.000 C 152.167 25.556,152.111 25.667,151.833 25.667 C 151.648 25.667,151.500 25.778,151.500 25.917 C 151.500 26.054,151.387 26.167,151.250 26.167 C 151.058 26.167,151.000 26.380,151.000 27.083 C 151.000 27.889,150.960 28.000,150.667 28.000 C 150.354 28.000,150.333 28.111,150.333 29.833 C 150.333 31.556,150.313 31.667,150.000 31.667 C 149.698 31.667,149.667 31.778,149.667 32.833 C 149.667 33.889,149.698 34.000,150.000 34.000 C 150.313 34.000,150.333 34.111,150.333 35.833 C 150.333 37.556,150.354 37.667,150.667 37.667 C 150.937 37.667,151.000 37.778,151.000 38.250 C 151.000 38.657,151.075 38.833,151.250 38.833 C 151.425 38.833,151.500 39.009,151.500 39.417 C 151.500 39.889,151.563 40.000,151.833 40.000 C 152.056 40.000,152.167 40.111,152.167 40.333 C 152.167 40.519,152.278 40.667,152.417 40.667 C 152.554 40.667,152.667 40.779,152.667 40.917 C 152.667 41.056,152.815 41.167,153.000 41.167 C 153.222 41.167,153.333 41.278,153.333 41.500 C 153.333 41.722,153.444 41.833,153.667 41.833 C 153.852 41.833,154.000 41.944,154.000 42.083 C 154.000 42.258,154.176 42.333,154.583 42.333 C 155.056 42.333,155.167 42.397,155.167 42.667 C 155.167 42.889,155.278 43.000,155.500 43.000 C 155.722 43.000,155.833 43.111,155.833 43.333 C 155.833 43.622,155.944 43.667,156.667 43.667 C 157.296 43.667,157.500 43.728,157.500 43.917 C 157.500 44.117,157.750 44.167,158.750 44.167 C 159.889 44.167,160.000 44.196,160.000 44.500 C 160.000 44.821,160.111 44.833,163.000 44.833 C 165.889 44.833,166.000 44.821,166.000 44.500 C 166.000 44.191,166.111 44.167,167.500 44.167 C 168.722 44.167,169.000 44.120,169.000 43.917 C 169.000 43.727,169.205 43.667,169.849 43.667 C 170.558 43.667,170.712 43.612,170.785 43.333 C 170.851 43.083,171.012 43.000,171.436 43.000 C 171.889 43.000,172.000 42.934,172.000 42.667 C 172.000 42.444,172.111 42.333,172.333 42.333 C 172.626 42.333,172.667 42.444,172.667 43.250 L 172.667 44.167 179.583 44.167 L 186.500 44.167 186.500 43.000 C 186.500 41.944,186.468 41.833,186.167 41.833 C 185.944 41.833,185.833 41.722,185.833 41.500 C 185.833 41.198,185.722 41.167,184.667 41.167 C 183.741 41.167,183.500 41.115,183.500 40.917 C 183.500 40.736,183.315 40.667,182.833 40.667 L 182.167 40.667 182.167 33.083 L 182.167 25.500 182.833 25.500 C 183.315 25.500,183.500 25.431,183.500 25.250 C 183.500 25.062,183.702 25.000,184.322 25.000 C 185.041 25.000,185.152 24.953,185.216 24.625 L 185.288 24.250 185.311 24.625 C 185.330 24.938,185.430 25.000,185.917 25.000 C 186.472 25.000,186.500 25.028,186.500 25.583 C 186.500 26.056,186.563 26.167,186.833 26.167 C 187.103 26.167,187.167 26.278,187.167 26.750 C 187.167 27.157,187.242 27.333,187.417 27.333 C 187.591 27.333,187.667 27.509,187.667 27.917 C 187.667 28.389,187.730 28.500,188.000 28.500 C 188.222 28.500,188.333 28.611,188.333 28.833 C 188.333 29.135,188.444 29.167,189.500 29.167 L 190.667 29.167 190.667 27.667 C 190.667 26.278,190.691 26.167,191.000 26.167 C 191.309 26.167,191.333 26.056,191.333 24.667 C 191.333 23.444,191.380 23.167,191.583 23.167 C 191.787 23.167,191.833 22.889,191.833 21.667 L 191.833 20.167 189.500 20.167 C 187.278 20.167,187.167 20.183,187.167 20.500 C 187.167 20.793,187.056 20.833,186.250 20.833 C 185.546 20.833,185.333 20.891,185.333 21.083 C 185.333 21.275,185.120 21.333,184.417 21.333 C 183.611 21.333,183.500 21.374,183.500 21.667 C 183.500 21.935,183.389 22.000,182.928 22.000 C 182.468 22.000,182.342 22.073,182.284 22.375 C 182.245 22.581,182.202 22.169,182.189 21.458 L 182.167 20.167 180.750 20.167 C 179.444 20.167,179.333 20.193,179.333 20.500 C 179.333 20.810,179.222 20.833,177.750 20.833 C 176.454 20.833,176.167 20.879,176.167 21.083 C 176.167 21.286,175.896 21.333,174.734 21.333 C 173.442 21.333,173.294 21.366,173.215 21.667 C 173.167 21.850,173.024 22.000,172.897 22.000 C 172.729 22.000,172.667 22.247,172.667 22.917 C 172.667 23.620,172.725 23.833,172.917 23.833 C 173.054 23.833,173.167 23.946,173.167 24.083 C 173.167 24.283,173.417 24.333,174.417 24.333 C 175.556 24.333,175.667 24.363,175.667 24.667 C 175.667 24.852,175.778 25.000,175.917 25.000 C 176.135 25.000,176.167 25.981,176.167 32.833 C 176.167 39.685,176.135 40.667,175.917 40.667 C 175.779 40.667,175.667 40.779,175.667 40.917 C 175.667 41.115,175.424 41.167,174.484 41.167 C 173.442 41.167,173.292 41.206,173.215 41.500 C 173.023 42.234,172.667 41.855,172.667 40.917 L 172.667 40.000 169.678 40.000 C 166.712 40.000,166.689 40.003,166.618 40.375 L 166.545 40.750 166.523 40.375 C 166.500 40.007,166.459 40.000,164.417 40.000 C 162.676 40.000,162.333 39.959,162.333 39.750 C 162.333 39.558,162.120 39.500,161.417 39.500 C 160.611 39.500,160.500 39.460,160.500 39.167 C 160.500 38.897,160.389 38.833,159.917 38.833 C 159.444 38.833,159.333 38.770,159.333 38.500 C 159.333 38.278,159.222 38.167,159.000 38.167 C 158.815 38.167,158.667 38.056,158.667 37.917 C 158.667 37.779,158.554 37.667,158.417 37.667 C 158.278 37.667,158.167 37.519,158.167 37.333 C 158.167 37.111,158.056 37.000,157.833 37.000 C 157.563 37.000,157.500 36.889,157.500 36.417 C 157.500 36.009,157.425 35.833,157.250 35.833 C 157.052 35.833,157.000 35.593,157.000 34.667 C 157.000 33.611,156.968 33.500,156.667 33.500 C 156.389 33.500,156.333 33.389,156.333 32.833 L 156.333 32.167 164.750 32.167 L 173.167 32.167 173.167 30.083 C 173.167 28.343,173.126 28.000,172.917 28.000 C 172.718 28.000,172.667 27.759,172.667 26.833 C 172.667 25.778,172.635 25.667,172.333 25.667 C 172.056 25.667,172.000 25.556,172.000 25.000 C 172.000 24.444,171.944 24.333,171.667 24.333 C 171.397 24.333,171.333 24.222,171.333 23.750 C 171.333 23.343,171.258 23.167,171.083 23.167 C 170.946 23.167,170.833 23.054,170.833 22.917 C 170.833 22.778,170.685 22.667,170.500 22.667 C 170.278 22.667,170.167 22.556,170.167 22.333 C 170.167 22.063,170.056 22.000,169.583 22.000 C 169.111 22.000,169.000 21.937,169.000 21.667 C 169.000 21.444,168.889 21.333,168.667 21.333 C 168.481 21.333,168.333 21.222,168.333 21.083 C 168.333 20.891,168.120 20.833,167.417 20.833 C 166.611 20.833,166.500 20.793,166.500 20.500 C 166.500 20.176,166.389 20.167,162.667 20.167 C 158.944 20.167,158.833 20.176,158.833 20.500 M211.833 20.500 C 211.833 20.793,211.722 20.833,210.917 20.833 C 210.213 20.833,210.000 20.891,210.000 21.083 C 210.000 21.258,209.824 21.333,209.417 21.333 C 208.944 21.333,208.833 21.397,208.833 21.667 C 208.833 21.944,208.722 22.000,208.167 22.000 C 207.611 22.000,207.500 22.056,207.500 22.333 C 207.500 22.519,207.389 22.667,207.250 22.667 C 207.112 22.667,207.000 22.779,207.000 22.917 C 207.000 23.056,206.852 23.167,206.667 23.167 C 206.444 23.167,206.333 23.278,206.333 23.500 C 206.333 23.685,206.222 23.833,206.083 23.833 C 205.909 23.833,205.833 24.009,205.833 24.417 C 205.833 24.889,205.770 25.000,205.500 25.000 C 205.278 25.000,205.167 25.111,205.167 25.333 C 205.167 25.556,205.056 25.667,204.833 25.667 C 204.563 25.667,204.500 25.778,204.500 26.250 C 204.500 26.657,204.425 26.833,204.250 26.833 C 204.058 26.833,204.000 27.046,204.000 27.750 C 204.000 28.556,203.960 28.667,203.667 28.667 C 203.342 28.667,203.333 28.778,203.333 32.833 C 203.333 36.889,203.342 37.000,203.667 37.000 C 203.937 37.000,204.000 37.111,204.000 37.583 C 204.000 37.991,204.075 38.167,204.250 38.167 C 204.425 38.167,204.500 38.343,204.500 38.750 C 204.500 39.222,204.563 39.333,204.833 39.333 C 205.111 39.333,205.167 39.444,205.167 40.000 C 205.167 40.556,205.222 40.667,205.500 40.667 C 205.685 40.667,205.833 40.778,205.833 40.917 C 205.833 41.054,205.946 41.167,206.083 41.167 C 206.222 41.167,206.333 41.315,206.333 41.500 C 206.333 41.722,206.444 41.833,206.667 41.833 C 206.852 41.833,207.000 41.944,207.000 42.083 C 207.000 42.258,207.176 42.333,207.583 42.333 C 208.056 42.333,208.167 42.397,208.167 42.667 C 208.167 42.937,208.278 43.000,208.750 43.000 C 209.222 43.000,209.333 43.063,209.333 43.333 C 209.333 43.603,209.444 43.667,209.917 43.667 C 210.324 43.667,210.500 43.742,210.500 43.917 C 210.500 44.121,210.787 44.167,212.083 44.167 C 213.556 44.167,213.667 44.190,213.667 44.500 C 213.667 44.819,213.778 44.833,216.333 44.833 C 218.889 44.833,219.000 44.819,219.000 44.500 C 219.000 44.191,219.111 44.167,220.500 44.167 C 221.722 44.167,222.000 44.120,222.000 43.917 C 222.000 43.725,222.213 43.667,222.917 43.667 C 223.722 43.667,223.833 43.626,223.833 43.333 C 223.833 43.063,223.944 43.000,224.417 43.000 C 224.889 43.000,225.000 42.937,225.000 42.667 C 225.000 42.397,225.111 42.333,225.583 42.333 C 226.056 42.333,226.167 42.397,226.167 42.667 C 226.167 42.889,226.278 43.000,226.500 43.000 C 226.722 43.000,226.833 43.111,226.833 43.333 C 226.833 43.626,226.944 43.667,227.750 43.667 C 228.454 43.667,228.667 43.725,228.667 43.917 C 228.667 44.120,228.944 44.167,230.167 44.167 C 231.556 44.167,231.667 44.191,231.667 44.500 C 231.667 44.821,231.778 44.833,234.667 44.833 C 237.556 44.833,237.667 44.821,237.667 44.500 C 237.667 44.198,237.778 44.167,238.833 44.167 C 239.759 44.167,240.000 44.115,240.000 43.917 C 240.000 43.727,240.205 43.667,240.849 43.667 C 241.558 43.667,241.712 43.612,241.785 43.333 C 241.833 43.149,242.012 43.000,242.186 43.000 C 242.389 43.000,242.500 42.882,242.500 42.667 C 242.500 42.397,242.611 42.333,243.083 42.333 C 243.469 42.333,243.667 42.255,243.667 42.103 C 243.667 41.976,243.817 41.833,244.000 41.785 C 244.243 41.722,244.333 41.558,244.333 41.182 C 244.333 40.835,244.415 40.667,244.583 40.667 C 244.764 40.667,244.833 40.481,244.833 40.000 C 244.833 39.444,244.889 39.333,245.167 39.333 C 245.484 39.333,245.500 39.222,245.500 37.000 C 245.500 34.778,245.484 34.667,245.167 34.667 C 244.897 34.667,244.833 34.556,244.833 34.083 C 244.833 33.676,244.758 33.500,244.583 33.500 C 244.444 33.500,244.333 33.352,244.333 33.167 C 244.333 32.944,244.222 32.833,244.000 32.833 C 243.778 32.833,243.667 32.722,243.667 32.500 C 243.667 32.278,243.556 32.167,243.333 32.167 C 243.148 32.167,243.000 32.056,243.000 31.917 C 243.000 31.742,242.824 31.667,242.417 31.667 C 241.944 31.667,241.833 31.603,241.833 31.333 C 241.833 31.063,241.722 31.000,241.250 31.000 C 240.843 31.000,240.667 30.925,240.667 30.750 C 240.667 30.558,240.454 30.500,239.750 30.500 C 238.944 30.500,238.833 30.460,238.833 30.167 C 238.833 29.874,238.722 29.833,237.917 29.833 C 237.111 29.833,237.000 29.793,237.000 29.500 C 237.000 29.207,236.889 29.167,236.083 29.167 C 235.380 29.167,235.167 29.109,235.167 28.917 C 235.167 28.742,234.991 28.667,234.583 28.667 C 234.111 28.667,234.000 28.603,234.000 28.333 C 234.000 28.063,233.889 28.000,233.417 28.000 C 232.944 28.000,232.833 27.937,232.833 27.667 C 232.833 27.444,232.722 27.333,232.500 27.333 C 232.230 27.333,232.167 27.222,232.167 26.750 C 232.167 26.343,232.091 26.167,231.917 26.167 C 231.778 26.167,231.667 26.019,231.667 25.833 C 231.667 25.648,231.778 25.500,231.917 25.500 C 232.054 25.500,232.167 25.387,232.167 25.250 C 232.167 25.111,232.315 25.000,232.500 25.000 C 232.722 25.000,232.833 24.889,232.833 24.667 C 232.833 24.397,232.944 24.333,233.417 24.333 C 233.824 24.333,234.000 24.258,234.000 24.083 C 234.000 23.871,234.417 23.833,236.750 23.833 L 239.500 23.833 239.500 24.667 C 239.500 25.389,239.544 25.500,239.833 25.500 C 240.126 25.500,240.167 25.611,240.167 26.417 C 240.167 27.120,240.225 27.333,240.417 27.333 C 240.591 27.333,240.667 27.509,240.667 27.917 L 240.667 28.500 241.583 28.500 C 242.287 28.500,242.500 28.442,242.500 28.250 C 242.500 28.113,242.612 28.000,242.750 28.000 C 242.925 28.000,243.000 27.824,243.000 27.417 C 243.000 26.944,243.063 26.833,243.333 26.833 C 243.637 26.833,243.667 26.722,243.667 25.603 C 243.667 24.512,243.705 24.362,244.000 24.285 C 244.306 24.205,244.333 24.058,244.333 22.516 L 244.333 20.833 243.083 20.833 C 241.944 20.833,241.833 20.804,241.833 20.500 C 241.833 20.174,241.722 20.167,237.083 20.167 C 232.444 20.167,232.333 20.174,232.333 20.500 C 232.333 20.793,232.222 20.833,231.417 20.833 C 230.713 20.833,230.500 20.891,230.500 21.083 C 230.500 21.258,230.324 21.333,229.917 21.333 C 229.444 21.333,229.333 21.397,229.333 21.667 C 229.333 21.889,229.222 22.000,229.000 22.000 C 228.778 22.000,228.667 22.111,228.667 22.333 C 228.667 22.556,228.556 22.667,228.333 22.667 C 228.148 22.667,228.000 22.778,228.000 22.917 C 228.000 23.054,227.887 23.167,227.750 23.167 C 227.575 23.167,227.500 23.343,227.500 23.750 C 227.500 24.222,227.437 24.333,227.167 24.333 C 226.863 24.333,226.833 24.444,226.833 25.583 L 226.833 26.833 226.250 26.833 L 225.667 26.833 225.667 25.917 C 225.667 25.111,225.626 25.000,225.333 25.000 C 225.063 25.000,225.000 24.889,225.000 24.417 C 225.000 23.944,224.937 23.833,224.667 23.833 C 224.444 23.833,224.333 23.722,224.333 23.500 C 224.333 23.315,224.222 23.167,224.083 23.167 C 223.946 23.167,223.833 23.054,223.833 22.917 C 223.833 22.778,223.685 22.667,223.500 22.667 C 223.278 22.667,223.167 22.556,223.167 22.333 C 223.167 22.150,223.063 22.000,222.936 22.000 C 222.809 22.000,222.666 21.850,222.618 21.667 C 222.552 21.411,222.391 21.333,221.932 21.333 C 221.511 21.333,221.333 21.259,221.333 21.083 C 221.333 20.891,221.120 20.833,220.417 20.833 C 219.611 20.833,219.500 20.793,219.500 20.500 C 219.500 20.176,219.389 20.167,215.667 20.167 C 211.944 20.167,211.833 20.176,211.833 20.500 M251.500 20.500 C 251.500 20.793,251.389 20.833,250.583 20.833 C 249.880 20.833,249.667 20.891,249.667 21.083 C 249.667 21.258,249.491 21.333,249.083 21.333 C 248.611 21.333,248.500 21.397,248.500 21.667 C 248.500 21.852,248.389 22.000,248.250 22.000 C 248.111 22.000,248.000 22.148,248.000 22.333 C 248.000 22.556,247.889 22.667,247.667 22.667 C 247.481 22.667,247.333 22.778,247.333 22.917 C 247.333 23.056,247.185 23.167,247.000 23.167 C 246.778 23.167,246.667 23.278,246.667 23.500 C 246.667 23.685,246.556 23.833,246.417 23.833 C 246.225 23.833,246.167 24.046,246.167 24.750 C 246.167 25.556,246.126 25.667,245.833 25.667 C 245.521 25.667,245.500 25.778,245.500 27.417 C 245.500 29.056,245.521 29.167,245.833 29.167 C 246.126 29.167,246.167 29.278,246.167 30.083 C 246.167 30.753,246.229 31.000,246.397 31.000 C 246.524 31.000,246.667 31.150,246.715 31.333 C 246.763 31.517,246.922 31.667,247.068 31.667 C 247.214 31.667,247.333 31.779,247.333 31.917 C 247.333 32.056,247.481 32.167,247.667 32.167 C 247.889 32.167,248.000 32.278,248.000 32.500 C 248.000 32.685,248.111 32.833,248.250 32.833 C 248.387 32.833,248.500 32.946,248.500 33.083 C 248.500 33.258,248.676 33.333,249.083 33.333 C 249.556 33.333,249.667 33.397,249.667 33.667 C 249.667 33.960,249.778 34.000,250.583 34.000 C 251.389 34.000,251.500 34.040,251.500 34.333 C 251.500 34.626,251.611 34.667,252.417 34.667 C 253.120 34.667,253.333 34.725,253.333 34.917 C 253.333 35.109,253.546 35.167,254.250 35.167 C 255.056 35.167,255.167 35.207,255.167 35.500 C 255.167 35.793,255.278 35.833,256.083 35.833 C 256.787 35.833,257.000 35.891,257.000 36.083 C 257.000 36.221,257.112 36.333,257.250 36.333 C 257.389 36.333,257.500 36.481,257.500 36.667 C 257.500 36.889,257.611 37.000,257.833 37.000 C 258.103 37.000,258.167 37.111,258.167 37.583 C 258.167 38.056,258.230 38.167,258.500 38.167 C 258.722 38.167,258.833 38.278,258.833 38.500 C 258.833 38.722,258.722 38.833,258.500 38.833 C 258.230 38.833,258.167 38.944,258.167 39.417 C 258.167 39.889,258.103 40.000,257.833 40.000 C 257.611 40.000,257.500 40.111,257.500 40.333 C 257.500 40.622,257.389 40.667,256.667 40.667 C 256.037 40.667,255.833 40.728,255.833 40.917 C 255.833 41.126,255.481 41.167,253.667 41.167 C 251.852 41.167,251.500 41.126,251.500 40.917 C 251.500 40.778,251.352 40.667,251.167 40.667 C 250.944 40.667,250.833 40.556,250.833 40.333 C 250.833 40.148,250.722 40.000,250.583 40.000 C 250.391 40.000,250.333 39.787,250.333 39.083 C 250.333 38.278,250.293 38.167,250.000 38.167 C 249.711 38.167,249.667 38.056,249.667 37.333 C 249.667 36.704,249.606 36.500,249.417 36.500 C 249.278 36.500,249.167 36.352,249.167 36.167 C 249.167 35.863,249.056 35.833,247.917 35.833 L 246.667 35.833 246.667 36.750 C 246.667 37.454,246.609 37.667,246.417 37.667 C 246.218 37.667,246.167 37.907,246.167 38.833 C 246.167 39.889,246.135 40.000,245.833 40.000 C 245.520 40.000,245.500 40.111,245.500 41.833 L 245.500 43.667 246.750 43.667 C 247.750 43.667,248.000 43.717,248.000 43.917 C 248.000 44.120,248.278 44.167,249.500 44.167 C 250.889 44.167,251.000 44.191,251.000 44.500 C 251.000 44.821,251.111 44.833,254.000 44.833 C 256.889 44.833,257.000 44.821,257.000 44.500 C 257.000 44.198,257.111 44.167,258.167 44.167 C 259.093 44.167,259.333 44.115,259.333 43.917 C 259.333 43.742,259.509 43.667,259.917 43.667 C 260.389 43.667,260.500 43.603,260.500 43.333 C 260.500 43.063,260.611 43.000,261.083 43.000 C 261.556 43.000,261.667 42.937,261.667 42.667 C 261.667 42.444,261.778 42.333,262.000 42.333 C 262.185 42.333,262.333 42.222,262.333 42.083 C 262.333 41.944,262.481 41.833,262.667 41.833 C 262.889 41.833,263.000 41.722,263.000 41.500 C 263.000 41.315,263.111 41.167,263.250 41.167 C 263.387 41.167,263.500 41.054,263.500 40.917 C 263.500 40.778,263.648 40.667,263.833 40.667 C 264.126 40.667,264.167 40.556,264.167 39.750 C 264.167 38.944,264.207 38.833,264.500 38.833 C 264.812 38.833,264.833 38.722,264.833 37.068 C 264.833 35.442,264.807 35.295,264.500 35.215 C 264.224 35.143,264.167 34.988,264.167 34.314 C 264.167 33.611,264.121 33.500,263.833 33.500 C 263.611 33.500,263.500 33.389,263.500 33.167 C 263.500 32.983,263.396 32.833,263.269 32.833 C 263.143 32.833,263.000 32.683,262.952 32.500 C 262.904 32.317,262.745 32.167,262.599 32.167 C 262.453 32.167,262.333 32.054,262.333 31.917 C 262.333 31.742,262.157 31.667,261.750 31.667 C 261.278 31.667,261.167 31.603,261.167 31.333 C 261.167 31.063,261.056 31.000,260.583 31.000 C 260.176 31.000,260.000 30.925,260.000 30.750 C 260.000 30.558,259.787 30.500,259.083 30.500 C 258.278 30.500,258.167 30.460,258.167 30.167 C 258.167 29.874,258.056 29.833,257.250 29.833 C 256.444 29.833,256.333 29.793,256.333 29.500 C 256.333 29.207,256.222 29.167,255.417 29.167 C 254.713 29.167,254.500 29.109,254.500 28.917 C 254.500 28.725,254.287 28.667,253.583 28.667 C 252.778 28.667,252.667 28.626,252.667 28.333 C 252.667 28.148,252.556 28.000,252.417 28.000 C 252.279 28.000,252.167 27.880,252.167 27.734 C 252.167 27.588,252.017 27.430,251.833 27.382 C 251.650 27.334,251.500 27.191,251.500 27.064 C 251.500 26.937,251.350 26.833,251.167 26.833 C 250.889 26.833,250.833 26.722,250.833 26.167 C 250.833 25.611,250.889 25.500,251.167 25.500 C 251.352 25.500,251.500 25.389,251.500 25.250 C 251.500 25.111,251.648 25.000,251.833 25.000 C 252.056 25.000,252.167 24.889,252.167 24.667 C 252.167 24.481,252.278 24.333,252.417 24.333 C 252.554 24.333,252.667 24.221,252.667 24.083 C 252.667 23.871,253.083 23.833,255.417 23.833 C 257.750 23.833,258.167 23.871,258.167 24.083 C 258.167 24.222,258.315 24.333,258.500 24.333 C 258.793 24.333,258.833 24.444,258.833 25.250 C 258.833 25.954,258.891 26.167,259.083 26.167 C 259.258 26.167,259.333 26.343,259.333 26.750 C 259.333 27.222,259.397 27.333,259.667 27.333 C 259.937 27.333,260.000 27.444,260.000 27.917 L 260.000 28.500 260.833 28.500 C 261.463 28.500,261.667 28.439,261.667 28.250 C 261.667 28.111,261.815 28.000,262.000 28.000 C 262.293 28.000,262.333 27.889,262.333 27.083 C 262.333 26.278,262.374 26.167,262.667 26.167 C 262.968 26.167,263.000 26.056,263.000 25.000 C 263.000 24.074,263.052 23.833,263.250 23.833 C 263.454 23.833,263.500 23.556,263.500 22.333 L 263.500 20.833 262.333 20.833 C 261.278 20.833,261.167 20.802,261.167 20.500 C 261.167 20.174,261.056 20.167,256.333 20.167 C 251.611 20.167,251.500 20.174,251.500 20.500 M40.667 23.167 C 40.667 23.817,40.653 23.833,40.083 23.833 C 39.611 23.833,39.500 23.770,39.500 23.500 C 39.500 23.315,39.611 23.167,39.750 23.167 C 39.889 23.167,40.000 23.019,40.000 22.833 C 40.000 22.611,40.111 22.500,40.333 22.500 C 40.611 22.500,40.667 22.611,40.667 23.167 M92.500 23.500 C 92.500 23.793,92.611 23.833,93.417 23.833 C 94.120 23.833,94.333 23.891,94.333 24.083 C 94.333 24.222,94.481 24.333,94.667 24.333 C 94.889 24.333,95.000 24.444,95.000 24.667 C 95.000 24.852,95.111 25.000,95.250 25.000 C 95.388 25.000,95.500 25.113,95.500 25.250 C 95.500 25.389,95.648 25.500,95.833 25.500 C 96.056 25.500,96.167 25.611,96.167 25.833 C 96.167 26.019,96.278 26.167,96.417 26.167 C 96.591 26.167,96.667 26.343,96.667 26.750 C 96.667 27.222,96.730 27.333,97.000 27.333 C 97.304 27.333,97.333 27.444,97.333 28.583 C 97.333 29.722,97.363 29.833,97.667 29.833 C 97.986 29.833,98.000 29.944,98.000 32.500 C 98.000 35.056,97.986 35.167,97.667 35.167 C 97.363 35.167,97.333 35.278,97.333 36.417 C 97.333 37.556,97.304 37.667,97.000 37.667 C 96.730 37.667,96.667 37.778,96.667 38.250 C 96.667 38.657,96.591 38.833,96.417 38.833 C 96.278 38.833,96.167 38.981,96.167 39.167 C 96.167 39.389,96.056 39.500,95.833 39.500 C 95.648 39.500,95.500 39.611,95.500 39.750 C 95.500 39.887,95.388 40.000,95.250 40.000 C 95.111 40.000,95.000 40.148,95.000 40.333 C 95.000 40.611,94.889 40.667,94.333 40.667 C 93.852 40.667,93.667 40.736,93.667 40.917 C 93.667 41.126,93.324 41.167,91.583 41.167 C 89.843 41.167,89.500 41.126,89.500 40.917 C 89.500 40.778,89.352 40.667,89.167 40.667 C 88.944 40.667,88.833 40.556,88.833 40.333 C 88.833 40.063,88.722 40.000,88.250 40.000 C 87.694 40.000,87.667 39.972,87.667 39.417 C 87.667 38.944,87.603 38.833,87.333 38.833 C 87.111 38.833,87.000 38.722,87.000 38.500 C 87.000 38.315,86.889 38.167,86.750 38.167 C 86.575 38.167,86.500 37.991,86.500 37.583 C 86.500 37.111,86.437 37.000,86.167 37.000 C 85.865 37.000,85.833 36.889,85.833 35.833 C 85.833 34.778,85.802 34.667,85.500 34.667 C 85.180 34.667,85.167 34.556,85.167 31.917 C 85.167 29.278,85.180 29.167,85.500 29.167 C 85.793 29.167,85.833 29.056,85.833 28.250 C 85.833 27.444,85.874 27.333,86.167 27.333 C 86.437 27.333,86.500 27.222,86.500 26.750 C 86.500 26.343,86.575 26.167,86.750 26.167 C 86.925 26.167,87.000 25.991,87.000 25.583 C 87.000 25.111,87.063 25.000,87.333 25.000 C 87.556 25.000,87.667 24.889,87.667 24.667 C 87.667 24.397,87.778 24.333,88.250 24.333 C 88.657 24.333,88.833 24.258,88.833 24.083 C 88.833 23.891,89.046 23.833,89.750 23.833 C 90.556 23.833,90.667 23.793,90.667 23.500 C 90.667 23.207,90.778 23.167,91.583 23.167 C 92.389 23.167,92.500 23.207,92.500 23.500 M163.667 23.500 C 163.667 23.770,163.778 23.833,164.250 23.833 C 164.657 23.833,164.833 23.909,164.833 24.083 C 164.833 24.221,164.946 24.333,165.083 24.333 C 165.258 24.333,165.333 24.509,165.333 24.917 C 165.333 25.389,165.397 25.500,165.667 25.500 C 165.960 25.500,166.000 25.611,166.000 26.417 C 166.000 27.222,166.040 27.333,166.333 27.333 C 166.611 27.333,166.667 27.444,166.667 28.000 L 166.667 28.667 161.833 28.667 L 157.000 28.667 157.000 28.000 C 157.000 27.519,157.069 27.333,157.250 27.333 C 157.425 27.333,157.500 27.157,157.500 26.750 C 157.500 26.278,157.563 26.167,157.833 26.167 C 158.103 26.167,158.167 26.056,158.167 25.583 C 158.167 25.176,158.242 25.000,158.417 25.000 C 158.556 25.000,158.667 24.852,158.667 24.667 C 158.667 24.389,158.778 24.333,159.333 24.333 C 159.815 24.333,160.000 24.264,160.000 24.083 C 160.000 23.909,160.176 23.833,160.583 23.833 C 161.056 23.833,161.167 23.770,161.167 23.500 C 161.167 23.196,161.278 23.167,162.417 23.167 C 163.556 23.167,163.667 23.196,163.667 23.500 M216.667 23.500 C 216.667 23.770,216.778 23.833,217.250 23.833 C 217.657 23.833,217.833 23.909,217.833 24.083 C 217.833 24.221,217.946 24.333,218.083 24.333 C 218.222 24.333,218.333 24.481,218.333 24.667 C 218.333 24.889,218.444 25.000,218.667 25.000 C 218.937 25.000,219.000 25.111,219.000 25.583 C 219.000 26.056,219.063 26.167,219.333 26.167 C 219.637 26.167,219.667 26.278,219.667 27.417 L 219.667 28.667 214.833 28.667 C 210.111 28.667,210.000 28.659,210.000 28.333 C 210.000 28.148,210.111 28.000,210.250 28.000 C 210.442 28.000,210.500 27.787,210.500 27.083 C 210.500 26.278,210.540 26.167,210.833 26.167 C 211.056 26.167,211.167 26.056,211.167 25.833 C 211.167 25.648,211.278 25.500,211.417 25.500 C 211.554 25.500,211.667 25.387,211.667 25.250 C 211.667 25.111,211.815 25.000,212.000 25.000 C 212.222 25.000,212.333 24.889,212.333 24.667 C 212.333 24.444,212.444 24.333,212.667 24.333 C 212.852 24.333,213.000 24.222,213.000 24.083 C 213.000 23.894,213.205 23.833,213.849 23.833 C 214.558 23.833,214.712 23.778,214.785 23.500 C 214.859 23.219,215.012 23.167,215.769 23.167 C 216.556 23.167,216.667 23.208,216.667 23.500 M140.167 31.667 L 140.167 39.500 139.500 39.500 C 139.019 39.500,138.833 39.569,138.833 39.750 C 138.833 39.948,138.593 40.000,137.667 40.000 C 136.611 40.000,136.500 40.032,136.500 40.333 C 136.500 40.611,136.389 40.667,135.833 40.667 C 135.278 40.667,135.167 40.611,135.167 40.333 C 135.167 40.032,135.056 40.000,134.000 40.000 C 133.074 40.000,132.833 39.948,132.833 39.750 C 132.833 39.611,132.685 39.500,132.500 39.500 C 132.278 39.500,132.167 39.389,132.167 39.167 C 132.167 38.897,132.056 38.833,131.583 38.833 C 131.111 38.833,131.000 38.770,131.000 38.500 C 131.000 38.315,130.889 38.167,130.750 38.167 C 130.575 38.167,130.500 37.991,130.500 37.583 C 130.500 37.111,130.437 37.000,130.167 37.000 C 129.897 37.000,129.833 36.889,129.833 36.417 C 129.833 35.944,129.770 35.833,129.500 35.833 C 129.207 35.833,129.167 35.722,129.167 34.917 C 129.167 34.213,129.109 34.000,128.917 34.000 C 128.710 34.000,128.667 33.685,128.667 32.167 C 128.667 30.648,128.710 30.333,128.917 30.333 C 129.115 30.333,129.167 30.093,129.167 29.167 C 129.167 28.111,129.198 28.000,129.500 28.000 C 129.770 28.000,129.833 27.889,129.833 27.417 C 129.833 26.994,129.907 26.833,130.099 26.833 C 130.245 26.833,130.404 26.683,130.452 26.500 C 130.500 26.317,130.643 26.167,130.769 26.167 C 130.896 26.167,131.000 26.017,131.000 25.833 C 131.000 25.611,131.111 25.500,131.333 25.500 C 131.519 25.500,131.667 25.389,131.667 25.250 C 131.667 25.075,131.843 25.000,132.250 25.000 C 132.722 25.000,132.833 24.937,132.833 24.667 C 132.833 24.397,132.944 24.333,133.417 24.333 C 133.824 24.333,134.000 24.258,134.000 24.083 C 134.000 23.870,134.454 23.833,137.083 23.833 L 140.167 23.833 140.167 31.667 M65.333 27.667 C 65.333 27.960,65.444 28.000,66.250 28.000 C 66.954 28.000,67.167 28.058,67.167 28.250 C 67.167 28.425,67.343 28.500,67.750 28.500 C 68.222 28.500,68.333 28.563,68.333 28.833 C 68.333 29.049,68.444 29.167,68.647 29.167 C 68.821 29.167,69.000 29.316,69.048 29.500 C 69.096 29.683,69.255 29.833,69.401 29.833 C 69.547 29.833,69.667 29.946,69.667 30.083 C 69.667 30.221,69.779 30.333,69.917 30.333 C 70.056 30.333,70.167 30.481,70.167 30.667 C 70.167 30.889,70.278 31.000,70.500 31.000 C 70.802 31.000,70.833 31.111,70.833 32.167 C 70.833 33.222,70.865 33.333,71.167 33.333 C 71.444 33.333,71.500 33.444,71.500 34.000 C 71.500 34.556,71.444 34.667,71.167 34.667 C 70.865 34.667,70.833 34.778,70.833 35.833 C 70.833 36.889,70.802 37.000,70.500 37.000 C 70.230 37.000,70.167 37.111,70.167 37.583 C 70.167 37.991,70.091 38.167,69.917 38.167 C 69.778 38.167,69.667 38.315,69.667 38.500 C 69.667 38.722,69.556 38.833,69.333 38.833 C 69.111 38.833,69.000 38.944,69.000 39.167 C 69.000 39.437,68.889 39.500,68.417 39.500 C 68.009 39.500,67.833 39.575,67.833 39.750 C 67.833 39.925,67.657 40.000,67.250 40.000 C 66.778 40.000,66.667 40.063,66.667 40.333 C 66.667 40.656,66.556 40.667,63.333 40.667 L 60.000 40.667 60.000 34.000 L 60.000 27.333 62.667 27.333 C 65.222 27.333,65.333 27.347,65.333 27.667 M16.000 28.833 C 16.000 29.056,15.889 29.167,15.667 29.167 C 15.483 29.167,15.333 29.060,15.333 28.929 C 15.333 28.798,15.202 28.657,15.042 28.615 C 14.881 28.573,15.031 28.530,15.375 28.519 C 15.895 28.503,16.000 28.556,16.000 28.833 M226.833 29.682 C 226.833 30.724,226.873 30.875,227.167 30.952 C 227.351 31.000,227.500 31.179,227.500 31.353 C 227.500 31.525,227.612 31.667,227.750 31.667 C 227.887 31.667,228.000 31.779,228.000 31.917 C 228.000 32.056,228.148 32.167,228.333 32.167 C 228.556 32.167,228.667 32.278,228.667 32.500 C 228.667 32.722,228.778 32.833,229.000 32.833 C 229.185 32.833,229.333 32.944,229.333 33.083 C 229.333 33.258,229.509 33.333,229.917 33.333 C 230.389 33.333,230.500 33.397,230.500 33.667 C 230.500 33.960,230.611 34.000,231.417 34.000 C 232.222 34.000,232.333 34.040,232.333 34.333 C 232.333 34.622,232.444 34.667,233.167 34.667 C 233.796 34.667,234.000 34.728,234.000 34.917 C 234.000 35.109,234.213 35.167,234.917 35.167 C 235.722 35.167,235.833 35.207,235.833 35.500 C 235.833 35.793,235.944 35.833,236.750 35.833 C 237.454 35.833,237.667 35.891,237.667 36.083 C 237.667 36.222,237.815 36.333,238.000 36.333 C 238.222 36.333,238.333 36.444,238.333 36.667 C 238.333 36.852,238.444 37.000,238.583 37.000 C 238.721 37.000,238.833 37.120,238.833 37.266 C 238.833 37.412,238.983 37.570,239.167 37.618 C 239.448 37.692,239.500 37.846,239.500 38.603 C 239.500 39.389,239.459 39.500,239.167 39.500 C 238.981 39.500,238.833 39.611,238.833 39.750 C 238.833 39.887,238.721 40.000,238.583 40.000 C 238.444 40.000,238.333 40.148,238.333 40.333 C 238.333 40.603,238.222 40.667,237.750 40.667 C 237.343 40.667,237.167 40.742,237.167 40.917 C 237.167 41.128,236.778 41.167,234.667 41.167 C 232.556 41.167,232.167 41.128,232.167 40.917 C 232.167 40.779,232.054 40.667,231.917 40.667 C 231.742 40.667,231.667 40.491,231.667 40.083 C 231.667 39.611,231.603 39.500,231.333 39.500 C 231.040 39.500,231.000 39.389,231.000 38.583 C 231.000 37.880,230.942 37.667,230.750 37.667 C 230.575 37.667,230.500 37.491,230.500 37.083 C 230.500 36.611,230.437 36.500,230.167 36.500 C 229.944 36.500,229.833 36.389,229.833 36.167 C 229.833 35.865,229.722 35.833,228.667 35.833 L 227.500 35.833 227.500 36.750 C 227.500 37.556,227.460 37.667,227.167 37.667 C 226.858 37.667,226.833 37.778,226.833 39.167 L 226.833 40.667 226.250 40.667 C 225.778 40.667,225.667 40.603,225.667 40.333 C 225.667 40.007,225.556 40.000,220.500 40.000 C 216.019 40.000,215.333 39.967,215.333 39.750 C 215.333 39.558,215.120 39.500,214.417 39.500 C 213.611 39.500,213.500 39.460,213.500 39.167 C 213.500 38.983,213.396 38.833,213.269 38.833 C 213.143 38.833,213.000 38.683,212.952 38.500 C 212.885 38.245,212.724 38.167,212.266 38.167 C 211.844 38.167,211.667 38.093,211.667 37.917 C 211.667 37.779,211.554 37.667,211.417 37.667 C 211.242 37.667,211.167 37.491,211.167 37.083 C 211.167 36.611,211.103 36.500,210.833 36.500 C 210.556 36.500,210.500 36.389,210.500 35.833 C 210.500 35.352,210.431 35.167,210.250 35.167 C 210.046 35.167,210.000 34.889,210.000 33.667 L 210.000 32.167 218.083 32.167 L 226.167 32.167 226.167 30.333 C 226.167 28.611,226.187 28.500,226.500 28.500 C 226.802 28.500,226.833 28.611,226.833 29.682 M12.333 29.432 C 12.333 29.578,12.483 29.737,12.667 29.785 C 12.850 29.833,13.000 29.976,13.000 30.103 C 13.000 30.230,13.150 30.333,13.333 30.333 C 13.556 30.333,13.667 30.444,13.667 30.667 C 13.667 30.956,13.778 31.000,14.500 31.000 C 15.222 31.000,15.333 31.044,15.333 31.333 C 15.333 31.519,15.222 31.667,15.083 31.667 C 14.885 31.667,14.833 31.907,14.833 32.833 C 14.833 33.716,14.890 34.000,15.064 34.000 C 15.191 34.000,15.334 34.150,15.382 34.333 C 15.446 34.581,15.387 34.667,15.151 34.667 C 14.976 34.667,14.833 34.779,14.833 34.917 C 14.833 35.097,14.648 35.167,14.167 35.167 C 13.685 35.167,13.500 35.097,13.500 34.917 C 13.500 34.779,13.387 34.667,13.250 34.667 C 13.075 34.667,13.000 34.491,13.000 34.083 C 13.000 33.611,12.937 33.500,12.667 33.500 C 12.389 33.500,12.333 33.389,12.333 32.833 C 12.333 32.278,12.278 32.167,12.000 32.167 C 11.711 32.167,11.667 32.056,11.667 31.333 C 11.667 30.704,11.606 30.500,11.417 30.500 C 11.236 30.500,11.167 30.315,11.167 29.833 C 11.167 29.183,11.181 29.167,11.750 29.167 C 12.173 29.167,12.333 29.240,12.333 29.432 M32.833 31.333 C 32.833 31.603,32.944 31.667,33.417 31.667 C 33.824 31.667,34.000 31.742,34.000 31.917 C 34.000 32.117,34.250 32.167,35.250 32.167 L 36.500 32.167 36.500 33.083 C 36.500 33.889,36.540 34.000,36.833 34.000 C 37.056 34.000,37.167 34.111,37.167 34.333 C 37.167 34.630,37.056 34.667,36.167 34.667 C 35.278 34.667,35.167 34.630,35.167 34.333 C 35.167 34.044,35.056 34.000,34.333 34.000 C 33.704 34.000,33.500 33.939,33.500 33.750 C 33.500 33.550,33.250 33.500,32.250 33.500 L 31.000 33.500 31.000 32.833 C 31.000 32.183,30.986 32.167,30.417 32.167 C 30.009 32.167,29.833 32.091,29.833 31.917 C 29.833 31.742,30.009 31.667,30.417 31.667 C 30.889 31.667,31.000 31.603,31.000 31.333 C 31.000 31.040,31.111 31.000,31.917 31.000 C 32.722 31.000,32.833 31.040,32.833 31.333 M9.333 32.833 C 9.333 33.889,9.365 34.000,9.667 34.000 C 9.937 34.000,10.000 34.111,10.000 34.583 L 10.000 35.167 9.083 35.167 C 8.380 35.167,8.167 35.109,8.167 34.917 C 8.167 34.778,8.019 34.667,7.833 34.667 C 7.611 34.667,7.500 34.556,7.500 34.333 C 7.500 34.111,7.611 34.000,7.833 34.000 C 8.126 34.000,8.167 33.889,8.167 33.083 C 8.167 32.380,8.225 32.167,8.417 32.167 C 8.554 32.167,8.667 32.054,8.667 31.917 C 8.667 31.778,8.815 31.667,9.000 31.667 C 9.302 31.667,9.333 31.778,9.333 32.833 M44.333 32.500 C 44.333 32.722,44.444 32.833,44.667 32.833 C 44.960 32.833,45.000 32.944,45.000 33.750 C 45.000 34.556,44.960 34.667,44.667 34.667 C 44.481 34.667,44.333 34.778,44.333 34.917 C 44.333 35.097,44.148 35.167,43.667 35.167 C 43.016 35.167,43.000 35.153,43.000 34.583 C 43.000 34.111,43.063 34.000,43.333 34.000 C 43.626 34.000,43.667 33.889,43.667 33.083 C 43.667 32.278,43.707 32.167,44.000 32.167 C 44.222 32.167,44.333 32.278,44.333 32.500 M29.333 34.917 C 29.333 35.115,29.574 35.167,30.500 35.167 C 31.556 35.167,31.667 35.198,31.667 35.500 C 31.667 35.793,31.778 35.833,32.583 35.833 C 33.287 35.833,33.500 35.891,33.500 36.083 C 33.500 36.282,33.741 36.333,34.667 36.333 C 35.722 36.333,35.833 36.365,35.833 36.667 C 35.833 36.852,35.722 37.000,35.583 37.000 C 35.409 37.000,35.333 37.176,35.333 37.583 C 35.333 38.056,35.270 38.167,35.000 38.167 C 34.722 38.167,34.667 38.278,34.667 38.833 C 34.667 39.484,34.653 39.500,34.083 39.500 C 33.676 39.500,33.500 39.575,33.500 39.750 C 33.500 39.942,33.287 40.000,32.583 40.000 C 31.778 40.000,31.667 40.040,31.667 40.333 C 31.667 40.626,31.556 40.667,30.750 40.667 C 30.046 40.667,29.833 40.725,29.833 40.917 C 29.833 41.130,29.389 41.167,26.833 41.167 C 24.278 41.167,23.833 41.130,23.833 40.917 C 23.833 40.779,23.946 40.667,24.083 40.667 C 24.222 40.667,24.333 40.519,24.333 40.333 C 24.333 40.111,24.444 40.000,24.667 40.000 C 24.960 40.000,25.000 39.889,25.000 39.083 L 25.000 38.167 25.583 38.167 C 25.991 38.167,26.167 38.091,26.167 37.917 C 26.167 37.778,26.315 37.667,26.500 37.667 C 26.793 37.667,26.833 37.556,26.833 36.750 L 26.833 35.833 27.417 35.833 C 27.972 35.833,28.000 35.806,28.000 35.250 C 28.000 34.681,28.016 34.667,28.667 34.667 C 29.148 34.667,29.333 34.736,29.333 34.917 M18.333 36.667 C 18.333 36.889,18.444 37.000,18.667 37.000 C 18.960 37.000,19.000 37.111,19.000 37.917 L 19.000 38.833 19.583 38.833 C 20.139 38.833,20.167 38.861,20.167 39.417 C 20.167 39.889,20.103 40.000,19.833 40.000 C 19.648 40.000,19.500 39.889,19.500 39.750 C 19.500 39.575,19.324 39.500,18.917 39.500 C 18.444 39.500,18.333 39.437,18.333 39.167 C 18.333 38.897,18.222 38.833,17.750 38.833 C 17.278 38.833,17.167 38.770,17.167 38.500 C 17.167 38.278,17.056 38.167,16.833 38.167 C 16.648 38.167,16.500 38.056,16.500 37.917 C 16.500 37.779,16.387 37.667,16.250 37.667 C 16.111 37.667,16.000 37.519,16.000 37.333 C 16.000 37.148,16.111 37.000,16.250 37.000 C 16.389 37.000,16.500 36.852,16.500 36.667 C 16.500 36.374,16.611 36.333,17.417 36.333 C 18.222 36.333,18.333 36.374,18.333 36.667 " stroke="none" fill="#f3f4f4" fill-rule="evenodd"></path><path id="path1" d="M386.500 7.250 C 386.500 7.468,384.573 7.655,383.777 7.515 C 383.701 7.501,383.598 7.643,383.550 7.829 C 383.469 8.136,383.328 8.167,381.981 8.167 C 380.611 8.167,380.500 8.192,380.500 8.500 C 380.500 8.722,380.389 8.833,380.167 8.833 C 379.878 8.833,379.833 8.944,379.833 9.667 C 379.833 10.389,379.878 10.500,380.167 10.500 C 380.389 10.500,380.500 10.611,380.500 10.833 C 380.500 11.126,380.611 11.167,381.417 11.167 C 382.120 11.167,382.333 11.225,382.333 11.417 C 382.333 11.591,382.509 11.667,382.917 11.667 L 383.500 11.667 383.500 26.167 C 383.500 40.556,383.497 40.667,383.167 40.667 C 382.981 40.667,382.833 40.778,382.833 40.917 C 382.833 41.114,382.600 41.167,381.734 41.167 C 380.776 41.167,380.624 41.209,380.548 41.500 C 380.340 42.297,379.833 41.877,379.833 40.907 L 379.833 39.981 376.792 40.001 C 370.170 40.043,369.500 40.020,369.500 39.750 C 369.500 39.561,369.297 39.500,368.673 39.500 C 368.016 39.500,367.808 39.431,367.667 39.167 C 367.550 38.948,367.318 38.833,366.994 38.833 C 366.611 38.833,366.500 38.758,366.500 38.500 C 366.500 38.315,366.389 38.167,366.250 38.167 C 366.113 38.167,366.000 38.054,366.000 37.917 C 366.000 37.778,365.852 37.667,365.667 37.667 C 365.444 37.667,365.333 37.556,365.333 37.333 C 365.333 37.148,365.222 37.000,365.083 37.000 C 364.946 37.000,364.833 36.856,364.833 36.680 C 364.833 36.184,364.654 35.833,364.399 35.833 C 364.231 35.833,364.167 35.599,364.167 34.984 C 364.167 34.276,364.112 34.121,363.833 34.048 C 363.552 33.975,363.500 33.821,363.500 33.064 L 363.500 32.167 371.673 32.167 L 379.845 32.167 379.826 28.981 C 379.808 25.988,379.787 25.790,379.487 25.711 C 379.250 25.650,379.167 25.480,379.167 25.059 C 379.167 24.707,379.071 24.453,378.917 24.394 C 378.779 24.341,378.667 24.193,378.667 24.066 C 378.667 23.938,378.517 23.833,378.333 23.833 C 378.072 23.833,378.000 23.722,378.000 23.318 C 378.000 22.942,377.909 22.778,377.667 22.715 C 377.483 22.667,377.333 22.532,377.333 22.415 C 377.333 22.178,376.971 22.000,376.486 22.000 C 376.278 22.000,376.167 21.884,376.167 21.667 C 376.167 21.444,376.056 21.333,375.833 21.333 C 375.648 21.333,375.500 21.222,375.500 21.083 C 375.500 20.895,375.298 20.833,374.678 20.833 C 374.002 20.833,373.837 20.774,373.750 20.500 C 373.584 19.978,366.000 19.978,366.000 20.500 C 366.000 20.793,365.889 20.833,365.083 20.833 C 364.380 20.833,364.167 20.891,364.167 21.083 C 364.167 21.258,363.991 21.333,363.583 21.333 C 363.111 21.333,363.000 21.397,363.000 21.667 C 363.000 21.937,362.889 22.000,362.417 22.000 C 361.944 22.000,361.833 22.063,361.833 22.333 C 361.833 22.556,361.722 22.667,361.500 22.667 C 361.317 22.667,361.167 22.770,361.167 22.897 C 361.167 23.024,361.017 23.167,360.833 23.215 C 360.650 23.263,360.500 23.422,360.500 23.568 C 360.500 23.714,360.387 23.833,360.250 23.833 C 360.113 23.833,360.000 23.941,360.000 24.072 C 360.000 24.203,359.850 24.358,359.667 24.417 C 359.483 24.475,359.333 24.632,359.333 24.766 C 359.333 24.901,359.221 25.054,359.083 25.106 C 358.944 25.160,358.833 25.407,358.833 25.665 C 358.833 25.988,358.732 26.154,358.500 26.215 C 358.257 26.278,358.167 26.442,358.167 26.818 C 358.167 27.111,358.023 27.477,357.833 27.667 C 357.559 27.941,357.500 28.222,357.500 29.250 C 357.500 30.250,357.450 30.500,357.250 30.500 C 357.040 30.500,357.000 30.859,357.000 32.732 C 357.000 34.563,357.045 34.982,357.250 35.060 C 357.434 35.131,357.500 35.422,357.500 36.163 C 357.500 36.964,357.568 37.228,357.833 37.455 C 358.041 37.633,358.167 37.947,358.167 38.287 C 358.167 38.722,358.234 38.833,358.500 38.833 C 358.770 38.833,358.833 38.944,358.833 39.417 C 358.833 39.824,358.909 40.000,359.083 40.000 C 359.221 40.000,359.333 40.120,359.333 40.266 C 359.333 40.412,359.483 40.570,359.667 40.618 C 359.850 40.666,360.000 40.809,360.000 40.936 C 360.000 41.063,360.113 41.167,360.250 41.167 C 360.387 41.167,360.500 41.286,360.500 41.432 C 360.500 41.578,360.650 41.737,360.833 41.785 C 361.017 41.833,361.167 41.976,361.167 42.103 C 361.167 42.230,361.317 42.333,361.500 42.333 C 361.683 42.333,361.833 42.438,361.833 42.566 C 361.833 42.820,362.184 43.000,362.680 43.000 C 362.856 43.000,363.000 43.104,363.000 43.231 C 363.000 43.493,363.500 43.661,364.292 43.664 C 364.661 43.666,364.833 43.746,364.833 43.917 C 364.833 44.114,365.070 44.167,365.963 44.167 C 366.886 44.167,367.145 44.228,367.378 44.500 C 367.641 44.808,367.870 44.833,370.347 44.833 C 372.891 44.833,373.036 44.816,373.118 44.500 C 373.197 44.200,373.346 44.167,374.608 44.167 C 375.701 44.167,376.032 44.111,376.106 43.917 C 376.161 43.774,376.427 43.660,376.726 43.650 C 377.467 43.627,378.029 43.446,377.968 43.250 C 377.940 43.158,378.169 43.059,378.477 43.030 C 378.863 42.993,379.064 42.876,379.122 42.655 C 379.326 41.872,379.833 42.297,379.833 43.250 L 379.833 44.167 386.417 44.167 L 393.000 44.167 393.000 43.000 C 393.000 42.238,392.934 41.833,392.810 41.833 C 392.706 41.833,392.524 41.702,392.407 41.542 C 392.167 41.214,392.177 41.216,390.917 41.188 C 390.222 41.172,390.000 41.106,390.000 40.917 C 390.000 40.779,389.887 40.667,389.750 40.667 C 389.529 40.667,389.500 38.685,389.500 23.833 L 389.500 7.000 388.000 7.000 C 386.778 7.000,386.500 7.046,386.500 7.250 M268.444 9.444 C 268.143 9.746,268.330 11.667,268.661 11.667 C 268.841 11.667,269.069 11.817,269.167 12.000 C 269.317 12.281,269.516 12.333,270.423 12.333 C 271.232 12.333,271.500 12.391,271.500 12.566 C 271.500 12.693,271.612 12.841,271.750 12.894 C 271.969 12.978,272.000 14.681,272.000 26.828 L 272.000 40.667 271.595 40.667 C 271.373 40.667,271.078 40.779,270.940 40.917 C 270.790 41.067,270.382 41.167,269.913 41.167 C 269.288 41.167,269.119 41.229,269.052 41.485 C 269.007 41.659,268.822 41.841,268.643 41.888 C 268.355 41.963,268.323 42.098,268.367 43.028 L 268.417 44.083 275.625 44.127 L 282.833 44.170 282.833 43.002 C 282.833 41.944,282.802 41.833,282.500 41.833 C 282.278 41.833,282.167 41.722,282.167 41.500 C 282.167 41.208,282.056 41.167,281.268 41.167 C 280.623 41.167,280.342 41.096,280.273 40.917 C 280.207 40.745,279.939 40.667,279.422 40.667 L 278.667 40.667 278.666 35.458 L 278.666 30.250 281.666 30.299 C 284.281 30.342,284.667 30.315,284.667 30.091 C 284.667 29.867,287.030 29.667,287.889 29.818 C 287.966 29.832,288.068 29.691,288.117 29.505 C 288.191 29.222,288.342 29.167,289.035 29.167 C 289.724 29.167,289.879 29.110,289.952 28.833 C 290.014 28.596,290.179 28.500,290.525 28.500 C 290.803 28.500,291.051 28.393,291.106 28.250 C 291.159 28.113,291.344 28.000,291.518 28.000 C 291.722 28.000,291.833 27.883,291.833 27.667 C 291.833 27.397,291.944 27.333,292.417 27.333 C 292.737 27.333,293.000 27.250,293.000 27.148 C 293.000 26.896,293.702 26.173,293.951 26.170 C 294.061 26.168,294.201 25.904,294.261 25.583 C 294.324 25.249,294.469 25.000,294.602 25.000 C 294.729 25.000,294.833 24.855,294.833 24.678 C 294.833 24.501,294.982 24.309,295.163 24.251 C 295.345 24.193,295.486 24.095,295.477 24.032 C 295.371 23.286,295.536 22.530,295.821 22.455 C 296.335 22.320,296.353 15.517,295.839 15.383 C 295.582 15.316,295.500 15.157,295.500 14.731 C 295.500 14.278,295.434 14.167,295.167 14.167 C 294.897 14.167,294.833 14.056,294.833 13.583 C 294.833 13.176,294.758 13.000,294.583 13.000 C 294.446 13.000,294.333 12.880,294.333 12.734 C 294.333 12.588,294.183 12.430,294.000 12.382 C 293.817 12.334,293.667 12.191,293.667 12.064 C 293.667 11.937,293.517 11.833,293.333 11.833 C 293.150 11.833,293.000 11.729,293.000 11.601 C 293.000 11.350,292.651 11.167,292.172 11.167 C 292.007 11.167,291.833 11.017,291.785 10.833 C 291.723 10.594,291.558 10.500,291.203 10.500 C 290.930 10.500,290.614 10.387,290.500 10.250 C 290.357 10.077,289.976 10.000,289.270 10.000 C 288.427 10.000,288.210 9.941,288.039 9.667 C 287.828 9.330,268.775 9.114,268.444 9.444 M285.333 13.250 C 285.333 13.425,285.509 13.500,285.917 13.500 C 286.389 13.500,286.500 13.563,286.500 13.833 C 286.500 14.056,286.611 14.167,286.833 14.167 C 287.019 14.167,287.167 14.278,287.167 14.417 C 287.167 14.554,287.279 14.667,287.417 14.667 C 287.556 14.667,287.667 14.815,287.667 15.000 C 287.667 15.222,287.778 15.333,288.000 15.333 C 288.260 15.333,288.333 15.444,288.333 15.839 C 288.333 16.134,288.437 16.384,288.583 16.440 C 288.759 16.507,288.833 16.782,288.833 17.367 C 288.833 18.058,288.890 18.213,289.167 18.285 C 289.589 18.395,289.687 20.833,289.269 20.833 C 288.983 20.833,288.839 21.346,288.836 22.375 C 288.834 22.967,288.770 23.167,288.583 23.167 C 288.446 23.167,288.333 23.312,288.333 23.489 C 288.333 23.666,288.185 23.858,288.003 23.916 C 287.822 23.973,287.681 24.072,287.690 24.135 C 287.774 24.728,287.636 25.000,287.251 25.000 C 287.017 25.000,286.746 25.145,286.628 25.333 C 286.513 25.517,286.288 25.667,286.127 25.667 C 285.965 25.667,285.833 25.779,285.833 25.917 C 285.833 26.102,285.639 26.167,285.085 26.167 C 284.517 26.167,284.286 26.247,284.128 26.500 C 283.934 26.810,283.739 26.833,281.293 26.833 L 278.667 26.833 278.667 19.917 L 278.667 13.000 282.000 13.000 C 284.852 13.000,285.333 13.036,285.333 13.250 M302.333 20.500 C 302.068 20.765,301.778 20.833,300.917 20.833 C 300.065 20.833,299.833 20.887,299.833 21.083 C 299.833 21.254,299.661 21.334,299.292 21.336 C 298.500 21.339,298.000 21.507,298.000 21.769 C 298.000 21.966,297.451 22.098,296.958 22.020 C 296.890 22.009,296.833 22.263,296.833 22.583 C 296.833 22.961,296.907 23.152,297.042 23.125 C 297.181 23.097,297.267 23.359,297.302 23.913 C 297.368 24.957,297.435 24.994,299.224 24.997 C 300.559 25.000,300.706 24.969,300.785 24.667 C 300.868 24.350,301.012 24.333,303.696 24.333 C 305.437 24.333,306.482 24.394,306.422 24.492 C 306.303 24.683,306.853 25.000,307.305 25.000 C 307.484 25.000,307.674 25.113,307.727 25.250 C 307.782 25.395,308.032 25.500,308.318 25.500 C 308.770 25.500,308.818 25.555,308.865 26.125 C 308.897 26.516,308.995 26.734,309.125 26.708 C 309.280 26.677,309.333 27.072,309.333 28.250 L 309.333 29.833 307.418 29.833 C 305.683 29.833,305.483 29.865,305.295 30.167 C 305.107 30.466,304.906 30.500,303.293 30.500 C 301.810 30.500,301.500 30.543,301.500 30.750 C 301.500 30.944,301.278 31.000,300.501 31.000 C 299.683 31.000,299.465 31.060,299.295 31.333 C 299.156 31.556,298.906 31.667,298.543 31.667 C 298.171 31.667,298.000 31.746,298.000 31.917 C 298.000 32.054,297.880 32.167,297.734 32.167 C 297.588 32.167,297.430 32.317,297.382 32.500 C 297.334 32.683,297.184 32.833,297.048 32.833 C 296.913 32.833,296.763 32.983,296.715 33.167 C 296.667 33.350,296.524 33.500,296.397 33.500 C 296.270 33.500,296.167 33.604,296.167 33.731 C 296.167 33.857,296.017 34.000,295.833 34.048 C 295.594 34.111,295.500 34.276,295.500 34.633 C 295.500 34.926,295.395 35.171,295.246 35.229 C 294.904 35.360,294.950 40.610,295.292 40.542 C 295.427 40.515,295.500 40.709,295.500 41.099 C 295.500 41.558,295.578 41.718,295.833 41.785 C 296.017 41.833,296.167 41.976,296.167 42.103 C 296.167 42.230,296.279 42.333,296.417 42.333 C 296.554 42.333,296.667 42.448,296.667 42.587 C 296.667 42.727,296.854 42.913,297.083 43.000 C 297.313 43.087,297.500 43.227,297.500 43.311 C 297.500 43.395,297.697 43.513,297.937 43.573 C 298.177 43.634,298.482 43.792,298.615 43.925 C 298.776 44.086,299.215 44.167,299.929 44.167 C 300.889 44.167,301.000 44.201,301.000 44.500 C 301.000 44.817,301.111 44.833,303.266 44.833 C 305.391 44.833,305.537 44.813,305.618 44.500 C 305.692 44.219,305.846 44.167,306.603 44.167 C 307.289 44.167,307.500 44.108,307.500 43.917 C 307.500 43.749,307.679 43.661,308.042 43.650 C 308.798 43.627,309.363 43.447,309.302 43.250 C 309.273 43.158,309.521 43.061,309.853 43.033 C 310.345 42.992,310.473 43.046,310.546 43.325 C 310.595 43.513,310.755 43.667,310.901 43.667 C 311.047 43.667,311.167 43.779,311.167 43.917 C 311.167 44.090,311.341 44.167,311.739 44.167 C 312.164 44.167,312.338 44.252,312.417 44.500 C 312.576 45.001,315.152 45.007,315.283 44.507 C 315.356 44.227,315.540 44.174,316.559 44.132 C 317.403 44.097,317.738 44.023,317.708 43.875 C 317.649 43.578,318.278 43.616,318.394 43.917 C 318.477 44.133,319.403 44.167,325.328 44.167 L 332.167 44.167 332.167 43.000 C 332.167 42.173,332.106 41.833,331.957 41.833 C 331.841 41.833,331.653 41.683,331.539 41.500 C 331.366 41.223,331.150 41.167,330.266 41.167 C 329.474 41.167,329.178 41.103,329.106 40.917 C 329.050 40.771,328.801 40.667,328.505 40.667 L 328.000 40.667 328.000 33.083 L 328.000 25.500 328.583 25.500 C 328.991 25.500,329.167 25.425,329.167 25.250 C 329.167 25.045,329.454 25.000,330.750 25.000 L 332.333 25.000 332.333 25.583 C 332.333 25.991,332.409 26.167,332.583 26.167 C 332.758 26.167,332.833 26.343,332.833 26.750 C 332.833 27.222,332.897 27.333,333.167 27.333 C 333.460 27.333,333.500 27.444,333.500 28.250 L 333.500 29.167 334.708 29.164 C 336.029 29.161,336.253 29.083,336.378 28.583 C 336.424 28.400,336.470 28.756,336.481 29.375 C 336.498 30.403,336.471 30.500,336.160 30.500 C 335.652 30.500,335.673 35.397,336.182 35.715 C 336.428 35.869,336.500 36.108,336.500 36.776 C 336.500 37.794,336.617 38.167,336.934 38.167 C 337.089 38.167,337.167 38.363,337.167 38.750 C 337.167 39.157,337.242 39.333,337.417 39.333 C 337.556 39.333,337.667 39.481,337.667 39.667 C 337.667 39.889,337.778 40.000,338.000 40.000 C 338.222 40.000,338.333 40.111,338.333 40.333 C 338.333 40.517,338.435 40.667,338.559 40.667 C 338.683 40.667,338.855 40.910,338.939 41.208 C 339.067 41.657,339.186 41.759,339.630 41.802 C 339.961 41.834,340.167 41.946,340.167 42.094 C 340.167 42.226,340.279 42.333,340.417 42.333 C 340.556 42.333,340.667 42.481,340.667 42.667 C 340.667 42.935,340.778 43.000,341.239 43.000 C 341.664 43.000,341.838 43.085,341.917 43.333 C 341.995 43.581,342.169 43.667,342.595 43.667 C 342.992 43.667,343.167 43.743,343.167 43.917 C 343.167 44.120,343.444 44.167,344.667 44.167 C 346.056 44.167,346.167 44.191,346.167 44.500 C 346.167 44.819,346.278 44.833,348.766 44.833 C 351.224 44.833,351.369 44.815,351.452 44.500 C 351.530 44.200,351.679 44.167,352.941 44.167 C 354.034 44.167,354.365 44.111,354.440 43.917 C 354.502 43.754,354.762 43.667,355.184 43.667 C 355.611 43.667,355.947 43.553,356.167 43.333 C 356.350 43.150,356.695 43.000,356.932 43.000 C 357.224 43.000,357.393 42.892,357.452 42.667 C 357.501 42.479,357.679 42.333,357.860 42.333 C 358.151 42.333,358.177 42.225,358.133 41.208 L 358.083 40.083 355.777 40.037 C 353.581 39.993,353.467 40.006,353.383 40.329 C 353.249 40.841,350.833 40.846,350.833 40.333 C 350.833 40.025,350.722 40.000,349.333 40.000 C 348.111 40.000,347.833 39.954,347.833 39.750 C 347.833 39.561,347.630 39.500,347.000 39.500 C 346.278 39.500,346.167 39.456,346.167 39.167 C 346.167 38.944,346.056 38.833,345.833 38.833 C 345.645 38.833,345.500 38.722,345.500 38.578 C 345.500 38.438,345.370 38.273,345.212 38.212 C 344.881 38.085,344.167 37.354,344.167 37.142 C 344.167 37.064,344.054 37.000,343.917 37.000 C 343.742 37.000,343.667 36.824,343.667 36.417 C 343.667 35.944,343.603 35.833,343.333 35.833 C 343.040 35.833,343.000 35.722,343.000 34.917 C 343.000 34.213,342.942 34.000,342.750 34.000 C 342.541 34.000,342.500 33.657,342.500 31.911 C 342.500 30.209,342.546 29.805,342.750 29.727 C 342.924 29.660,343.000 29.389,343.000 28.835 C 343.000 28.179,343.059 28.024,343.333 27.952 C 343.576 27.888,343.667 27.724,343.667 27.349 C 343.667 26.998,343.748 26.833,343.921 26.833 C 344.061 26.833,344.246 26.646,344.333 26.417 C 344.420 26.188,344.569 26.000,344.663 26.000 C 344.756 26.000,344.833 25.887,344.833 25.750 C 344.833 25.613,344.946 25.500,345.083 25.500 C 345.221 25.500,345.333 25.387,345.333 25.250 C 345.333 25.107,345.483 25.000,345.682 25.000 C 345.891 25.000,346.066 24.866,346.118 24.667 C 346.180 24.432,346.346 24.333,346.678 24.333 C 346.938 24.333,347.210 24.226,347.284 24.095 C 347.415 23.860,348.437 23.789,351.208 23.822 C 352.162 23.833,352.167 23.836,352.167 24.339 C 352.167 24.634,352.271 24.884,352.417 24.940 C 352.571 24.999,352.667 25.252,352.667 25.601 C 352.667 25.944,352.798 26.298,353.000 26.500 C 353.206 26.706,353.333 27.056,353.333 27.417 C 353.333 27.889,353.397 28.000,353.667 28.000 C 353.951 28.000,354.000 28.111,354.000 28.754 C 354.000 29.421,354.052 29.528,354.452 29.680 C 355.007 29.891,355.667 29.747,355.667 29.413 C 355.667 29.278,355.817 29.167,356.000 29.167 C 356.215 29.167,356.333 29.056,356.333 28.853 C 356.333 28.679,356.482 28.500,356.667 28.452 C 356.957 28.376,357.000 28.224,357.000 27.266 C 357.000 26.400,357.053 26.167,357.250 26.167 C 357.450 26.167,357.500 25.919,357.500 24.936 C 357.500 23.836,357.536 23.696,357.842 23.616 C 358.148 23.536,358.178 23.417,358.133 22.472 L 358.083 21.417 357.532 21.364 C 357.229 21.335,356.940 21.203,356.889 21.072 C 356.822 20.897,356.492 20.833,355.649 20.833 C 354.611 20.833,354.500 20.801,354.500 20.500 C 354.500 20.175,354.389 20.167,350.095 20.167 C 345.836 20.167,345.686 20.178,345.583 20.500 C 345.495 20.779,345.331 20.833,344.572 20.833 C 343.878 20.833,343.667 20.892,343.667 21.083 C 343.667 21.252,343.498 21.333,343.151 21.333 C 342.776 21.333,342.612 21.424,342.548 21.667 C 342.483 21.917,342.321 22.000,341.897 22.000 C 341.444 22.000,341.333 22.066,341.333 22.333 C 341.333 22.556,341.222 22.667,341.000 22.667 C 340.817 22.667,340.667 22.771,340.667 22.898 C 340.667 23.031,340.417 23.176,340.083 23.239 C 339.759 23.300,339.500 23.448,339.500 23.573 C 339.500 23.697,339.395 23.838,339.266 23.888 C 339.137 23.937,338.981 24.208,338.919 24.489 C 338.857 24.770,338.700 25.000,338.570 25.000 C 338.440 25.000,338.333 25.150,338.333 25.333 C 338.333 25.556,338.222 25.667,338.000 25.667 C 337.730 25.667,337.667 25.778,337.667 26.250 C 337.667 26.657,337.591 26.833,337.417 26.833 C 337.242 26.833,337.167 27.009,337.167 27.417 C 337.167 27.889,337.103 28.000,336.833 28.000 C 336.530 28.000,336.500 27.889,336.500 26.750 C 336.500 25.750,336.550 25.500,336.750 25.500 C 336.947 25.500,337.000 25.269,337.000 24.417 C 337.000 23.548,337.067 23.266,337.340 22.993 C 337.632 22.702,337.674 22.478,337.632 21.451 L 337.583 20.250 335.277 20.204 C 333.081 20.159,332.967 20.173,332.883 20.495 C 332.808 20.782,332.659 20.833,331.897 20.833 C 331.211 20.833,331.000 20.892,331.000 21.083 C 331.000 21.269,330.804 21.333,330.234 21.333 C 329.609 21.333,329.453 21.394,329.382 21.667 C 329.317 21.915,329.154 22.000,328.744 22.000 C 328.442 22.000,328.157 22.094,328.110 22.208 C 328.064 22.323,328.020 21.910,328.013 21.292 L 328.000 20.167 326.500 20.167 C 325.111 20.167,325.000 20.191,325.000 20.500 C 325.000 20.807,324.889 20.833,323.578 20.833 C 322.468 20.833,322.135 20.888,322.060 21.083 C 321.985 21.280,321.646 21.333,320.482 21.333 C 319.222 21.333,318.950 21.383,318.667 21.667 C 318.216 22.117,318.187 23.623,318.625 23.784 C 318.785 23.843,318.977 23.991,319.050 24.112 C 319.140 24.262,319.558 24.333,320.342 24.333 C 321.271 24.333,321.500 24.384,321.500 24.589 C 321.500 24.729,321.612 24.887,321.750 24.940 C 321.967 25.023,322.000 26.058,322.000 32.851 C 322.000 39.687,321.969 40.667,321.750 40.667 C 321.612 40.667,321.500 40.779,321.500 40.917 C 321.500 41.322,317.345 41.309,317.117 40.904 C 317.043 40.773,316.762 40.667,316.492 40.667 C 316.041 40.667,316.000 40.618,316.000 40.083 C 316.000 39.611,315.937 39.500,315.667 39.500 C 315.343 39.500,315.333 39.389,315.333 35.603 C 315.333 31.846,315.345 31.702,315.667 31.618 C 315.980 31.536,316.000 31.391,316.000 29.182 C 316.000 26.944,315.984 26.833,315.667 26.833 C 315.365 26.833,315.333 26.722,315.333 25.661 C 315.333 24.773,315.273 24.466,315.083 24.394 C 314.938 24.338,314.833 24.089,314.833 23.800 C 314.833 23.442,314.739 23.278,314.500 23.215 C 314.317 23.167,314.167 23.024,314.167 22.897 C 314.167 22.770,314.017 22.667,313.833 22.667 C 313.611 22.667,313.500 22.556,313.500 22.333 C 313.500 22.150,313.428 22.000,313.339 22.000 C 313.250 22.000,312.915 21.738,312.594 21.417 C 312.099 20.922,311.897 20.833,311.256 20.833 C 310.611 20.833,310.500 20.784,310.500 20.500 C 310.500 20.176,310.389 20.167,306.583 20.167 C 302.889 20.167,302.648 20.186,302.333 20.500 M370.333 23.397 C 370.333 23.650,370.828 23.828,371.542 23.831 C 371.837 23.833,372.000 23.922,372.000 24.083 C 372.000 24.222,372.148 24.333,372.333 24.333 C 372.603 24.333,372.667 24.444,372.667 24.917 C 372.667 25.324,372.742 25.500,372.917 25.500 C 373.111 25.500,373.167 25.721,373.167 26.486 C 373.167 27.624,373.275 28.000,373.601 28.000 C 373.729 28.000,373.833 28.150,373.833 28.333 C 373.833 28.659,373.722 28.667,369.000 28.667 L 364.167 28.667 364.167 28.083 C 364.167 27.722,364.294 27.373,364.500 27.167 C 364.683 26.983,364.833 26.681,364.833 26.495 C 364.833 26.309,364.946 26.113,365.083 26.060 C 365.226 26.006,365.333 25.757,365.333 25.482 C 365.333 25.111,365.410 25.000,365.667 25.000 C 365.889 25.000,366.000 24.889,366.000 24.667 C 366.000 24.427,366.111 24.333,366.396 24.333 C 366.614 24.333,366.886 24.221,367.000 24.083 C 367.114 23.946,367.342 23.833,367.507 23.833 C 367.984 23.833,368.333 23.650,368.333 23.399 C 368.333 23.226,368.590 23.167,369.333 23.167 C 370.074 23.167,370.333 23.227,370.333 23.397 M309.333 36.667 L 309.333 40.000 308.167 40.000 C 307.111 40.000,307.000 40.032,307.000 40.333 C 307.000 40.637,306.889 40.667,305.769 40.667 C 304.679 40.667,304.529 40.629,304.452 40.333 C 304.379 40.055,304.224 40.000,303.516 40.000 C 302.872 40.000,302.667 39.940,302.667 39.750 C 302.667 39.612,302.563 39.500,302.436 39.500 C 302.309 39.500,302.166 39.350,302.118 39.167 C 302.070 38.983,301.912 38.833,301.766 38.833 C 301.558 38.833,301.500 38.651,301.500 38.000 C 301.500 37.325,301.445 37.163,301.208 37.147 C 300.931 37.129,300.931 37.124,301.208 37.052 C 301.441 36.991,301.500 36.792,301.500 36.071 C 301.500 35.370,301.557 35.167,301.755 35.167 C 301.896 35.167,302.052 35.059,302.102 34.927 C 302.153 34.795,302.407 34.640,302.667 34.583 C 302.926 34.526,303.180 34.372,303.231 34.240 C 303.292 34.080,303.574 34.000,304.072 34.000 C 304.651 34.000,304.862 33.924,305.000 33.667 C 305.164 33.361,305.349 33.333,307.256 33.333 L 309.333 33.333 309.333 36.667 " stroke="none" fill="#343444" fill-rule="evenodd"></path></g></svg>