<svg id="svg" version="1.1" xmlns="http://www.w3.org/2000/svg" xmlns:xlink="http://www.w3.org/1999/xlink" width="400" height="49.39759036144578" viewBox="0, 0, 400,49.39759036144578"><g id="svgg"><path id="path0" d="M143.727 7.250 C 143.652 7.445,143.323 7.500,142.243 7.500 C 141.002 7.500,140.845 7.535,140.750 7.833 C 140.653 8.137,140.498 8.167,138.973 8.167 C 137.442 8.167,137.295 8.195,137.215 8.500 C 137.167 8.684,136.988 8.833,136.814 8.833 C 136.548 8.833,136.500 8.962,136.500 9.667 C 136.500 10.372,136.548 10.500,136.814 10.500 C 136.988 10.500,137.167 10.649,137.215 10.833 C 137.291 11.124,137.442 11.167,138.401 11.167 C 139.267 11.167,139.500 11.220,139.500 11.417 C 139.500 11.556,139.648 11.667,139.833 11.667 C 140.158 11.667,140.167 11.778,140.167 15.917 L 140.167 20.167 136.625 20.186 C 134.677 20.197,133.027 20.197,132.958 20.186 C 132.890 20.176,132.842 20.223,132.853 20.292 C 132.928 20.768,132.784 20.833,131.667 20.833 C 130.741 20.833,130.500 20.885,130.500 21.083 C 130.500 21.314,129.767 21.443,129.029 21.343 C 128.907 21.326,128.767 21.467,128.718 21.656 C 128.649 21.918,128.493 22.000,128.064 22.000 C 127.611 22.000,127.500 22.066,127.500 22.333 C 127.500 22.556,127.389 22.667,127.167 22.667 C 126.981 22.667,126.833 22.778,126.833 22.917 C 126.833 23.146,126.549 23.243,126.054 23.182 C 125.947 23.169,125.804 23.246,125.737 23.355 C 125.653 23.490,125.688 23.507,125.849 23.410 C 126.049 23.290,126.049 23.311,125.855 23.551 C 125.729 23.706,125.518 23.833,125.386 23.833 C 125.255 23.833,125.193 23.908,125.250 24.000 C 125.307 24.092,125.274 24.167,125.177 24.167 C 125.079 24.167,125.000 24.354,125.000 24.583 C 125.000 24.843,124.906 25.000,124.750 25.000 C 124.611 25.000,124.500 25.148,124.500 25.333 C 124.500 25.556,124.389 25.667,124.167 25.667 C 123.897 25.667,123.833 25.778,123.833 26.250 C 123.833 26.699,123.765 26.833,123.535 26.833 C 123.319 26.833,123.226 26.981,123.197 27.372 C 123.148 28.006,122.891 28.344,122.745 27.965 C 122.568 27.502,122.732 26.080,122.958 26.125 C 123.112 26.156,123.167 25.782,123.167 24.686 C 123.167 23.336,123.197 23.198,123.507 23.117 C 123.820 23.035,123.843 22.918,123.799 21.639 L 123.750 20.250 121.444 20.204 C 119.247 20.159,119.134 20.173,119.050 20.495 C 118.975 20.782,118.825 20.833,118.064 20.833 C 117.377 20.833,117.167 20.892,117.167 21.083 C 117.167 21.310,116.573 21.433,115.888 21.349 C 115.780 21.335,115.592 21.466,115.471 21.638 C 115.349 21.810,115.010 21.986,114.716 22.029 L 114.182 22.107 114.132 21.178 L 114.083 20.250 112.722 20.202 C 111.475 20.158,111.351 20.182,111.252 20.493 C 111.154 20.802,111.007 20.833,109.655 20.833 C 108.443 20.833,108.167 20.880,108.167 21.083 C 108.167 21.301,106.240 21.488,105.444 21.348 C 105.367 21.335,105.265 21.476,105.216 21.662 C 105.167 21.851,104.989 22.000,104.814 22.000 C 104.263 22.000,104.363 23.623,104.927 23.837 C 105.161 23.926,105.307 24.075,105.250 24.166 C 105.185 24.272,105.576 24.333,106.312 24.333 C 107.331 24.333,107.491 24.375,107.583 24.667 C 107.642 24.850,107.797 25.000,107.928 25.000 C 108.132 25.000,108.167 26.145,108.167 32.833 C 108.167 39.685,108.135 40.667,107.917 40.667 C 107.779 40.667,107.667 40.779,107.667 40.917 C 107.667 41.104,107.447 41.173,106.792 41.192 C 106.310 41.206,105.842 41.235,105.750 41.256 C 105.658 41.277,105.490 41.304,105.375 41.314 C 105.260 41.325,105.167 41.446,105.167 41.583 C 105.167 41.724,105.018 41.833,104.826 41.833 C 104.511 41.833,104.489 41.920,104.534 42.958 L 104.583 44.083 111.417 44.083 L 118.250 44.083 118.299 42.958 C 118.336 42.111,118.294 41.833,118.128 41.833 C 118.006 41.833,117.799 41.683,117.667 41.500 C 117.470 41.228,117.235 41.167,116.380 41.167 C 115.561 41.167,115.333 41.112,115.333 40.917 C 115.333 40.742,115.157 40.667,114.750 40.667 L 114.167 40.667 114.167 33.083 L 114.167 25.500 114.750 25.500 C 115.157 25.500,115.333 25.425,115.333 25.250 C 115.333 25.046,115.611 25.000,116.833 25.000 C 118.046 25.000,118.337 25.048,118.354 25.250 C 118.366 25.387,118.394 25.575,118.417 25.667 C 118.440 25.758,118.468 25.908,118.479 26.000 C 118.491 26.092,118.612 26.167,118.750 26.167 C 118.966 26.167,119.102 26.690,119.020 27.208 C 119.009 27.277,119.150 27.333,119.333 27.333 C 119.608 27.333,119.670 27.451,119.688 28.000 C 119.699 28.367,119.718 28.760,119.729 28.875 C 119.773 29.313,122.314 29.243,122.492 28.799 C 122.611 28.503,122.648 28.651,122.656 29.458 C 122.666 30.392,122.632 30.500,122.333 30.500 C 122.014 30.500,122.000 30.611,122.000 33.099 C 122.000 35.558,122.018 35.703,122.333 35.785 C 122.632 35.863,122.830 37.130,122.686 38.042 C 122.676 38.110,122.760 38.148,122.875 38.125 C 122.999 38.100,123.104 38.299,123.135 38.617 C 123.169 38.970,123.296 39.185,123.510 39.253 C 123.747 39.328,123.833 39.508,123.833 39.928 C 123.833 40.244,123.918 40.500,124.023 40.500 C 124.246 40.500,124.906 41.182,125.053 41.565 C 125.110 41.713,125.271 41.833,125.411 41.833 C 125.552 41.833,125.667 41.946,125.667 42.083 C 125.667 42.221,125.808 42.333,125.981 42.333 C 126.154 42.333,126.333 42.482,126.382 42.667 C 126.445 42.909,126.609 43.000,126.984 43.000 C 127.389 43.000,127.500 43.072,127.500 43.333 C 127.500 43.603,127.611 43.667,128.083 43.667 C 128.491 43.667,128.667 43.742,128.667 43.917 C 128.667 44.115,128.907 44.167,129.833 44.167 C 130.719 44.167,131.000 44.222,131.000 44.399 C 131.000 44.978,135.639 45.059,135.790 44.482 C 135.861 44.211,136.034 44.167,137.019 44.167 C 137.928 44.167,138.167 44.115,138.167 43.917 C 138.167 43.763,138.323 43.667,138.570 43.667 C 139.145 43.667,139.500 43.501,139.500 43.232 C 139.500 43.077,139.697 43.000,140.093 43.000 C 140.419 43.000,140.643 42.930,140.590 42.845 C 140.538 42.760,140.571 42.643,140.664 42.585 C 140.757 42.527,140.833 42.597,140.833 42.740 C 140.833 42.883,140.946 43.000,141.083 43.000 C 141.225 43.000,141.333 43.149,141.333 43.343 C 141.333 43.544,141.407 43.641,141.511 43.576 C 141.609 43.516,141.730 43.624,141.781 43.817 C 141.854 44.096,142.002 44.167,142.519 44.167 C 143.060 44.167,143.167 44.223,143.167 44.506 C 143.167 44.826,143.253 44.843,144.625 44.798 C 145.907 44.756,146.077 44.715,146.034 44.458 C 145.991 44.202,146.138 44.167,147.243 44.167 C 148.249 44.167,148.500 44.117,148.500 43.917 C 148.500 43.740,148.694 43.661,149.167 43.646 C 149.533 43.634,149.927 43.616,150.042 43.604 C 150.272 43.581,150.418 42.192,150.257 41.553 C 150.167 41.195,150.074 41.167,148.997 41.167 C 148.074 41.167,147.833 41.115,147.833 40.917 C 147.833 40.742,147.657 40.667,147.250 40.667 L 146.667 40.667 146.667 23.833 L 146.667 7.000 145.245 7.000 C 144.135 7.000,143.802 7.055,143.727 7.250 M196.774 7.250 C 196.599 7.425,196.172 7.500,195.359 7.500 C 194.047 7.500,193.667 7.598,193.667 7.934 C 193.667 8.116,193.338 8.167,192.167 8.167 C 190.778 8.167,190.667 8.191,190.667 8.500 C 190.667 8.685,190.556 8.833,190.417 8.833 C 190.228 8.833,190.167 9.037,190.167 9.667 C 190.167 10.265,190.232 10.500,190.397 10.500 C 190.524 10.500,190.667 10.650,190.715 10.833 C 190.787 11.110,190.942 11.167,191.633 11.167 C 192.218 11.167,192.493 11.241,192.560 11.417 C 192.616 11.563,192.866 11.667,193.161 11.667 L 193.667 11.667 193.667 26.083 C 193.667 42.647,193.830 41.119,192.051 41.184 C 190.895 41.226,190.667 41.294,190.667 41.601 C 190.667 41.729,190.554 41.833,190.417 41.833 C 190.218 41.833,190.167 42.074,190.167 43.002 L 190.167 44.171 196.708 44.127 L 203.250 44.083 203.299 42.958 C 203.345 41.920,203.322 41.833,203.008 41.833 C 202.820 41.833,202.667 41.729,202.667 41.601 C 202.667 41.280,202.293 41.167,201.236 41.167 C 200.545 41.167,200.333 41.108,200.333 40.917 C 200.333 40.778,200.185 40.667,200.000 40.667 C 199.669 40.667,199.667 40.556,199.667 23.833 L 199.667 7.000 198.345 7.000 C 197.393 7.000,196.954 7.070,196.774 7.250 M20.167 9.083 C 20.167 9.275,19.954 9.333,19.250 9.333 C 18.444 9.333,18.333 9.374,18.333 9.667 C 18.333 9.937,18.222 10.000,17.750 10.000 C 17.343 10.000,17.167 10.075,17.167 10.250 C 17.167 10.387,17.023 10.500,16.847 10.500 C 16.350 10.500,16.000 10.680,16.000 10.934 C 16.000 11.088,15.806 11.167,15.428 11.167 C 14.962 11.167,14.847 11.236,14.803 11.542 C 14.774 11.748,14.683 11.892,14.602 11.861 C 14.396 11.783,14.172 12.177,14.169 12.625 C 14.168 12.846,14.064 13.000,13.917 13.000 C 13.779 13.000,13.667 13.112,13.667 13.250 C 13.667 13.389,13.519 13.500,13.333 13.500 C 13.111 13.500,13.000 13.611,13.000 13.833 C 13.000 14.056,12.889 14.167,12.667 14.167 C 12.444 14.167,12.333 14.278,12.333 14.500 C 12.333 14.801,12.222 14.833,11.178 14.833 C 10.169 14.833,10.009 14.791,9.917 14.500 C 9.816 14.183,9.664 14.167,6.905 14.167 C 4.111 14.167,4.000 14.179,4.000 14.500 C 4.000 14.778,3.889 14.833,3.333 14.833 C 2.852 14.833,2.667 14.903,2.667 15.083 C 2.667 15.221,2.554 15.333,2.417 15.333 C 2.210 15.333,2.167 15.648,2.167 17.167 C 2.167 18.685,2.210 19.000,2.417 19.000 C 2.554 19.000,2.667 19.112,2.667 19.250 C 2.667 19.389,2.815 19.500,3.000 19.500 C 3.222 19.500,3.333 19.611,3.333 19.833 C 3.333 20.056,3.444 20.167,3.667 20.167 C 3.889 20.167,4.000 20.278,4.000 20.500 C 4.000 20.685,4.111 20.833,4.250 20.833 C 4.387 20.833,4.500 20.946,4.500 21.083 C 4.500 21.222,4.648 21.333,4.833 21.333 C 5.056 21.333,5.167 21.444,5.167 21.667 C 5.167 21.889,5.278 22.000,5.500 22.000 C 5.685 22.000,5.833 22.111,5.833 22.250 C 5.833 22.387,5.941 22.500,6.073 22.500 C 6.220 22.500,6.332 22.704,6.364 23.029 C 6.406 23.449,6.519 23.591,6.917 23.718 C 7.192 23.807,7.442 23.901,7.474 23.927 C 7.505 23.954,7.531 24.994,7.531 26.238 C 7.531 28.352,7.552 28.500,7.849 28.500 C 8.280 28.500,8.267 29.102,7.833 29.215 C 7.650 29.263,7.500 29.422,7.500 29.568 C 7.500 29.754,7.345 29.833,6.984 29.833 C 6.609 29.833,6.445 29.924,6.382 30.167 C 6.334 30.350,6.191 30.500,6.064 30.500 C 5.937 30.500,5.833 30.613,5.833 30.750 C 5.833 30.889,5.685 31.000,5.500 31.000 C 5.285 31.000,5.167 31.111,5.167 31.314 C 5.167 31.491,5.017 31.667,4.823 31.718 C 4.634 31.767,4.493 31.907,4.509 32.029 C 4.610 32.767,4.480 33.500,4.250 33.500 C 4.044 33.500,4.000 33.806,4.000 35.250 C 4.000 36.629,4.049 37.000,4.231 37.000 C 4.357 37.000,4.500 37.150,4.548 37.333 C 4.632 37.655,4.776 37.667,8.484 37.667 C 11.795 37.667,12.333 37.702,12.333 37.917 C 12.333 38.056,12.481 38.167,12.667 38.167 C 12.889 38.167,13.000 38.278,13.000 38.500 C 13.000 38.722,13.111 38.833,13.333 38.833 C 13.519 38.833,13.667 38.944,13.667 39.083 C 13.667 39.221,13.779 39.333,13.917 39.333 C 14.056 39.333,14.167 39.481,14.167 39.667 C 14.167 39.937,14.278 40.000,14.750 40.000 C 15.173 40.000,15.333 40.073,15.333 40.266 C 15.333 40.412,15.483 40.570,15.667 40.618 C 15.850 40.666,16.000 40.809,16.000 40.936 C 16.000 41.088,16.198 41.167,16.583 41.167 C 17.056 41.167,17.167 41.230,17.167 41.500 C 17.167 41.683,17.223 41.824,17.292 41.814 C 17.979 41.705,19.000 41.866,19.000 42.083 C 19.000 42.256,19.174 42.333,19.564 42.333 C 19.988 42.333,20.149 42.416,20.215 42.667 C 20.292 42.960,20.442 43.000,21.465 43.000 C 22.488 43.000,22.638 43.040,22.715 43.333 C 22.799 43.653,22.942 43.667,26.318 43.667 C 29.722 43.667,29.833 43.656,29.833 43.333 C 29.833 43.026,29.944 43.000,31.266 43.000 C 32.558 43.000,32.706 42.967,32.785 42.667 C 32.851 42.416,33.012 42.333,33.436 42.333 C 33.826 42.333,34.000 42.256,34.000 42.083 C 34.000 41.909,34.176 41.833,34.583 41.833 C 35.056 41.833,35.167 41.770,35.167 41.500 C 35.167 41.222,35.278 41.167,35.833 41.167 C 36.315 41.167,36.500 41.097,36.500 40.917 C 36.500 40.742,36.676 40.667,37.083 40.667 C 37.556 40.667,37.667 40.603,37.667 40.333 C 37.667 40.111,37.778 40.000,38.000 40.000 C 38.222 40.000,38.333 39.889,38.333 39.667 C 38.333 39.481,38.444 39.333,38.583 39.333 C 38.721 39.333,38.833 39.221,38.833 39.083 C 38.833 38.944,38.981 38.833,39.167 38.833 C 39.389 38.833,39.500 38.722,39.500 38.500 C 39.500 38.315,39.611 38.167,39.750 38.167 C 39.887 38.167,40.000 38.054,40.000 37.917 C 40.000 37.702,40.539 37.667,43.849 37.667 C 47.558 37.667,47.701 37.655,47.785 37.333 C 47.833 37.149,48.012 37.000,48.186 37.000 C 48.389 37.000,48.500 36.882,48.500 36.667 C 48.500 36.438,48.611 36.333,48.853 36.333 C 49.319 36.333,49.255 34.406,48.780 34.140 C 48.626 34.054,48.500 33.800,48.500 33.576 C 48.500 33.350,48.352 33.077,48.167 32.961 C 47.944 32.822,47.833 32.573,47.833 32.210 C 47.833 31.838,47.754 31.667,47.583 31.667 C 47.444 31.667,47.333 31.519,47.333 31.333 C 47.333 31.111,47.222 31.000,47.000 31.000 C 46.815 31.000,46.667 30.889,46.667 30.750 C 46.667 30.613,46.554 30.500,46.417 30.500 C 46.278 30.500,46.167 30.352,46.167 30.167 C 46.167 29.944,46.056 29.833,45.833 29.833 C 45.611 29.833,45.500 29.722,45.500 29.500 C 45.500 29.278,45.389 29.167,45.167 29.167 C 44.849 29.167,44.833 29.056,44.833 26.750 C 44.833 24.763,44.876 24.333,45.072 24.333 C 45.203 24.333,45.359 24.182,45.417 23.998 C 45.476 23.813,45.588 23.702,45.667 23.750 C 45.896 23.892,46.105 23.493,46.146 22.833 C 46.157 22.650,46.279 22.500,46.417 22.500 C 46.554 22.500,46.667 22.387,46.667 22.250 C 46.667 22.111,46.815 22.000,47.000 22.000 C 47.222 22.000,47.333 21.889,47.333 21.667 C 47.333 21.481,47.444 21.333,47.583 21.333 C 47.721 21.333,47.833 21.221,47.833 21.083 C 47.833 20.944,47.981 20.833,48.167 20.833 C 48.389 20.833,48.500 20.722,48.500 20.500 C 48.500 20.278,48.611 20.167,48.833 20.167 C 49.056 20.167,49.167 20.056,49.167 19.833 C 49.167 19.648,49.278 19.500,49.417 19.500 C 49.554 19.500,49.667 19.387,49.667 19.250 C 49.667 19.111,49.815 19.000,50.000 19.000 C 50.278 19.000,50.333 18.889,50.333 18.333 C 50.333 17.828,50.399 17.667,50.605 17.667 C 50.925 17.667,50.842 16.142,50.516 16.033 C 50.416 16.000,50.333 15.828,50.333 15.653 C 50.333 15.444,50.217 15.333,50.000 15.333 C 49.815 15.333,49.667 15.222,49.667 15.083 C 49.667 14.909,49.491 14.833,49.083 14.833 C 48.611 14.833,48.500 14.770,48.500 14.500 C 48.500 14.181,48.389 14.167,45.833 14.167 C 43.278 14.167,43.167 14.181,43.167 14.500 C 43.167 14.810,43.056 14.833,41.583 14.833 C 40.111 14.833,40.000 14.810,40.000 14.500 C 40.000 14.315,39.889 14.167,39.750 14.167 C 39.611 14.167,39.500 14.019,39.500 13.833 C 39.500 13.611,39.389 13.500,39.167 13.500 C 38.981 13.500,38.833 13.389,38.833 13.250 C 38.833 13.112,38.721 13.000,38.583 13.000 C 38.444 13.000,38.333 12.852,38.333 12.667 C 38.333 12.483,38.258 12.333,38.167 12.333 C 38.075 12.333,38.000 12.253,38.000 12.155 C 38.000 12.057,37.887 11.863,37.748 11.725 C 37.610 11.586,37.540 11.404,37.592 11.320 C 37.644 11.236,37.419 11.167,37.093 11.167 C 36.689 11.167,36.500 11.090,36.500 10.928 C 36.500 10.797,36.357 10.644,36.182 10.588 C 36.007 10.533,35.822 10.378,35.771 10.244 C 35.717 10.104,35.461 10.000,35.172 10.000 C 34.778 10.000,34.667 9.927,34.667 9.667 C 34.667 9.374,34.556 9.333,33.750 9.333 C 33.046 9.333,32.833 9.275,32.833 9.083 C 32.833 8.865,32.019 8.833,26.500 8.833 C 20.981 8.833,20.167 8.865,20.167 9.083 M49.778 9.444 C 49.717 9.506,49.667 10.031,49.667 10.611 L 49.667 11.667 50.333 11.667 C 50.889 11.667,51.000 11.722,51.000 12.000 C 51.000 12.285,51.111 12.333,51.764 12.333 C 52.418 12.333,52.609 12.417,53.094 12.917 C 53.406 13.237,53.737 13.500,53.830 13.500 C 53.944 13.500,54.000 17.904,54.000 26.843 C 54.000 35.395,53.942 40.151,53.839 40.087 C 53.750 40.032,53.582 40.140,53.465 40.327 C 53.349 40.514,53.159 40.667,53.043 40.667 C 52.928 40.667,52.833 40.779,52.833 40.917 C 52.833 41.104,52.614 41.173,51.958 41.192 C 51.477 41.206,51.008 41.235,50.917 41.256 C 50.825 41.277,50.656 41.304,50.542 41.314 C 50.427 41.325,50.333 41.437,50.333 41.564 C 50.333 41.691,50.180 41.835,49.992 41.884 C 49.686 41.964,49.655 42.083,49.700 43.028 L 49.750 44.083 58.708 44.126 C 66.602 44.164,67.667 44.140,67.667 43.918 C 67.667 43.718,67.906 43.667,68.849 43.667 C 69.891 43.667,70.042 43.627,70.118 43.333 C 70.192 43.052,70.346 43.000,71.103 43.000 C 71.889 43.000,72.000 42.959,72.000 42.667 C 72.000 42.397,72.111 42.333,72.583 42.333 C 72.991 42.333,73.167 42.258,73.167 42.083 C 73.167 41.909,73.343 41.833,73.750 41.833 C 74.222 41.833,74.333 41.770,74.333 41.500 C 74.333 41.278,74.444 41.167,74.667 41.167 C 74.850 41.167,75.000 41.059,75.000 40.928 C 75.000 40.797,75.150 40.642,75.333 40.583 C 75.517 40.525,75.667 40.370,75.667 40.239 C 75.667 40.107,75.779 40.000,75.917 40.000 C 76.056 40.000,76.167 39.852,76.167 39.667 C 76.167 39.483,76.260 39.332,76.375 39.330 C 76.858 39.324,77.333 38.548,77.333 37.768 C 77.333 37.111,77.382 37.000,77.667 37.000 C 77.989 37.000,78.000 36.889,78.000 33.750 C 78.000 30.611,77.989 30.500,77.667 30.500 C 77.389 30.500,77.333 30.389,77.333 29.833 C 77.333 29.352,77.264 29.167,77.083 29.167 C 76.946 29.167,76.824 29.054,76.813 28.917 C 76.801 28.779,76.782 28.586,76.771 28.487 C 76.759 28.388,76.633 28.219,76.490 28.112 C 76.346 28.004,76.180 27.785,76.120 27.625 C 76.060 27.465,75.904 27.333,75.773 27.333 C 75.642 27.333,75.492 27.221,75.440 27.083 C 75.385 26.940,75.136 26.833,74.858 26.833 C 74.512 26.833,74.347 26.737,74.285 26.500 C 74.222 26.257,74.058 26.167,73.682 26.167 C 73.335 26.167,73.167 26.085,73.167 25.917 C 73.167 25.744,72.993 25.667,72.603 25.667 C 71.888 25.667,71.627 25.088,72.269 24.927 C 72.488 24.872,72.667 24.716,72.667 24.580 C 72.667 24.416,72.837 24.333,73.177 24.333 C 73.457 24.333,73.647 24.269,73.598 24.191 C 73.550 24.113,73.696 23.964,73.922 23.861 C 74.150 23.757,74.333 23.532,74.333 23.355 C 74.333 23.156,74.441 23.046,74.621 23.060 C 74.779 23.073,74.917 22.971,74.929 22.833 C 74.940 22.696,74.961 22.461,74.975 22.311 C 74.989 22.161,75.150 22.000,75.333 21.952 C 75.576 21.888,75.667 21.724,75.667 21.349 C 75.667 21.002,75.748 20.833,75.917 20.833 C 76.131 20.833,76.167 20.352,76.167 17.500 C 76.167 15.045,76.115 14.178,75.972 14.208 C 75.865 14.231,75.707 13.969,75.622 13.625 C 75.535 13.274,75.365 13.000,75.233 13.000 C 75.105 13.000,75.000 12.850,75.000 12.667 C 75.000 12.444,74.889 12.333,74.667 12.333 C 74.481 12.333,74.333 12.222,74.333 12.083 C 74.333 11.946,74.221 11.833,74.083 11.833 C 73.944 11.833,73.833 11.685,73.833 11.500 C 73.833 11.302,73.722 11.167,73.560 11.167 C 73.410 11.167,73.201 11.050,73.097 10.907 C 72.899 10.636,72.561 10.534,71.792 10.513 C 71.501 10.505,71.333 10.409,71.333 10.250 C 71.333 10.058,71.120 10.000,70.417 10.000 C 69.611 10.000,69.500 9.960,69.500 9.667 C 69.500 9.330,50.111 9.112,49.778 9.444 M30.500 10.833 C 30.500 11.126,30.611 11.167,31.417 11.167 C 32.120 11.167,32.333 11.225,32.333 11.417 C 32.333 11.591,32.509 11.667,32.917 11.667 C 33.389 11.667,33.500 11.730,33.500 12.000 C 33.500 12.270,33.611 12.333,34.083 12.333 C 34.736 12.333,34.755 12.415,34.671 14.958 C 34.639 15.915,34.665 16.000,34.985 16.000 C 35.183 16.000,35.333 16.107,35.333 16.250 C 35.333 16.387,35.446 16.500,35.583 16.500 C 35.722 16.500,35.833 16.648,35.833 16.833 C 35.833 17.019,35.722 17.167,35.583 17.167 C 35.444 17.167,35.333 17.315,35.333 17.500 C 35.333 17.722,35.222 17.833,35.000 17.833 C 34.707 17.833,34.667 17.944,34.667 18.750 C 34.667 19.556,34.626 19.667,34.333 19.667 C 34.150 19.667,34.000 19.771,34.000 19.899 C 34.000 20.027,33.887 20.174,33.750 20.227 C 33.563 20.299,33.500 20.598,33.500 21.411 L 33.500 22.500 34.083 22.500 C 34.556 22.500,34.667 22.563,34.667 22.833 C 34.667 23.056,34.556 23.167,34.333 23.167 C 34.111 23.167,34.000 23.278,34.000 23.500 C 34.000 23.685,33.889 23.833,33.750 23.833 C 33.612 23.833,33.500 23.946,33.500 24.083 C 33.500 24.222,33.352 24.333,33.167 24.333 C 32.889 24.333,32.833 24.444,32.833 25.000 C 32.833 25.481,32.764 25.667,32.583 25.667 C 32.394 25.667,32.333 25.870,32.333 26.500 C 32.333 27.281,32.242 27.424,31.792 27.353 C 31.723 27.342,31.667 27.746,31.667 28.250 L 31.667 29.167 30.750 29.167 C 29.944 29.167,29.833 29.207,29.833 29.500 C 29.833 29.770,29.722 29.833,29.250 29.833 C 28.778 29.833,28.667 29.897,28.667 30.167 C 28.667 30.460,28.556 30.500,27.750 30.500 C 27.046 30.500,26.833 30.558,26.833 30.750 C 26.833 30.923,26.659 31.000,26.268 31.000 C 25.919 31.000,25.666 30.904,25.606 30.750 C 25.546 30.593,25.291 30.500,24.922 30.500 C 24.444 30.500,24.333 30.437,24.333 30.167 C 24.333 29.878,24.222 29.833,23.500 29.833 C 22.899 29.833,22.667 29.769,22.667 29.601 C 22.667 29.301,22.301 29.167,21.486 29.167 C 21.017 29.167,20.833 29.096,20.833 28.917 C 20.833 28.736,20.648 28.667,20.167 28.667 C 19.611 28.667,19.500 28.611,19.500 28.333 C 19.500 28.063,19.389 28.000,18.917 28.000 C 18.444 28.000,18.333 27.937,18.333 27.667 C 18.333 27.397,18.222 27.333,17.750 27.333 C 17.343 27.333,17.167 27.258,17.167 27.083 C 17.167 26.944,17.019 26.833,16.833 26.833 C 16.611 26.833,16.500 26.722,16.500 26.500 C 16.500 26.315,16.389 26.167,16.250 26.167 C 16.058 26.167,16.000 25.954,16.000 25.250 C 16.000 24.546,16.058 24.333,16.250 24.333 C 16.442 24.333,16.500 24.120,16.500 23.417 C 16.500 22.611,16.540 22.500,16.833 22.500 C 17.019 22.500,17.167 22.389,17.167 22.250 C 17.167 22.111,17.315 22.000,17.500 22.000 C 17.722 22.000,17.833 21.889,17.833 21.667 C 17.833 21.481,17.944 21.333,18.083 21.333 C 18.221 21.333,18.333 21.221,18.333 21.083 C 18.333 20.888,18.561 20.833,19.375 20.831 C 20.758 20.827,20.901 20.720,20.794 19.767 L 20.708 19.000 21.395 18.980 C 21.774 18.969,22.183 18.974,22.305 18.991 C 22.426 19.007,22.566 18.866,22.616 18.677 C 22.665 18.488,22.813 18.333,22.945 18.333 C 23.520 18.333,23.148 16.590,22.561 16.533 C 22.129 16.491,22.020 16.394,21.938 15.980 C 21.882 15.702,21.762 15.524,21.669 15.582 C 21.398 15.749,21.484 15.449,21.824 15.042 C 22.355 14.405,23.167 14.520,23.167 15.232 C 23.167 15.929,23.329 16.000,24.930 16.000 C 26.030 16.000,26.167 15.965,26.167 15.686 C 26.167 15.512,26.316 15.333,26.500 15.285 C 26.683 15.237,26.833 15.078,26.833 14.932 C 26.833 14.740,26.994 14.667,27.417 14.667 C 27.824 14.667,28.000 14.591,28.000 14.417 C 28.000 14.242,28.176 14.167,28.583 14.167 L 29.167 14.167 29.167 12.333 L 29.167 10.500 29.833 10.500 C 30.389 10.500,30.500 10.556,30.500 10.833 M22.000 11.417 C 22.000 11.594,22.183 11.668,22.625 11.672 C 23.130 11.676,23.194 11.709,22.958 11.847 C 22.785 11.948,22.667 12.216,22.667 12.508 C 22.667 12.889,22.591 13.000,22.333 13.000 C 22.072 13.000,22.000 12.889,22.000 12.484 C 22.000 12.109,21.909 11.945,21.667 11.882 C 21.482 11.833,21.333 11.654,21.333 11.481 C 21.333 11.278,21.451 11.167,21.667 11.167 C 21.852 11.167,22.000 11.278,22.000 11.417 M66.042 13.292 C 66.015 13.424,66.198 13.500,66.543 13.500 C 66.906 13.500,67.156 13.611,67.295 13.833 C 67.412 14.022,67.683 14.167,67.918 14.167 C 68.222 14.167,68.333 14.256,68.333 14.500 C 68.333 14.683,68.470 14.970,68.638 15.138 C 68.805 15.305,68.990 15.568,69.049 15.721 C 69.108 15.874,69.271 16.000,69.411 16.000 C 69.628 16.000,69.667 16.335,69.667 18.194 C 69.667 19.401,69.617 20.340,69.557 20.279 C 69.351 20.073,69.000 20.540,69.000 21.020 C 69.000 21.336,68.914 21.500,68.750 21.500 C 68.612 21.500,68.512 21.556,68.527 21.625 C 68.627 22.083,68.265 22.667,67.880 22.667 C 67.440 22.667,66.674 23.273,66.670 23.625 C 66.668 23.773,66.304 23.833,65.417 23.833 C 64.506 23.833,64.178 23.890,64.208 24.042 C 64.240 24.198,63.717 24.262,62.125 24.297 L 60.000 24.343 60.000 18.668 L 60.000 12.992 63.042 13.038 C 65.367 13.073,66.074 13.132,66.042 13.292 M19.000 14.769 C 19.000 14.805,18.719 14.828,18.375 14.822 C 17.899 14.813,17.829 14.779,18.081 14.681 C 18.386 14.562,19.000 14.621,19.000 14.769 M17.167 15.667 C 17.167 15.852,17.056 16.000,16.917 16.000 C 16.743 16.000,16.660 16.191,16.644 16.625 C 16.630 17.012,16.594 17.107,16.549 16.875 C 16.509 16.669,16.370 16.500,16.238 16.500 C 16.077 16.500,16.000 16.311,16.000 15.917 C 16.000 15.361,16.028 15.333,16.583 15.333 C 17.056 15.333,17.167 15.397,17.167 15.667 M10.548 16.833 C 10.500 17.017,10.357 17.167,10.231 17.167 C 10.078 17.167,10.000 17.364,10.000 17.750 C 10.000 18.222,9.937 18.333,9.667 18.333 C 9.374 18.333,9.333 18.444,9.333 19.250 C 9.333 20.093,9.303 20.167,8.953 20.167 C 8.745 20.167,8.465 20.317,8.333 20.500 C 8.201 20.683,7.960 20.833,7.797 20.833 C 7.611 20.833,7.500 20.708,7.500 20.500 C 7.500 20.315,7.389 20.167,7.250 20.167 C 7.075 20.167,7.000 19.991,7.000 19.583 C 7.000 19.111,6.937 19.000,6.667 19.000 C 6.444 19.000,6.333 18.889,6.333 18.667 C 6.333 18.444,6.222 18.333,6.000 18.333 C 5.778 18.333,5.667 18.222,5.667 18.000 C 5.667 17.778,5.778 17.667,6.000 17.667 C 6.185 17.667,6.333 17.556,6.333 17.417 C 6.333 17.242,6.509 17.167,6.917 17.167 C 7.389 17.167,7.500 17.103,7.500 16.833 C 7.500 16.524,7.611 16.500,9.068 16.500 C 10.553 16.500,10.631 16.517,10.548 16.833 M45.000 16.833 C 45.000 17.103,45.111 17.167,45.583 17.167 C 45.991 17.167,46.167 17.242,46.167 17.417 C 46.167 17.554,46.279 17.667,46.417 17.667 C 46.556 17.667,46.667 17.815,46.667 18.000 C 46.667 18.185,46.556 18.333,46.417 18.333 C 46.236 18.333,46.167 18.519,46.167 19.000 C 46.167 19.556,46.111 19.667,45.833 19.667 C 45.648 19.667,45.500 19.778,45.500 19.917 C 45.500 20.054,45.387 20.167,45.250 20.167 C 45.111 20.167,45.000 20.315,45.000 20.500 C 45.000 20.722,44.889 20.833,44.667 20.833 C 44.473 20.833,44.333 20.722,44.333 20.568 C 44.333 20.422,44.183 20.263,44.000 20.215 C 43.719 20.141,43.667 19.988,43.667 19.231 C 43.667 18.737,43.610 18.342,43.542 18.353 C 43.125 18.419,43.000 18.280,43.000 17.750 C 43.000 17.194,42.972 17.167,42.417 17.167 C 41.944 17.167,41.833 17.103,41.833 16.833 C 41.833 16.523,41.944 16.500,43.417 16.500 C 44.889 16.500,45.000 16.523,45.000 16.833 M87.716 20.497 C 87.641 20.782,87.490 20.833,86.731 20.833 C 86.044 20.833,85.833 20.892,85.833 21.083 C 85.833 21.252,85.665 21.333,85.318 21.333 C 84.942 21.333,84.778 21.424,84.715 21.667 C 84.649 21.917,84.488 22.000,84.064 22.000 C 83.611 22.000,83.500 22.066,83.500 22.333 C 83.500 22.556,83.389 22.667,83.167 22.667 C 82.981 22.667,82.833 22.778,82.833 22.917 C 82.833 23.054,82.721 23.167,82.583 23.167 C 82.444 23.167,82.333 23.315,82.333 23.500 C 82.333 23.722,82.222 23.833,82.000 23.833 C 81.815 23.833,81.667 23.944,81.667 24.083 C 81.667 24.221,81.547 24.333,81.401 24.333 C 81.255 24.333,81.098 24.478,81.051 24.655 C 81.005 24.832,80.862 25.017,80.734 25.067 C 80.605 25.116,80.500 25.262,80.500 25.392 C 80.500 25.522,80.350 25.667,80.167 25.715 C 79.894 25.786,79.833 25.942,79.833 26.568 C 79.833 27.137,79.769 27.333,79.583 27.333 C 79.391 27.333,79.333 27.548,79.333 28.266 C 79.333 29.058,79.283 29.211,79.000 29.285 C 78.680 29.369,78.667 29.512,78.667 32.750 C 78.667 35.988,78.680 36.131,79.000 36.215 C 79.283 36.289,79.333 36.442,79.333 37.234 C 79.333 37.952,79.391 38.167,79.583 38.167 C 79.752 38.167,79.833 38.335,79.833 38.682 C 79.833 39.058,79.924 39.222,80.167 39.285 C 80.351 39.333,80.500 39.512,80.500 39.686 C 80.500 39.859,80.612 40.000,80.750 40.000 C 80.887 40.000,81.000 40.107,81.000 40.239 C 81.000 40.370,81.150 40.525,81.333 40.583 C 81.517 40.642,81.667 40.797,81.667 40.928 C 81.667 41.059,81.817 41.167,82.000 41.167 C 82.222 41.167,82.333 41.278,82.333 41.500 C 82.333 41.685,82.444 41.833,82.583 41.833 C 82.721 41.833,82.833 41.946,82.833 42.083 C 82.833 42.222,82.981 42.333,83.167 42.333 C 83.389 42.333,83.500 42.444,83.500 42.667 C 83.500 42.935,83.611 43.000,84.072 43.000 C 84.498 43.000,84.671 43.085,84.750 43.333 C 84.819 43.550,85.002 43.667,85.273 43.667 C 85.503 43.667,85.803 43.779,85.940 43.917 C 86.111 44.087,86.532 44.167,87.262 44.167 C 88.067 44.167,88.333 44.224,88.333 44.399 C 88.333 44.982,93.865 45.064,94.175 44.485 C 94.317 44.218,94.534 44.167,95.506 44.167 C 96.427 44.167,96.667 44.115,96.667 43.917 C 96.667 43.742,96.843 43.667,97.250 43.667 C 97.722 43.667,97.833 43.603,97.833 43.333 C 97.833 43.066,97.944 43.000,98.397 43.000 C 98.821 43.000,98.983 42.917,99.048 42.667 C 99.108 42.437,99.276 42.333,99.586 42.333 C 100.053 42.333,100.825 41.739,100.830 41.375 C 100.832 41.260,100.983 41.167,101.167 41.167 C 101.389 41.167,101.500 41.056,101.500 40.833 C 101.500 40.650,101.604 40.500,101.731 40.500 C 101.864 40.500,102.010 40.251,102.072 39.917 C 102.138 39.567,102.279 39.333,102.424 39.333 C 102.558 39.333,102.667 39.230,102.667 39.103 C 102.667 38.976,102.817 38.833,103.000 38.785 C 103.228 38.725,103.333 38.558,103.333 38.254 C 103.333 38.009,103.446 37.697,103.583 37.560 C 103.732 37.411,103.833 37.004,103.833 36.556 C 103.833 35.937,103.894 35.786,104.174 35.713 C 104.506 35.626,104.514 35.521,104.490 31.895 C 104.466 28.250,104.441 28.071,103.958 28.147 C 103.854 28.163,103.745 26.879,103.815 26.454 C 103.827 26.382,103.723 26.281,103.585 26.228 C 103.447 26.174,103.333 26.027,103.333 25.899 C 103.333 25.771,103.183 25.667,103.000 25.667 C 102.731 25.667,102.667 25.556,102.667 25.089 C 102.667 24.680,102.568 24.459,102.329 24.331 C 102.143 24.231,102.035 24.079,102.089 23.992 C 102.142 23.905,102.032 23.833,101.843 23.833 C 101.611 23.833,101.500 23.725,101.500 23.500 C 101.500 23.278,101.389 23.167,101.167 23.167 C 100.983 23.167,100.833 23.063,100.833 22.936 C 100.833 22.809,100.681 22.666,100.495 22.617 C 100.309 22.568,100.178 22.431,100.204 22.311 C 100.232 22.177,100.027 22.060,99.667 22.005 C 99.299 21.949,99.083 21.824,99.083 21.667 C 99.083 21.416,99.022 21.393,98.250 21.354 C 98.007 21.342,97.833 21.233,97.833 21.092 C 97.833 20.918,97.588 20.837,96.958 20.800 C 96.314 20.763,96.083 20.684,96.083 20.500 C 96.083 20.048,87.834 20.045,87.716 20.497 M158.883 20.495 C 158.808 20.782,158.659 20.833,157.897 20.833 C 157.211 20.833,157.000 20.892,157.000 21.083 C 157.000 21.258,156.824 21.333,156.417 21.333 C 155.950 21.333,155.833 21.398,155.833 21.657 C 155.833 21.910,155.698 21.991,155.208 22.032 C 154.733 22.071,154.589 22.153,154.606 22.375 C 154.621 22.558,154.512 22.667,154.315 22.667 C 154.142 22.667,154.000 22.779,154.000 22.917 C 154.000 23.056,153.852 23.167,153.667 23.167 C 153.444 23.167,153.333 23.278,153.333 23.500 C 153.333 23.725,153.222 23.833,152.990 23.833 C 152.801 23.833,152.691 23.905,152.745 23.992 C 152.799 24.079,152.691 24.231,152.505 24.331 C 152.265 24.459,152.167 24.680,152.167 25.089 C 152.167 25.556,152.103 25.667,151.833 25.667 C 151.650 25.667,151.500 25.771,151.500 25.899 C 151.500 26.027,151.387 26.174,151.250 26.227 C 151.074 26.295,151.000 26.570,151.000 27.161 C 151.000 27.889,150.956 28.000,150.667 28.000 C 150.354 28.000,150.333 28.111,150.333 29.833 C 150.333 31.306,150.287 31.667,150.097 31.667 C 149.590 31.667,149.559 33.870,150.064 33.971 C 150.290 34.016,150.333 34.288,150.333 35.673 C 150.333 37.151,150.368 37.340,150.667 37.500 C 150.883 37.616,151.000 37.849,151.000 38.164 C 151.000 38.431,151.112 38.713,151.249 38.789 C 151.386 38.866,151.516 39.144,151.537 39.407 C 151.562 39.701,151.690 39.914,151.872 39.962 C 152.034 40.004,152.167 40.140,152.167 40.264 C 152.167 40.387,152.319 40.570,152.505 40.669 C 152.691 40.769,152.799 40.921,152.745 41.008 C 152.691 41.095,152.801 41.167,152.990 41.167 C 153.222 41.167,153.333 41.275,153.333 41.500 C 153.333 41.722,153.444 41.833,153.667 41.833 C 153.852 41.833,154.000 41.944,154.000 42.083 C 154.000 42.258,154.176 42.333,154.583 42.333 C 155.049 42.333,155.167 42.398,155.167 42.655 C 155.167 42.850,155.300 42.998,155.507 43.030 C 155.694 43.059,155.838 43.155,155.828 43.243 C 155.802 43.458,156.297 43.641,156.941 43.655 C 157.244 43.662,157.505 43.772,157.560 43.917 C 157.634 44.108,157.950 44.167,158.919 44.167 C 160.029 44.167,160.175 44.202,160.132 44.458 C 160.050 44.947,165.823 44.992,165.951 44.504 C 166.029 44.204,166.174 44.167,167.256 44.167 C 168.549 44.167,169.056 44.059,168.906 43.816 C 168.855 43.734,168.996 43.667,169.219 43.667 C 169.979 43.667,170.667 43.459,170.667 43.229 C 170.667 43.080,170.863 43.000,171.231 43.000 C 171.654 43.000,171.816 42.917,171.882 42.667 C 172.082 41.900,172.646 42.274,172.700 43.208 L 172.750 44.083 179.583 44.083 L 186.417 44.083 186.472 42.958 C 186.523 41.912,186.502 41.833,186.180 41.833 C 185.983 41.833,185.833 41.725,185.833 41.583 C 185.833 41.446,185.815 41.329,185.792 41.323 C 185.769 41.318,185.262 41.272,184.667 41.222 C 183.998 41.165,183.532 41.042,183.450 40.899 C 183.377 40.771,183.058 40.667,182.742 40.667 L 182.167 40.667 182.167 33.083 L 182.167 25.500 182.851 25.500 C 183.391 25.500,183.515 25.447,183.440 25.250 C 183.362 25.047,183.514 25.000,184.255 25.000 C 185.086 25.000,185.168 24.967,185.177 24.625 L 185.188 24.250 185.339 24.625 C 185.448 24.898,185.626 25.000,185.995 25.000 C 186.357 25.000,186.505 25.082,186.519 25.292 C 186.530 25.452,186.549 25.696,186.561 25.833 C 186.573 25.971,186.715 26.073,186.875 26.060 C 187.107 26.042,187.167 26.170,187.167 26.685 C 187.167 27.150,187.237 27.333,187.417 27.333 C 187.585 27.333,187.667 27.502,187.667 27.849 C 187.667 28.224,187.757 28.388,188.000 28.452 C 188.191 28.502,188.333 28.679,188.333 28.867 C 188.333 29.294,190.566 29.255,190.606 28.827 C 190.618 28.693,190.637 28.048,190.647 27.394 C 190.664 26.386,190.714 26.193,190.976 26.125 C 191.243 26.055,191.290 25.851,191.319 24.648 C 191.343 23.633,191.418 23.216,191.593 23.118 C 191.773 23.017,191.833 22.629,191.833 21.575 L 191.833 20.167 189.500 20.167 C 187.278 20.167,187.167 20.183,187.167 20.500 C 187.167 20.793,187.056 20.833,186.250 20.833 C 185.546 20.833,185.333 20.891,185.333 21.083 C 185.333 21.245,185.157 21.341,184.833 21.354 C 184.362 21.374,184.172 21.403,183.875 21.499 C 183.806 21.521,183.694 21.531,183.625 21.520 C 183.556 21.509,183.500 21.608,183.500 21.739 C 183.500 21.888,183.294 21.999,182.958 22.031 C 182.660 22.060,182.417 22.171,182.417 22.278 C 182.417 22.385,182.360 22.528,182.292 22.597 C 182.223 22.666,182.167 22.147,182.167 21.444 L 182.167 20.167 180.750 20.167 C 179.444 20.167,179.333 20.193,179.333 20.500 C 179.333 20.809,179.222 20.833,177.828 20.833 C 176.644 20.833,176.302 20.887,176.227 21.083 C 176.152 21.278,175.820 21.333,174.717 21.333 C 173.442 21.333,173.293 21.366,173.215 21.667 C 173.167 21.850,173.024 22.000,172.897 22.000 C 172.733 22.000,172.667 22.227,172.670 22.792 C 172.674 23.964,173.125 24.333,174.556 24.333 C 176.277 24.333,176.167 23.750,176.167 32.870 C 176.167 39.689,176.135 40.667,175.917 40.667 C 175.779 40.667,175.667 40.779,175.667 40.917 C 175.667 41.112,175.439 41.167,174.620 41.167 C 173.765 41.167,173.530 41.228,173.333 41.500 C 172.841 42.183,172.447 41.392,172.647 40.125 C 172.658 40.056,171.317 40.000,169.667 40.000 C 166.670 40.000,166.667 40.000,166.656 40.375 L 166.646 40.750 166.495 40.375 C 166.350 40.015,166.262 40.000,164.353 40.000 C 163.024 40.000,162.340 39.938,162.299 39.812 C 162.264 39.709,161.852 39.587,161.382 39.542 C 160.728 39.479,160.509 39.387,160.447 39.147 C 160.389 38.925,160.213 38.833,159.849 38.833 C 159.444 38.833,159.333 38.762,159.333 38.500 C 159.333 38.317,159.277 38.176,159.208 38.186 C 158.865 38.241,158.667 38.142,158.667 37.917 C 158.667 37.779,158.554 37.667,158.417 37.667 C 158.279 37.667,158.167 37.547,158.167 37.401 C 158.167 37.255,158.017 37.096,157.833 37.048 C 157.583 36.983,157.500 36.821,157.500 36.397 C 157.500 36.007,157.423 35.833,157.250 35.833 C 157.053 35.833,157.000 35.600,157.000 34.734 C 157.000 33.776,156.957 33.624,156.667 33.548 C 156.406 33.480,156.333 33.321,156.333 32.815 L 156.333 32.170 164.708 32.127 L 173.083 32.083 173.103 30.134 C 173.117 28.627,173.070 28.165,172.894 28.098 C 172.734 28.036,172.667 27.686,172.667 26.906 C 172.667 25.942,172.624 25.791,172.333 25.715 C 172.081 25.649,172.000 25.488,172.000 25.048 C 172.000 24.609,171.919 24.448,171.667 24.382 C 171.441 24.323,171.332 24.153,171.330 23.856 C 171.328 23.420,170.707 22.667,170.352 22.667 C 170.250 22.667,170.167 22.517,170.167 22.333 C 170.167 22.150,170.110 22.009,170.042 22.020 C 169.422 22.118,169.000 21.970,169.000 21.657 C 169.000 21.468,168.934 21.355,168.853 21.405 C 168.772 21.455,168.516 21.346,168.285 21.164 C 168.021 20.957,167.610 20.833,167.182 20.833 C 166.558 20.833,166.417 20.728,166.477 20.303 C 166.524 19.964,158.972 20.155,158.883 20.495 M211.833 20.511 C 211.833 20.791,211.711 20.833,210.917 20.833 C 210.213 20.833,210.000 20.891,210.000 21.083 C 210.000 21.301,209.570 21.429,209.111 21.348 C 209.034 21.335,208.932 21.476,208.883 21.662 C 208.819 21.906,208.657 22.000,208.298 22.000 C 207.942 22.000,207.778 22.094,207.715 22.333 C 207.667 22.518,207.488 22.667,207.314 22.667 C 207.141 22.667,207.000 22.779,207.000 22.917 C 207.000 23.054,206.880 23.167,206.734 23.167 C 206.588 23.167,206.430 23.317,206.382 23.500 C 206.334 23.683,206.191 23.833,206.064 23.833 C 205.912 23.833,205.833 24.031,205.833 24.417 C 205.833 24.889,205.770 25.000,205.500 25.000 C 205.285 25.000,205.167 25.111,205.167 25.314 C 205.167 25.487,205.022 25.666,204.845 25.712 C 204.624 25.770,204.507 25.971,204.470 26.356 C 204.438 26.695,204.334 26.900,204.208 26.875 C 204.062 26.846,204.000 27.106,204.000 27.750 C 204.000 28.560,203.961 28.667,203.662 28.667 C 203.330 28.667,203.324 28.753,203.339 32.667 C 203.349 35.193,203.416 36.667,203.521 36.667 C 203.612 36.667,203.641 36.741,203.585 36.831 C 203.526 36.926,203.593 36.954,203.741 36.897 C 203.949 36.817,204.000 36.932,204.000 37.482 C 204.000 37.980,204.068 38.167,204.250 38.167 C 204.425 38.167,204.500 38.343,204.500 38.750 C 204.500 39.222,204.563 39.333,204.833 39.333 C 205.103 39.333,205.167 39.444,205.167 39.917 C 205.167 40.389,205.230 40.500,205.500 40.500 C 205.722 40.500,205.833 40.611,205.833 40.833 C 205.833 41.017,205.937 41.167,206.064 41.167 C 206.191 41.167,206.334 41.317,206.382 41.500 C 206.430 41.683,206.588 41.833,206.734 41.833 C 206.880 41.833,207.000 41.946,207.000 42.083 C 207.000 42.258,207.176 42.333,207.583 42.333 C 208.056 42.333,208.167 42.397,208.167 42.667 C 208.167 42.934,208.278 43.000,208.731 43.000 C 209.154 43.000,209.316 43.083,209.382 43.333 C 209.444 43.573,209.609 43.667,209.967 43.667 C 210.255 43.667,210.505 43.772,210.560 43.917 C 210.636 44.113,210.977 44.167,212.161 44.167 C 213.556 44.167,213.667 44.191,213.667 44.500 C 213.667 45.019,218.816 45.019,218.952 44.500 C 219.031 44.198,219.179 44.167,220.519 44.167 C 221.724 44.167,222.000 44.120,222.000 43.917 C 222.000 43.697,222.921 43.540,223.556 43.652 C 223.633 43.665,223.735 43.524,223.784 43.338 C 223.851 43.082,224.010 43.000,224.436 43.000 C 224.889 43.000,225.000 42.934,225.000 42.667 C 225.000 42.397,225.111 42.333,225.583 42.333 C 226.056 42.333,226.167 42.397,226.167 42.667 C 226.167 42.889,226.278 43.000,226.500 43.000 C 226.683 43.000,226.833 43.104,226.833 43.232 C 226.833 43.532,227.199 43.667,228.014 43.667 C 228.483 43.667,228.667 43.737,228.667 43.917 C 228.667 44.120,228.942 44.167,230.147 44.167 C 231.465 44.167,231.637 44.202,231.711 44.486 C 231.845 44.997,237.483 45.017,237.617 44.506 C 237.695 44.206,237.838 44.167,238.853 44.167 C 239.761 44.167,240.000 44.115,240.000 43.917 C 240.000 43.755,240.176 43.659,240.500 43.646 C 240.971 43.626,241.162 43.597,241.458 43.501 C 241.527 43.479,241.640 43.469,241.708 43.480 C 241.777 43.491,241.833 43.388,241.833 43.250 C 241.833 43.111,241.981 43.000,242.167 43.000 C 242.389 43.000,242.500 42.889,242.500 42.667 C 242.500 42.415,242.612 42.333,242.958 42.330 C 243.526 42.327,244.082 41.764,244.243 41.030 C 244.327 40.650,244.439 40.505,244.599 40.566 C 244.775 40.634,244.833 40.497,244.833 40.014 C 244.833 39.517,244.907 39.353,245.160 39.287 C 245.655 39.157,245.643 34.667,245.148 34.667 C 244.900 34.667,244.833 34.544,244.833 34.083 C 244.833 33.676,244.758 33.500,244.583 33.500 C 244.444 33.500,244.333 33.352,244.333 33.167 C 244.333 32.944,244.222 32.833,244.000 32.833 C 243.817 32.833,243.667 32.726,243.667 32.595 C 243.667 32.463,243.517 32.308,243.333 32.250 C 243.150 32.192,243.000 32.037,243.000 31.905 C 243.000 31.745,242.814 31.667,242.436 31.667 C 242.012 31.667,241.851 31.584,241.785 31.333 C 241.722 31.091,241.558 31.000,241.182 31.000 C 240.835 31.000,240.667 30.918,240.667 30.750 C 240.667 30.558,240.454 30.500,239.750 30.500 C 238.944 30.500,238.833 30.460,238.833 30.167 C 238.833 29.875,238.722 29.833,237.936 29.833 C 237.179 29.833,237.025 29.781,236.952 29.500 C 236.879 29.222,236.724 29.167,236.016 29.167 C 235.372 29.167,235.167 29.106,235.167 28.917 C 235.167 28.744,234.993 28.667,234.603 28.667 C 234.179 28.667,234.017 28.584,233.952 28.333 C 233.889 28.094,233.724 28.000,233.368 28.000 C 233.002 28.000,232.848 27.907,232.779 27.645 C 232.717 27.408,232.600 27.323,232.427 27.390 C 232.222 27.468,232.167 27.366,232.167 26.906 C 232.167 26.541,232.073 26.287,231.917 26.227 C 231.779 26.174,231.667 25.989,231.667 25.816 C 231.667 25.642,231.779 25.500,231.917 25.500 C 232.054 25.500,232.167 25.387,232.167 25.250 C 232.167 25.111,232.315 25.000,232.500 25.000 C 232.722 25.000,232.833 24.889,232.833 24.667 C 232.833 24.421,232.944 24.333,233.255 24.333 C 233.487 24.333,233.720 24.221,233.773 24.083 C 233.853 23.875,234.336 23.833,236.684 23.833 L 239.500 23.833 239.500 24.667 C 239.500 25.389,239.544 25.500,239.833 25.500 C 240.126 25.500,240.167 25.611,240.167 26.417 C 240.167 27.120,240.225 27.333,240.417 27.333 C 240.591 27.333,240.667 27.509,240.667 27.917 L 240.667 28.500 241.583 28.500 C 242.287 28.500,242.500 28.442,242.500 28.250 C 242.500 28.113,242.612 28.000,242.750 28.000 C 242.929 28.000,243.000 27.817,243.000 27.352 C 243.000 26.837,243.060 26.708,243.292 26.727 C 243.541 26.747,243.590 26.573,243.632 25.542 C 243.671 24.595,243.736 24.333,243.934 24.333 C 244.073 24.333,244.143 24.264,244.090 24.178 C 244.038 24.093,244.071 23.976,244.164 23.918 C 244.257 23.861,244.333 23.189,244.333 22.425 C 244.333 20.826,244.340 20.833,242.820 20.833 C 241.889 20.833,241.745 20.758,241.810 20.302 C 241.858 19.969,232.521 20.170,232.416 20.504 C 232.330 20.774,232.161 20.833,231.484 20.833 C 230.928 20.833,230.627 20.910,230.567 21.067 C 230.517 21.195,230.221 21.349,229.907 21.407 C 229.594 21.466,229.356 21.603,229.377 21.711 C 229.399 21.820,229.248 21.934,229.042 21.966 C 228.802 22.003,228.667 22.139,228.667 22.345 C 228.667 22.556,228.552 22.667,228.333 22.667 C 228.148 22.667,228.000 22.778,228.000 22.917 C 228.000 23.054,227.887 23.167,227.750 23.167 C 227.577 23.167,227.500 23.340,227.500 23.731 C 227.500 24.154,227.417 24.316,227.167 24.382 C 226.873 24.458,226.833 24.609,226.833 25.651 C 226.833 26.591,226.782 26.833,226.583 26.833 C 226.446 26.833,226.333 26.946,226.333 27.083 C 226.333 27.221,226.258 27.333,226.167 27.333 C 226.075 27.333,226.000 27.227,226.000 27.097 C 226.000 26.967,225.933 26.836,225.852 26.806 C 225.771 26.775,225.663 26.375,225.613 25.917 C 225.562 25.458,225.516 25.065,225.510 25.042 C 225.505 25.019,225.392 25.000,225.261 25.000 C 225.112 25.000,225.001 24.794,224.969 24.458 C 224.937 24.128,224.834 23.933,224.705 23.960 C 224.588 23.983,224.421 23.814,224.334 23.585 C 224.246 23.355,224.098 23.167,224.004 23.167 C 223.910 23.167,223.833 23.054,223.833 22.917 C 223.833 22.778,223.685 22.667,223.500 22.667 C 223.278 22.667,223.167 22.556,223.167 22.333 C 223.167 22.150,223.072 22.000,222.957 22.000 C 222.841 22.000,222.659 21.859,222.552 21.688 C 222.439 21.507,222.166 21.375,221.905 21.375 C 221.656 21.375,221.385 21.253,221.302 21.104 C 221.194 20.911,220.913 20.833,220.325 20.833 C 219.607 20.833,219.500 20.789,219.500 20.495 C 219.500 20.164,219.414 20.157,215.667 20.173 C 211.995 20.189,211.833 20.203,211.833 20.511 M251.548 20.500 C 251.476 20.776,251.321 20.833,250.642 20.833 C 250.068 20.833,249.794 20.908,249.727 21.083 C 249.674 21.221,249.495 21.333,249.329 21.333 C 248.849 21.333,248.500 21.516,248.500 21.768 C 248.500 21.896,248.387 22.000,248.250 22.000 C 248.111 22.000,248.000 22.148,248.000 22.333 C 248.000 22.556,247.889 22.667,247.667 22.667 C 247.481 22.667,247.333 22.778,247.333 22.917 C 247.333 23.054,247.218 23.167,247.078 23.167 C 246.938 23.167,246.775 23.298,246.716 23.458 C 246.657 23.619,246.509 23.810,246.388 23.883 C 246.252 23.965,246.167 24.335,246.167 24.842 C 246.167 25.556,246.122 25.667,245.833 25.667 C 245.521 25.667,245.500 25.778,245.500 27.417 C 245.500 29.056,245.521 29.167,245.833 29.167 C 246.127 29.167,246.167 29.278,246.167 30.093 C 246.167 30.670,246.230 30.981,246.334 30.916 C 246.425 30.860,246.574 31.005,246.663 31.240 C 246.752 31.475,246.939 31.667,247.079 31.667 C 247.219 31.667,247.333 31.779,247.333 31.917 C 247.333 32.056,247.481 32.167,247.667 32.167 C 247.889 32.167,248.000 32.278,248.000 32.500 C 248.000 32.725,248.111 32.833,248.343 32.833 C 248.532 32.833,248.645 32.900,248.594 32.983 C 248.482 33.164,248.885 33.333,249.430 33.333 C 249.652 33.333,249.824 33.390,249.814 33.458 C 249.743 33.907,249.886 34.000,250.647 34.000 C 251.313 34.000,251.477 34.059,251.546 34.324 C 251.614 34.585,251.804 34.658,252.524 34.699 C 253.129 34.734,253.403 34.817,253.375 34.958 C 253.346 35.104,253.602 35.167,254.231 35.167 C 254.992 35.167,255.141 35.218,255.216 35.505 C 255.265 35.691,255.367 35.832,255.444 35.818 C 256.079 35.707,257.000 35.863,257.000 36.083 C 257.000 36.221,257.148 36.333,257.328 36.333 C 257.557 36.333,257.626 36.412,257.556 36.593 C 257.490 36.767,257.575 36.884,257.812 36.946 C 258.074 37.015,258.167 37.169,258.167 37.535 C 258.167 37.891,258.261 38.056,258.500 38.118 C 258.683 38.166,258.833 38.338,258.833 38.500 C 258.833 38.662,258.683 38.834,258.500 38.882 C 258.257 38.945,258.167 39.109,258.167 39.484 C 258.167 39.889,258.095 40.000,257.833 40.000 C 257.611 40.000,257.500 40.111,257.500 40.333 C 257.500 40.618,257.389 40.667,256.745 40.667 C 256.227 40.667,255.959 40.745,255.894 40.917 C 255.815 41.121,255.405 41.167,253.649 41.167 C 251.850 41.167,251.500 41.126,251.500 40.917 C 251.500 40.778,251.352 40.667,251.167 40.667 C 250.983 40.667,250.833 40.558,250.833 40.425 C 250.833 40.292,250.726 40.123,250.594 40.049 C 250.449 39.968,250.334 39.587,250.302 39.083 C 250.264 38.477,250.182 38.250,250.000 38.250 C 249.822 38.250,249.736 38.034,249.701 37.500 C 249.673 37.087,249.556 36.675,249.440 36.583 C 249.324 36.492,249.180 36.285,249.120 36.125 C 249.030 35.885,248.802 35.833,247.839 35.833 L 246.667 35.833 246.667 36.732 C 246.667 37.377,246.596 37.658,246.417 37.727 C 246.230 37.798,246.167 38.095,246.167 38.892 C 246.167 39.821,246.123 39.973,245.833 40.048 C 245.529 40.128,245.500 40.276,245.500 41.739 C 245.500 43.579,245.576 43.667,247.178 43.667 C 247.798 43.667,248.000 43.728,248.000 43.917 C 248.000 44.120,248.276 44.167,249.481 44.167 C 250.799 44.167,250.970 44.202,251.045 44.486 C 251.122 44.783,251.321 44.806,253.981 44.825 C 256.831 44.846,256.937 44.826,256.853 44.292 C 256.842 44.223,257.396 44.167,258.083 44.167 C 259.083 44.167,259.333 44.117,259.333 43.917 C 259.333 43.700,259.856 43.565,260.375 43.647 C 260.444 43.658,260.500 43.517,260.500 43.333 C 260.500 43.063,260.611 43.000,261.083 43.000 C 261.556 43.000,261.667 42.937,261.667 42.667 C 261.667 42.444,261.778 42.333,262.000 42.333 C 262.185 42.333,262.333 42.222,262.333 42.083 C 262.333 41.944,262.481 41.833,262.667 41.833 C 262.889 41.833,263.000 41.722,263.000 41.500 C 263.000 41.315,263.111 41.167,263.250 41.167 C 263.389 41.167,263.500 41.019,263.500 40.833 C 263.500 40.650,263.556 40.509,263.625 40.520 C 264.076 40.591,264.167 40.448,264.167 39.667 C 264.167 39.054,264.230 38.833,264.405 38.833 C 264.947 38.833,265.020 35.620,264.486 35.286 C 264.251 35.139,264.167 34.895,264.167 34.361 C 264.167 33.776,264.102 33.619,263.833 33.548 C 263.649 33.500,263.500 33.321,263.500 33.147 C 263.500 32.975,263.396 32.833,263.269 32.833 C 263.143 32.833,263.000 32.683,262.952 32.500 C 262.904 32.317,262.745 32.167,262.599 32.167 C 262.453 32.167,262.333 32.095,262.333 32.008 C 262.333 31.920,262.078 31.800,261.765 31.742 C 261.404 31.674,261.167 31.520,261.114 31.318 C 261.056 31.095,260.883 31.000,260.533 31.000 C 260.245 31.000,259.995 30.895,259.940 30.750 C 259.872 30.574,259.597 30.500,259.005 30.500 C 258.219 30.500,258.076 30.410,258.147 29.958 C 258.158 29.890,257.754 29.833,257.250 29.833 C 256.546 29.833,256.333 29.775,256.333 29.583 C 256.333 29.446,256.240 29.325,256.125 29.314 C 256.010 29.304,255.842 29.277,255.750 29.256 C 255.658 29.235,255.340 29.206,255.042 29.192 C 254.683 29.175,254.500 29.082,254.500 28.917 C 254.500 28.725,254.287 28.667,253.583 28.667 C 252.778 28.667,252.667 28.626,252.667 28.333 C 252.667 28.150,252.595 28.000,252.508 28.000 C 252.301 28.000,251.500 27.199,251.500 26.992 C 251.500 26.905,251.350 26.833,251.167 26.833 C 250.889 26.833,250.833 26.722,250.833 26.167 C 250.833 25.611,250.889 25.500,251.167 25.500 C 251.350 25.500,251.500 25.396,251.500 25.268 C 251.500 25.140,251.612 24.992,251.750 24.940 C 251.887 24.887,252.000 24.729,252.000 24.589 C 252.000 24.444,252.145 24.333,252.333 24.333 C 252.521 24.333,252.667 24.222,252.667 24.079 C 252.667 23.860,253.048 23.832,255.458 23.871 C 257.584 23.906,258.240 23.966,258.208 24.125 C 258.185 24.240,258.317 24.333,258.500 24.333 C 258.805 24.333,258.979 25.102,258.852 25.880 C 258.840 25.951,258.943 26.053,259.082 26.106 C 259.228 26.162,259.333 26.410,259.333 26.700 C 259.333 27.058,259.427 27.222,259.667 27.285 C 259.917 27.351,260.000 27.512,260.000 27.936 L 260.000 28.500 260.833 28.500 C 261.463 28.500,261.667 28.439,261.667 28.250 C 261.667 28.111,261.815 28.000,262.000 28.000 C 262.292 28.000,262.333 27.889,262.333 27.103 C 262.333 26.371,262.390 26.191,262.641 26.125 C 262.895 26.059,262.954 25.859,262.981 24.984 C 263.003 24.252,263.088 23.881,263.256 23.787 C 263.433 23.687,263.500 23.337,263.500 22.505 C 263.500 20.862,263.479 20.833,262.272 20.833 C 261.427 20.833,261.210 20.775,261.039 20.500 C 260.839 20.180,260.650 20.167,256.233 20.167 C 251.776 20.167,251.633 20.177,251.548 20.500 M40.695 23.167 L 40.759 23.833 40.129 23.833 C 39.611 23.833,39.500 23.774,39.500 23.500 C 39.500 23.315,39.611 23.167,39.750 23.167 C 39.889 23.167,40.000 23.019,40.000 22.833 C 40.000 22.139,40.626 22.439,40.695 23.167 M92.548 23.500 C 92.621 23.778,92.776 23.833,93.484 23.833 C 94.128 23.833,94.333 23.894,94.333 24.083 C 94.333 24.222,94.481 24.333,94.667 24.333 C 94.889 24.333,95.000 24.444,95.000 24.667 C 95.000 24.852,95.111 25.000,95.250 25.000 C 95.388 25.000,95.500 25.113,95.500 25.250 C 95.500 25.389,95.648 25.500,95.833 25.500 C 96.056 25.500,96.167 25.611,96.167 25.833 C 96.167 26.019,96.278 26.167,96.417 26.167 C 96.633 26.167,96.768 26.690,96.686 27.208 C 96.676 27.277,96.817 27.333,97.000 27.333 C 97.302 27.333,97.333 27.444,97.333 28.500 C 97.333 29.618,97.399 29.762,97.875 29.686 C 97.944 29.676,98.000 30.942,98.000 32.500 C 98.000 34.058,97.944 35.324,97.875 35.314 C 97.400 35.239,97.333 35.383,97.333 36.481 C 97.333 37.488,97.293 37.638,97.000 37.715 C 96.757 37.778,96.667 37.942,96.667 38.318 C 96.667 38.665,96.585 38.833,96.417 38.833 C 96.278 38.833,96.167 38.981,96.167 39.167 C 96.167 39.389,96.056 39.500,95.833 39.500 C 95.648 39.500,95.500 39.611,95.500 39.750 C 95.500 39.887,95.388 40.000,95.250 40.000 C 95.111 40.000,95.000 40.148,95.000 40.333 C 95.000 40.604,94.889 40.667,94.411 40.667 C 94.042 40.667,93.787 40.760,93.727 40.917 C 93.649 41.120,93.248 41.167,91.566 41.167 C 89.841 41.167,89.500 41.125,89.500 40.917 C 89.500 40.778,89.352 40.667,89.167 40.667 C 88.976 40.667,88.833 40.556,88.833 40.407 C 88.833 40.264,88.758 40.193,88.667 40.250 C 88.575 40.307,88.500 40.290,88.500 40.212 C 88.500 40.134,88.342 40.059,88.148 40.044 C 87.723 40.012,87.713 40.004,87.641 39.583 C 87.571 39.180,87.297 38.840,87.125 38.944 C 87.056 38.986,87.000 38.830,87.000 38.598 C 87.000 38.292,86.932 38.203,86.750 38.273 C 86.557 38.347,86.500 38.235,86.500 37.779 C 86.500 37.340,86.417 37.163,86.174 37.086 C 85.901 36.999,85.840 36.803,85.799 35.866 C 85.761 35.007,85.692 34.750,85.500 34.750 C 85.290 34.750,85.243 34.308,85.204 31.958 C 85.160 29.252,85.169 29.167,85.496 29.167 C 85.794 29.167,85.833 29.059,85.833 28.250 C 85.833 27.531,85.889 27.333,86.093 27.333 C 86.236 27.333,86.310 27.264,86.257 27.178 C 86.204 27.093,86.237 26.976,86.331 26.918 C 86.424 26.861,86.500 26.676,86.500 26.508 C 86.500 26.340,86.613 26.159,86.752 26.106 C 86.890 26.053,86.994 25.951,86.982 25.880 C 86.894 25.345,87.032 25.000,87.333 25.000 C 87.556 25.000,87.667 24.889,87.667 24.667 C 87.667 24.397,87.778 24.333,88.250 24.333 C 88.657 24.333,88.833 24.258,88.833 24.083 C 88.833 23.918,89.016 23.825,89.375 23.808 C 89.673 23.794,89.992 23.765,90.083 23.744 C 90.175 23.723,90.344 23.696,90.458 23.686 C 90.573 23.675,90.667 23.554,90.667 23.417 C 90.667 22.989,92.435 23.068,92.548 23.500 M163.667 23.500 C 163.667 23.770,163.778 23.833,164.250 23.833 C 164.657 23.833,164.833 23.909,164.833 24.083 C 164.833 24.221,164.942 24.333,165.076 24.333 C 165.220 24.333,165.362 24.566,165.427 24.911 C 165.486 25.228,165.621 25.472,165.726 25.453 C 165.847 25.430,165.935 25.768,165.967 26.375 C 166.010 27.197,166.063 27.333,166.342 27.333 C 166.610 27.333,166.667 27.450,166.667 28.000 L 166.667 28.667 161.833 28.667 L 157.000 28.667 157.000 28.018 C 157.000 27.595,157.087 27.336,157.250 27.273 C 157.393 27.218,157.500 26.969,157.500 26.691 C 157.500 26.343,157.596 26.180,157.838 26.117 C 158.024 26.068,158.165 25.966,158.152 25.889 C 158.071 25.430,158.199 25.000,158.417 25.000 C 158.556 25.000,158.667 24.852,158.667 24.667 C 158.667 24.411,158.778 24.333,159.146 24.333 C 159.410 24.333,159.719 24.221,159.833 24.083 C 159.947 23.946,160.264 23.833,160.536 23.833 C 160.891 23.833,161.056 23.739,161.118 23.500 C 161.196 23.205,161.346 23.167,162.436 23.167 C 163.556 23.167,163.667 23.197,163.667 23.500 M216.715 23.500 C 216.778 23.743,216.942 23.833,217.318 23.833 C 217.665 23.833,217.833 23.915,217.833 24.083 C 217.833 24.221,217.937 24.333,218.064 24.333 C 218.191 24.333,218.334 24.483,218.382 24.667 C 218.430 24.850,218.588 25.000,218.734 25.000 C 218.927 25.000,219.000 25.161,219.000 25.583 C 219.000 26.056,219.063 26.167,219.333 26.167 C 219.637 26.167,219.667 26.278,219.667 27.417 L 219.667 28.667 214.833 28.667 C 210.202 28.667,210.000 28.653,210.000 28.351 C 210.000 28.178,210.112 27.992,210.250 27.940 C 210.426 27.872,210.500 27.597,210.500 27.005 C 210.500 26.278,210.544 26.167,210.833 26.167 C 211.056 26.167,211.167 26.056,211.167 25.833 C 211.167 25.648,211.278 25.500,211.417 25.500 C 211.558 25.500,211.667 25.351,211.667 25.157 C 211.667 24.968,211.742 24.860,211.833 24.917 C 211.925 24.973,212.000 24.936,212.000 24.833 C 212.000 24.731,212.077 24.694,212.171 24.753 C 212.265 24.811,212.321 24.761,212.296 24.641 C 212.271 24.522,212.415 24.399,212.616 24.369 C 212.854 24.332,212.950 24.229,212.890 24.073 C 212.823 23.898,212.938 23.828,213.316 23.813 C 213.803 23.793,213.993 23.765,214.292 23.668 C 214.360 23.645,214.473 23.636,214.542 23.647 C 214.610 23.658,214.658 23.610,214.647 23.542 C 214.596 23.218,214.733 23.167,215.647 23.167 C 216.488 23.167,216.640 23.214,216.715 23.500 M140.167 31.667 L 140.167 39.500 139.583 39.500 C 139.176 39.500,139.000 39.575,139.000 39.750 C 139.000 39.967,137.705 40.138,136.958 40.020 C 136.890 40.009,136.833 40.079,136.833 40.177 C 136.833 40.274,136.758 40.307,136.667 40.250 C 136.575 40.193,136.500 40.268,136.500 40.416 C 136.500 40.630,136.354 40.675,135.792 40.635 C 135.296 40.599,135.083 40.508,135.083 40.333 C 135.083 40.141,134.825 40.072,133.958 40.034 C 133.108 39.997,132.833 39.926,132.833 39.742 C 132.833 39.609,132.692 39.500,132.519 39.500 C 132.346 39.500,132.167 39.351,132.118 39.167 C 132.055 38.924,131.891 38.833,131.516 38.833 C 131.111 38.833,131.000 38.762,131.000 38.500 C 131.000 38.317,130.889 38.167,130.753 38.167 C 130.617 38.167,130.458 37.960,130.400 37.708 C 130.341 37.456,130.186 37.164,130.054 37.058 C 129.923 36.953,129.803 36.709,129.789 36.517 C 129.774 36.324,129.699 36.167,129.621 36.167 C 129.544 36.167,129.526 36.093,129.582 36.002 C 129.641 35.907,129.574 35.879,129.425 35.936 C 129.209 36.019,129.167 35.869,129.167 35.018 C 129.167 34.292,129.107 34.012,128.958 34.042 C 128.801 34.073,128.750 33.611,128.750 32.167 C 128.750 30.722,128.801 30.260,128.958 30.292 C 129.073 30.315,129.158 30.277,129.147 30.208 C 129.032 29.480,129.201 28.000,129.399 28.000 C 129.652 28.000,129.833 27.650,129.833 27.164 C 129.833 26.995,129.983 26.808,130.167 26.750 C 130.350 26.692,130.500 26.537,130.500 26.405 C 130.500 26.274,130.612 26.167,130.750 26.167 C 130.889 26.167,131.000 26.019,131.000 25.833 C 131.000 25.650,131.109 25.500,131.242 25.500 C 131.375 25.500,131.545 25.390,131.621 25.255 C 131.736 25.048,132.120 24.904,132.708 24.846 C 132.777 24.839,132.815 24.740,132.792 24.625 C 132.767 24.500,132.970 24.396,133.301 24.364 C 133.604 24.335,133.894 24.203,133.944 24.072 C 134.019 23.877,134.594 23.833,137.101 23.833 L 140.167 23.833 140.167 31.667 M65.382 27.667 C 65.454 27.945,65.609 28.000,66.318 28.000 C 66.961 28.000,67.167 28.060,67.167 28.250 C 67.167 28.431,67.352 28.500,67.833 28.500 C 68.200 28.500,68.491 28.556,68.480 28.625 C 68.427 28.962,68.522 29.167,68.732 29.167 C 68.860 29.167,69.008 29.279,69.060 29.417 C 69.113 29.554,69.244 29.667,69.351 29.667 C 69.581 29.667,69.947 30.096,70.168 30.625 C 70.255 30.831,70.439 31.000,70.579 31.000 C 70.783 31.000,70.833 31.232,70.833 32.167 C 70.833 33.222,70.865 33.333,71.167 33.333 C 71.444 33.333,71.500 33.444,71.500 34.000 C 71.500 34.556,71.444 34.667,71.167 34.667 C 70.983 34.667,70.842 34.723,70.853 34.792 C 70.997 35.701,70.798 36.989,70.500 37.083 C 70.266 37.157,70.167 37.336,70.167 37.678 C 70.167 38.001,70.082 38.167,69.917 38.167 C 69.778 38.167,69.667 38.315,69.667 38.500 C 69.667 38.722,69.556 38.833,69.333 38.833 C 69.111 38.833,69.000 38.944,69.000 39.167 C 69.000 39.437,68.889 39.500,68.417 39.500 C 68.009 39.500,67.833 39.575,67.833 39.750 C 67.833 39.925,67.657 40.000,67.250 40.000 C 66.778 40.000,66.667 40.063,66.667 40.333 C 66.667 40.656,66.556 40.667,63.333 40.667 L 60.000 40.667 60.000 34.000 L 60.000 27.333 62.647 27.333 C 65.154 27.333,65.299 27.351,65.382 27.667 M226.611 28.462 C 226.718 28.530,226.826 29.035,226.852 29.584 C 226.896 30.536,227.103 31.054,227.375 30.889 C 227.444 30.848,227.500 30.997,227.500 31.221 C 227.500 31.494,227.615 31.658,227.850 31.719 C 228.043 31.770,228.151 31.891,228.090 31.989 C 228.026 32.093,228.123 32.167,228.323 32.167 C 228.556 32.167,228.667 32.275,228.667 32.500 C 228.667 32.722,228.778 32.833,229.000 32.833 C 229.185 32.833,229.333 32.944,229.333 33.083 C 229.333 33.256,229.507 33.333,229.897 33.333 C 230.321 33.333,230.483 33.416,230.548 33.667 C 230.621 33.944,230.776 34.000,231.465 34.000 C 232.154 34.000,232.309 34.056,232.382 34.333 C 232.452 34.604,232.609 34.667,233.217 34.667 C 233.728 34.667,233.995 34.746,234.060 34.917 C 234.129 35.096,234.410 35.167,235.059 35.167 C 235.821 35.167,235.975 35.218,236.048 35.500 C 236.119 35.771,236.276 35.833,236.883 35.833 C 237.394 35.833,237.661 35.913,237.727 36.083 C 237.780 36.221,237.938 36.333,238.078 36.333 C 238.222 36.333,238.333 36.478,238.333 36.667 C 238.333 36.852,238.444 37.000,238.583 37.000 C 238.721 37.000,238.833 37.120,238.833 37.266 C 238.833 37.412,238.983 37.570,239.167 37.618 C 239.448 37.692,239.500 37.846,239.500 38.603 C 239.500 39.389,239.459 39.500,239.167 39.500 C 238.981 39.500,238.833 39.611,238.833 39.750 C 238.833 39.887,238.721 40.000,238.583 40.000 C 238.444 40.000,238.333 40.148,238.333 40.333 C 238.333 40.603,238.222 40.667,237.750 40.667 C 237.343 40.667,237.167 40.742,237.167 40.917 C 237.167 41.128,236.778 41.167,234.667 41.167 C 232.556 41.167,232.167 41.128,232.167 40.917 C 232.167 40.779,232.054 40.667,231.917 40.667 C 231.689 40.667,231.581 40.270,231.655 39.706 C 231.670 39.590,231.623 39.505,231.550 39.517 C 231.092 39.594,231.000 39.451,231.000 38.661 C 231.000 38.070,230.926 37.795,230.750 37.727 C 230.596 37.668,230.500 37.414,230.500 37.066 C 230.500 36.611,230.435 36.500,230.167 36.500 C 229.944 36.500,229.833 36.389,229.833 36.167 C 229.833 35.865,229.722 35.833,228.667 35.833 L 227.500 35.833 227.500 36.851 C 227.500 37.661,227.452 37.850,227.264 37.778 C 226.929 37.650,226.833 38.017,226.833 39.430 C 226.833 40.399,226.781 40.667,226.592 40.667 C 226.459 40.667,226.273 40.798,226.180 40.958 C 226.018 41.236,226.010 41.236,226.005 40.958 C 226.002 40.798,225.925 40.667,225.833 40.667 C 225.742 40.667,225.667 40.512,225.667 40.323 C 225.667 39.987,225.593 39.980,222.625 40.001 C 216.121 40.048,215.333 40.021,215.333 39.750 C 215.333 39.558,215.120 39.500,214.417 39.500 C 213.689 39.500,213.500 39.445,213.500 39.234 C 213.500 39.088,213.350 38.930,213.167 38.882 C 212.983 38.834,212.833 38.686,212.833 38.554 C 212.833 38.422,212.764 38.357,212.678 38.410 C 212.593 38.462,212.476 38.429,212.418 38.336 C 212.361 38.243,212.168 38.167,211.990 38.167 C 211.812 38.167,211.667 38.054,211.667 37.917 C 211.667 37.779,211.554 37.667,211.417 37.667 C 211.242 37.667,211.167 37.491,211.167 37.083 C 211.167 36.611,211.103 36.500,210.833 36.500 C 210.556 36.500,210.500 36.389,210.500 35.833 C 210.500 35.352,210.431 35.167,210.250 35.167 C 210.046 35.167,210.000 34.889,210.000 33.667 L 210.000 32.167 218.083 32.167 L 226.167 32.167 226.167 30.250 C 226.167 28.380,226.210 28.207,226.611 28.462 M16.000 28.833 C 16.000 29.056,15.889 29.167,15.667 29.167 C 15.483 29.167,15.333 29.060,15.333 28.929 C 15.333 28.798,15.202 28.657,15.042 28.615 C 14.881 28.573,15.031 28.530,15.375 28.519 C 15.895 28.503,16.000 28.556,16.000 28.833 M12.333 29.432 C 12.333 29.578,12.483 29.737,12.667 29.785 C 12.850 29.833,13.000 29.976,13.000 30.103 C 13.000 30.230,13.150 30.333,13.333 30.333 C 13.556 30.333,13.667 30.444,13.667 30.667 C 13.667 30.956,13.778 31.000,14.500 31.000 C 15.222 31.000,15.333 31.044,15.333 31.333 C 15.333 31.519,15.222 31.667,15.083 31.667 C 14.747 31.667,14.721 33.749,15.054 33.950 C 15.455 34.192,15.526 34.667,15.161 34.667 C 14.981 34.667,14.833 34.779,14.833 34.917 C 14.833 35.097,14.648 35.167,14.167 35.167 C 13.685 35.167,13.500 35.097,13.500 34.917 C 13.500 34.779,13.387 34.667,13.250 34.667 C 13.075 34.667,13.000 34.491,13.000 34.083 C 13.000 33.611,12.937 33.500,12.667 33.500 C 12.405 33.500,12.333 33.389,12.333 32.984 C 12.333 32.609,12.243 32.445,12.000 32.382 C 11.719 32.308,11.667 32.154,11.667 31.397 C 11.667 30.711,11.608 30.500,11.417 30.500 C 11.236 30.500,11.167 30.315,11.167 29.833 C 11.167 29.183,11.181 29.167,11.750 29.167 C 12.173 29.167,12.333 29.240,12.333 29.432 M32.833 31.333 C 32.833 31.603,32.944 31.667,33.417 31.667 C 33.824 31.667,34.000 31.742,34.000 31.917 C 34.000 32.117,34.250 32.167,35.250 32.167 L 36.500 32.167 36.500 32.989 C 36.500 33.664,36.559 33.830,36.833 33.917 C 37.650 34.176,37.214 34.667,36.167 34.667 C 35.278 34.667,35.167 34.630,35.167 34.333 C 35.167 34.044,35.056 34.000,34.333 34.000 C 33.704 34.000,33.500 33.939,33.500 33.750 C 33.500 33.550,33.250 33.500,32.250 33.500 C 31.118 33.500,30.998 33.469,30.979 33.167 C 30.968 32.983,30.949 32.742,30.938 32.631 C 30.926 32.520,30.673 32.359,30.375 32.274 C 29.637 32.062,29.664 31.667,30.417 31.667 C 30.889 31.667,31.000 31.603,31.000 31.333 C 31.000 31.040,31.111 31.000,31.917 31.000 C 32.722 31.000,32.833 31.040,32.833 31.333 M9.333 32.583 C 9.333 33.117,9.407 33.500,9.510 33.500 C 9.607 33.500,9.645 33.567,9.594 33.649 C 9.543 33.731,9.614 33.841,9.751 33.894 C 9.907 33.954,10.000 34.210,10.000 34.578 L 10.000 35.167 9.083 35.167 C 8.380 35.167,8.167 35.109,8.167 34.917 C 8.167 34.778,8.019 34.667,7.833 34.667 C 7.430 34.667,7.372 34.085,7.761 33.936 C 7.904 33.881,7.974 33.760,7.917 33.668 C 7.860 33.576,7.893 33.500,7.990 33.500 C 8.087 33.500,8.167 33.200,8.167 32.833 C 8.167 32.352,8.236 32.167,8.417 32.167 C 8.554 32.167,8.667 32.054,8.667 31.917 C 8.667 31.778,8.815 31.667,9.000 31.667 C 9.293 31.667,9.333 31.778,9.333 32.583 M44.333 32.500 C 44.333 32.722,44.444 32.833,44.667 32.833 C 44.960 32.833,45.000 32.944,45.000 33.750 C 45.000 34.556,44.960 34.667,44.667 34.667 C 44.481 34.667,44.333 34.778,44.333 34.917 C 44.333 35.097,44.148 35.167,43.667 35.167 C 42.881 35.167,42.657 34.294,43.333 33.872 C 43.586 33.714,43.667 33.483,43.667 32.915 C 43.667 32.278,43.716 32.167,44.000 32.167 C 44.222 32.167,44.333 32.278,44.333 32.500 M29.333 34.935 C 29.333 35.111,29.615 35.167,30.500 35.167 C 31.556 35.167,31.667 35.198,31.667 35.500 C 31.667 35.793,31.778 35.833,32.583 35.833 C 33.287 35.833,33.500 35.891,33.500 36.083 C 33.500 36.282,33.741 36.333,34.667 36.333 C 35.722 36.333,35.833 36.365,35.833 36.667 C 35.833 36.852,35.722 37.000,35.583 37.000 C 35.409 37.000,35.333 37.176,35.333 37.583 C 35.333 38.056,35.270 38.167,35.000 38.167 C 34.722 38.167,34.667 38.278,34.667 38.833 C 34.667 39.484,34.653 39.500,34.083 39.500 C 33.676 39.500,33.500 39.575,33.500 39.750 C 33.500 39.940,33.295 40.000,32.651 40.000 C 31.942 40.000,31.788 40.055,31.715 40.333 C 31.641 40.615,31.488 40.667,30.731 40.667 C 30.044 40.667,29.833 40.725,29.833 40.917 C 29.833 41.130,29.389 41.167,26.833 41.167 C 24.278 41.167,23.833 41.130,23.833 40.917 C 23.833 40.779,23.946 40.667,24.083 40.667 C 24.222 40.667,24.333 40.519,24.333 40.333 C 24.333 40.111,24.444 40.000,24.667 40.000 C 24.960 40.000,25.000 39.889,25.000 39.083 L 25.000 38.167 25.583 38.167 C 25.991 38.167,26.167 38.091,26.167 37.917 C 26.167 37.778,26.315 37.667,26.500 37.667 C 26.792 37.667,26.833 37.556,26.833 36.761 C 26.833 35.860,26.837 35.854,27.375 35.802 C 27.811 35.760,27.926 35.669,27.967 35.333 C 27.994 35.104,28.042 34.837,28.074 34.740 C 28.161 34.475,29.333 34.656,29.333 34.935 M18.333 36.667 C 18.333 36.889,18.444 37.000,18.667 37.000 C 18.889 37.000,19.000 37.111,19.000 37.333 C 19.000 37.517,19.084 37.667,19.187 37.667 C 19.320 37.667,19.317 37.736,19.176 37.906 C 18.881 38.261,19.240 38.833,19.756 38.833 C 20.114 38.833,20.167 38.908,20.167 39.417 C 20.167 39.889,20.103 40.000,19.833 40.000 C 19.648 40.000,19.500 39.889,19.500 39.750 C 19.500 39.575,19.324 39.500,18.917 39.500 C 18.444 39.500,18.333 39.437,18.333 39.167 C 18.333 38.897,18.222 38.833,17.750 38.833 C 17.278 38.833,17.167 38.770,17.167 38.500 C 17.167 38.278,17.056 38.167,16.833 38.167 C 16.648 38.167,16.500 38.056,16.500 37.917 C 16.500 37.779,16.396 37.667,16.269 37.667 C 16.143 37.667,16.000 37.517,15.952 37.333 C 15.887 37.086,15.947 37.000,16.182 37.000 C 16.389 37.000,16.500 36.883,16.500 36.667 C 16.500 36.374,16.611 36.333,17.417 36.333 C 18.222 36.333,18.333 36.374,18.333 36.667 " stroke="none" fill="#4c7ce4" fill-rule="evenodd"></path><path id="path1" d="M386.500 7.250 C 386.500 7.453,386.230 7.500,385.068 7.500 C 383.776 7.500,383.627 7.533,383.548 7.833 C 383.469 8.135,383.321 8.167,381.981 8.167 C 380.611 8.167,380.500 8.192,380.500 8.500 C 380.500 8.722,380.389 8.833,380.167 8.833 C 379.878 8.833,379.833 8.944,379.833 9.667 C 379.833 10.389,379.878 10.500,380.167 10.500 C 380.389 10.500,380.500 10.611,380.500 10.833 C 380.500 11.126,380.611 11.167,381.417 11.167 C 382.120 11.167,382.333 11.225,382.333 11.417 C 382.333 11.591,382.509 11.667,382.917 11.667 L 383.500 11.667 383.500 26.167 C 383.500 40.556,383.497 40.667,383.167 40.667 C 382.981 40.667,382.833 40.778,382.833 40.917 C 382.833 41.108,382.622 41.167,381.930 41.167 C 380.874 41.167,380.500 41.280,380.500 41.601 C 380.500 41.729,380.350 41.833,380.167 41.833 C 379.874 41.833,379.833 41.722,379.833 40.919 L 379.833 40.004 374.718 40.008 C 370.289 40.011,369.584 39.978,369.460 39.756 C 369.364 39.584,369.067 39.500,368.559 39.500 C 367.942 39.500,367.786 39.438,367.715 39.167 C 367.649 38.916,367.488 38.833,367.064 38.833 C 366.669 38.833,366.500 38.757,366.500 38.578 C 366.500 38.438,366.387 38.280,366.250 38.227 C 366.113 38.174,366.000 38.027,366.000 37.899 C 366.000 37.771,365.850 37.667,365.667 37.667 C 365.444 37.667,365.333 37.556,365.333 37.333 C 365.333 37.148,365.222 37.000,365.083 37.000 C 364.915 37.000,364.833 36.832,364.833 36.484 C 364.833 36.109,364.743 35.945,364.500 35.882 C 364.219 35.808,364.167 35.654,364.167 34.897 C 364.167 34.111,364.125 34.000,363.833 34.000 C 363.540 34.000,363.500 33.889,363.500 33.083 L 363.500 32.167 371.667 32.167 L 379.833 32.167 379.831 29.292 C 379.829 26.225,379.762 25.667,379.397 25.667 C 379.245 25.667,379.167 25.469,379.167 25.083 C 379.167 24.676,379.091 24.500,378.917 24.500 C 378.778 24.500,378.667 24.352,378.667 24.167 C 378.667 23.944,378.556 23.833,378.333 23.833 C 378.116 23.833,378.000 23.722,378.000 23.514 C 378.000 23.017,377.820 22.667,377.566 22.667 C 377.438 22.667,377.333 22.562,377.333 22.434 C 377.333 22.183,376.984 22.000,376.506 22.000 C 376.341 22.000,376.166 21.850,376.118 21.667 C 376.070 21.483,375.920 21.333,375.783 21.333 C 375.647 21.333,375.492 21.221,375.440 21.083 C 375.375 20.913,375.108 20.833,374.608 20.833 C 374.012 20.833,373.856 20.770,373.785 20.500 C 373.649 19.978,366.000 19.978,366.000 20.500 C 366.000 20.793,365.889 20.833,365.083 20.833 C 364.380 20.833,364.167 20.891,364.167 21.083 C 364.167 21.258,363.991 21.333,363.583 21.333 C 363.111 21.333,363.000 21.397,363.000 21.667 C 363.000 21.937,362.889 22.000,362.417 22.000 C 361.944 22.000,361.833 22.063,361.833 22.333 C 361.833 22.556,361.722 22.667,361.500 22.667 C 361.317 22.667,361.167 22.770,361.167 22.897 C 361.167 23.024,361.017 23.167,360.833 23.215 C 360.650 23.263,360.500 23.422,360.500 23.568 C 360.500 23.714,360.387 23.833,360.250 23.833 C 360.113 23.833,360.000 23.946,360.000 24.083 C 360.000 24.221,359.886 24.333,359.746 24.333 C 359.606 24.333,359.423 24.514,359.339 24.734 C 359.256 24.954,359.108 25.183,359.010 25.244 C 358.913 25.304,358.833 25.531,358.833 25.749 C 358.833 25.998,358.710 26.183,358.500 26.250 C 358.262 26.326,358.167 26.502,358.167 26.868 C 358.167 27.162,358.043 27.470,357.877 27.592 C 357.653 27.755,357.573 28.112,357.526 29.152 C 357.480 30.164,357.407 30.500,357.232 30.500 C 356.876 30.500,356.893 34.969,357.250 35.106 C 357.436 35.178,357.500 35.474,357.500 36.266 C 357.500 37.150,357.557 37.366,357.833 37.539 C 358.056 37.678,358.167 37.927,358.167 38.290 C 358.167 38.722,358.235 38.833,358.500 38.833 C 358.770 38.833,358.833 38.944,358.833 39.417 C 358.833 39.824,358.909 40.000,359.083 40.000 C 359.221 40.000,359.333 40.120,359.333 40.266 C 359.333 40.412,359.483 40.570,359.667 40.618 C 359.850 40.666,360.000 40.809,360.000 40.936 C 360.000 41.063,360.113 41.167,360.250 41.167 C 360.387 41.167,360.500 41.286,360.500 41.432 C 360.500 41.578,360.650 41.737,360.833 41.785 C 361.017 41.833,361.167 41.976,361.167 42.103 C 361.167 42.230,361.317 42.333,361.500 42.333 C 361.683 42.333,361.833 42.438,361.833 42.566 C 361.833 42.820,362.184 43.000,362.680 43.000 C 362.856 43.000,363.000 43.104,363.000 43.231 C 363.000 43.493,363.500 43.661,364.292 43.664 C 364.661 43.666,364.833 43.746,364.833 43.917 C 364.833 44.115,365.073 44.167,365.994 44.167 C 366.967 44.167,367.183 44.218,367.325 44.485 C 367.598 44.995,372.984 45.015,373.117 44.507 C 373.197 44.198,373.337 44.167,374.608 44.167 C 375.701 44.167,376.032 44.111,376.106 43.917 C 376.163 43.769,376.416 43.666,376.726 43.664 C 377.501 43.661,378.000 43.491,378.000 43.231 C 378.000 43.104,378.144 43.000,378.320 43.000 C 378.816 43.000,379.167 42.820,379.167 42.566 C 379.167 42.438,379.317 42.333,379.500 42.333 C 379.793 42.333,379.833 42.444,379.833 43.250 L 379.833 44.167 386.417 44.167 L 393.000 44.167 393.000 43.000 C 393.000 42.173,392.939 41.833,392.790 41.833 C 392.675 41.833,392.487 41.683,392.372 41.500 C 392.199 41.222,391.983 41.167,391.082 41.167 C 390.231 41.167,390.000 41.113,390.000 40.917 C 390.000 40.779,389.887 40.667,389.750 40.667 C 389.529 40.667,389.500 38.685,389.500 23.833 L 389.500 7.000 388.000 7.000 C 386.778 7.000,386.500 7.046,386.500 7.250 M268.444 9.444 C 268.167 9.722,268.327 11.667,268.627 11.667 C 268.788 11.667,269.013 11.817,269.128 12.000 C 269.301 12.278,269.517 12.333,270.418 12.333 C 271.279 12.333,271.500 12.386,271.500 12.589 C 271.500 12.729,271.612 12.887,271.750 12.940 C 271.969 13.024,272.000 14.724,272.000 26.851 L 272.000 40.667 271.518 40.667 C 271.243 40.667,270.994 40.774,270.940 40.917 C 270.872 41.094,270.595 41.167,269.990 41.167 C 269.289 41.167,269.120 41.224,269.052 41.485 C 269.007 41.659,268.822 41.841,268.643 41.888 C 268.355 41.963,268.323 42.098,268.367 43.028 L 268.417 44.083 275.625 44.127 L 282.833 44.170 282.833 43.002 C 282.833 41.944,282.802 41.833,282.500 41.833 C 282.278 41.833,282.167 41.722,282.167 41.500 C 282.167 41.208,282.056 41.167,281.268 41.167 C 280.623 41.167,280.342 41.096,280.273 40.917 C 280.207 40.745,279.939 40.667,279.422 40.667 L 278.667 40.667 278.680 35.292 C 278.687 32.335,278.731 30.010,278.777 30.125 C 278.908 30.449,284.667 30.423,284.667 30.099 C 284.667 29.917,285.041 29.852,286.345 29.807 C 287.733 29.760,288.052 29.699,288.187 29.458 C 288.305 29.247,288.559 29.167,289.107 29.167 C 289.724 29.167,289.881 29.105,289.952 28.833 C 290.017 28.583,290.179 28.500,290.603 28.500 C 290.993 28.500,291.167 28.423,291.167 28.250 C 291.167 28.111,291.315 28.000,291.500 28.000 C 291.722 28.000,291.833 27.889,291.833 27.667 C 291.833 27.408,291.944 27.333,292.327 27.333 C 292.651 27.333,292.883 27.218,293.000 27.000 C 293.098 26.817,293.280 26.667,293.403 26.667 C 293.527 26.667,293.669 26.509,293.719 26.317 C 293.770 26.124,293.883 26.011,293.971 26.065 C 294.058 26.119,294.179 25.902,294.239 25.582 C 294.305 25.234,294.446 25.000,294.591 25.000 C 294.724 25.000,294.833 24.859,294.833 24.686 C 294.833 24.512,294.982 24.333,295.167 24.285 C 295.445 24.212,295.500 24.058,295.500 23.349 C 295.500 22.734,295.564 22.500,295.732 22.500 C 296.117 22.500,296.167 22.098,296.164 19.028 C 296.162 15.892,296.096 15.333,295.731 15.333 C 295.578 15.333,295.500 15.136,295.500 14.750 C 295.500 14.278,295.437 14.167,295.167 14.167 C 294.897 14.167,294.833 14.056,294.833 13.583 C 294.833 13.176,294.758 13.000,294.583 13.000 C 294.446 13.000,294.333 12.880,294.333 12.734 C 294.333 12.588,294.183 12.430,294.000 12.382 C 293.817 12.334,293.667 12.191,293.667 12.064 C 293.667 11.937,293.517 11.833,293.333 11.833 C 293.150 11.833,293.000 11.729,293.000 11.601 C 293.000 11.346,292.650 11.167,292.153 11.167 C 291.944 11.167,291.833 11.051,291.833 10.833 C 291.833 10.565,291.722 10.500,291.268 10.500 C 290.919 10.500,290.666 10.404,290.606 10.250 C 290.535 10.063,290.236 10.000,289.422 10.000 C 288.556 10.000,288.265 9.932,288.000 9.667 C 287.663 9.330,268.774 9.115,268.444 9.444 M285.333 13.250 C 285.333 13.425,285.509 13.500,285.917 13.500 C 286.339 13.500,286.500 13.573,286.500 13.766 C 286.500 13.912,286.650 14.070,286.833 14.118 C 287.017 14.166,287.167 14.309,287.167 14.436 C 287.167 14.563,287.279 14.667,287.417 14.667 C 287.556 14.667,287.667 14.815,287.667 15.000 C 287.667 15.222,287.778 15.333,288.000 15.333 C 288.270 15.333,288.333 15.444,288.333 15.917 C 288.333 16.324,288.409 16.500,288.583 16.500 C 288.763 16.500,288.833 16.684,288.833 17.153 C 288.833 17.967,288.968 18.333,289.268 18.333 C 289.446 18.333,289.500 18.626,289.500 19.583 C 289.500 20.541,289.446 20.833,289.268 20.833 C 288.947 20.833,288.833 21.207,288.833 22.264 C 288.833 22.955,288.775 23.167,288.583 23.167 C 288.446 23.167,288.333 23.308,288.333 23.481 C 288.333 23.656,288.184 23.834,287.995 23.883 C 287.809 23.932,287.668 24.034,287.682 24.111 C 287.795 24.753,287.647 25.000,287.151 25.000 C 286.776 25.000,286.612 25.091,286.548 25.333 C 286.500 25.517,286.355 25.667,286.225 25.667 C 286.096 25.667,285.946 25.779,285.894 25.917 C 285.829 26.086,285.563 26.167,285.071 26.167 C 284.516 26.167,284.303 26.245,284.167 26.500 C 284.000 26.812,283.818 26.833,281.327 26.833 L 278.667 26.833 278.667 19.917 L 278.667 13.000 282.000 13.000 C 284.852 13.000,285.333 13.036,285.333 13.250 M302.212 20.511 C 302.139 20.790,301.974 20.833,300.981 20.833 C 300.072 20.833,299.833 20.885,299.833 21.083 C 299.833 21.254,299.661 21.334,299.292 21.336 C 298.500 21.339,298.000 21.507,298.000 21.769 C 298.000 21.896,297.856 22.000,297.680 22.000 C 296.898 22.000,296.436 22.858,297.083 23.106 C 297.257 23.173,297.333 23.445,297.333 24.000 C 297.333 24.974,297.385 25.000,299.347 25.000 C 300.722 25.000,300.833 24.975,300.833 24.667 C 300.833 24.181,306.136 24.145,306.437 24.628 C 306.539 24.791,306.835 24.941,307.097 24.963 C 307.358 24.984,307.634 25.114,307.711 25.251 C 307.787 25.388,308.071 25.500,308.342 25.500 C 308.790 25.500,308.833 25.550,308.833 26.066 C 308.833 26.414,308.929 26.668,309.083 26.727 C 309.280 26.802,309.333 27.144,309.333 28.328 L 309.333 29.833 307.514 29.833 C 305.557 29.833,305.167 29.906,305.167 30.268 C 305.167 30.452,304.789 30.500,303.333 30.500 C 301.815 30.500,301.500 30.543,301.500 30.750 C 301.500 30.969,300.163 31.141,299.444 31.015 C 299.367 31.001,299.265 31.143,299.216 31.329 C 299.149 31.584,298.990 31.667,298.564 31.667 C 298.195 31.667,298.000 31.746,298.000 31.897 C 298.000 32.024,297.850 32.167,297.667 32.215 C 297.483 32.263,297.333 32.422,297.333 32.568 C 297.333 32.722,297.194 32.833,297.000 32.833 C 296.778 32.833,296.667 32.944,296.667 33.167 C 296.667 33.352,296.556 33.500,296.417 33.500 C 296.279 33.500,296.167 33.612,296.167 33.750 C 296.167 33.889,296.019 34.000,295.833 34.000 C 295.563 34.000,295.500 34.111,295.500 34.583 C 295.500 34.991,295.425 35.167,295.250 35.167 C 295.038 35.167,295.000 35.575,295.000 37.839 C 295.000 40.060,295.042 40.527,295.250 40.606 C 295.395 40.662,295.500 40.911,295.500 41.200 C 295.500 41.558,295.594 41.722,295.833 41.785 C 296.017 41.833,296.167 41.976,296.167 42.103 C 296.167 42.230,296.279 42.333,296.417 42.333 C 296.554 42.333,296.667 42.448,296.667 42.587 C 296.667 42.727,296.854 42.913,297.083 43.000 C 297.313 43.087,297.500 43.227,297.500 43.311 C 297.500 43.395,297.697 43.513,297.937 43.573 C 298.177 43.634,298.482 43.792,298.615 43.925 C 298.776 44.086,299.215 44.167,299.929 44.167 C 300.889 44.167,301.000 44.201,301.000 44.500 C 301.000 44.817,301.111 44.833,303.333 44.833 C 305.556 44.833,305.667 44.817,305.667 44.500 C 305.667 44.207,305.778 44.167,306.583 44.167 C 307.287 44.167,307.500 44.109,307.500 43.917 C 307.500 43.741,307.686 43.663,308.125 43.655 C 308.872 43.641,309.378 43.464,309.304 43.243 C 309.274 43.155,309.521 43.061,309.853 43.033 C 310.345 42.992,310.473 43.046,310.546 43.325 C 310.595 43.513,310.755 43.667,310.901 43.667 C 311.047 43.667,311.167 43.779,311.167 43.917 C 311.167 44.090,311.340 44.167,311.731 44.167 C 312.154 44.167,312.316 44.250,312.382 44.500 C 312.460 44.799,312.609 44.833,313.833 44.833 C 315.058 44.833,315.207 44.799,315.285 44.500 C 315.362 44.207,315.512 44.167,316.519 44.167 C 317.428 44.167,317.667 44.115,317.667 43.917 C 317.667 43.778,317.815 43.667,318.000 43.667 C 318.185 43.667,318.333 43.778,318.333 43.917 C 318.333 44.135,319.213 44.167,325.250 44.167 L 332.167 44.167 332.167 43.000 C 332.167 42.074,332.115 41.833,331.917 41.833 C 331.779 41.833,331.667 41.729,331.667 41.601 C 331.667 41.295,331.444 41.229,330.250 41.180 C 329.595 41.154,329.204 41.058,329.117 40.903 C 329.043 40.773,328.762 40.667,328.492 40.667 L 328.000 40.667 328.000 33.083 L 328.000 25.500 328.583 25.500 C 328.991 25.500,329.167 25.425,329.167 25.250 C 329.167 25.045,329.454 25.000,330.750 25.000 L 332.333 25.000 332.333 25.583 C 332.333 25.991,332.409 26.167,332.583 26.167 C 332.758 26.167,332.833 26.343,332.833 26.750 C 332.833 27.217,332.898 27.333,333.158 27.333 C 333.432 27.333,333.490 27.470,333.533 28.208 L 333.583 29.083 334.830 29.133 C 335.859 29.174,336.113 29.132,336.288 28.893 C 336.469 28.646,336.500 28.743,336.500 29.551 C 336.500 30.389,336.461 30.500,336.167 30.500 C 335.849 30.500,335.833 30.611,335.833 32.903 C 335.833 35.437,335.892 35.833,336.268 35.833 C 336.443 35.833,336.500 36.104,336.500 36.932 C 336.500 37.891,336.543 38.042,336.833 38.118 C 337.084 38.184,337.167 38.346,337.167 38.769 C 337.167 39.160,337.244 39.333,337.417 39.333 C 337.556 39.333,337.667 39.481,337.667 39.667 C 337.667 39.889,337.778 40.000,338.000 40.000 C 338.222 40.000,338.333 40.111,338.333 40.333 C 338.333 40.517,338.440 40.667,338.570 40.667 C 338.700 40.667,338.856 40.889,338.916 41.161 C 339.003 41.561,339.134 41.677,339.595 41.763 C 339.920 41.824,340.167 41.970,340.167 42.102 C 340.167 42.229,340.270 42.333,340.397 42.333 C 340.524 42.333,340.667 42.483,340.715 42.667 C 340.776 42.902,340.942 43.000,341.278 43.000 C 341.573 43.000,341.832 43.127,341.961 43.333 C 342.094 43.546,342.350 43.667,342.668 43.667 C 343.000 43.667,343.167 43.750,343.167 43.917 C 343.167 44.120,343.444 44.167,344.667 44.167 C 346.056 44.167,346.167 44.191,346.167 44.500 C 346.167 44.819,346.278 44.833,348.766 44.833 C 351.224 44.833,351.369 44.815,351.452 44.500 C 351.530 44.201,351.679 44.167,352.918 44.167 C 353.991 44.167,354.319 44.111,354.394 43.917 C 354.453 43.761,354.707 43.667,355.064 43.667 C 355.804 43.667,356.167 43.524,356.167 43.232 C 356.167 43.077,356.365 43.000,356.766 43.000 C 357.224 43.000,357.385 42.922,357.452 42.667 C 357.501 42.479,357.679 42.333,357.860 42.333 C 358.151 42.333,358.177 42.225,358.133 41.208 L 358.083 40.083 355.777 40.037 C 353.581 39.993,353.467 40.006,353.383 40.329 C 353.249 40.841,350.833 40.846,350.833 40.333 C 350.833 40.025,350.722 40.000,349.333 40.000 C 348.111 40.000,347.833 39.954,347.833 39.750 C 347.833 39.561,347.630 39.500,347.000 39.500 C 346.278 39.500,346.167 39.456,346.167 39.167 C 346.167 38.944,346.056 38.833,345.833 38.833 C 345.645 38.833,345.500 38.722,345.500 38.578 C 345.500 38.438,345.374 38.275,345.221 38.216 C 344.864 38.079,344.421 37.636,344.284 37.279 C 344.225 37.126,344.062 37.000,343.922 37.000 C 343.741 37.000,343.667 36.829,343.667 36.417 C 343.667 35.944,343.603 35.833,343.333 35.833 C 343.044 35.833,343.000 35.722,343.000 34.995 C 343.000 34.403,342.926 34.128,342.750 34.060 C 342.547 33.982,342.500 33.583,342.500 31.917 C 342.500 30.250,342.547 29.851,342.750 29.773 C 342.926 29.706,343.000 29.431,343.000 28.850 C 343.000 28.169,343.059 28.004,343.333 27.917 C 343.567 27.843,343.667 27.664,343.667 27.322 C 343.667 27.009,343.752 26.833,343.905 26.833 C 344.037 26.833,344.192 26.683,344.250 26.500 C 344.308 26.317,344.421 26.167,344.500 26.167 C 344.579 26.167,344.689 26.025,344.744 25.851 C 344.799 25.678,344.999 25.495,345.189 25.446 C 345.378 25.396,345.484 25.276,345.424 25.178 C 345.359 25.073,345.461 25.000,345.672 25.000 C 345.891 25.000,346.065 24.870,346.118 24.667 C 346.184 24.416,346.346 24.333,346.769 24.333 C 347.160 24.333,347.333 24.256,347.333 24.083 C 347.333 23.844,347.805 23.796,350.167 23.796 C 352.153 23.796,352.167 23.800,352.167 24.339 C 352.167 24.634,352.271 24.884,352.417 24.940 C 352.571 24.999,352.667 25.252,352.667 25.601 C 352.667 25.944,352.798 26.298,353.000 26.500 C 353.190 26.690,353.333 27.056,353.333 27.349 C 353.333 27.724,353.424 27.888,353.667 27.952 C 353.941 28.023,354.000 28.179,354.000 28.831 C 354.000 29.610,354.010 29.625,354.593 29.719 C 355.292 29.833,355.667 29.721,355.667 29.399 C 355.667 29.271,355.817 29.167,356.000 29.167 C 356.222 29.167,356.333 29.056,356.333 28.833 C 356.333 28.611,356.444 28.500,356.667 28.500 C 356.968 28.500,357.000 28.389,357.000 27.351 C 357.000 26.484,357.061 26.179,357.250 26.106 C 357.437 26.035,357.500 25.736,357.500 24.928 C 357.500 24.016,357.553 23.817,357.833 23.667 C 358.108 23.519,358.167 23.318,358.167 22.512 C 358.167 21.496,358.049 21.333,357.314 21.333 C 357.136 21.333,356.946 21.221,356.894 21.083 C 356.821 20.895,356.518 20.833,355.668 20.833 C 354.679 20.833,354.528 20.792,354.452 20.500 C 354.367 20.177,354.224 20.167,350.027 20.167 C 345.836 20.167,345.686 20.178,345.583 20.500 C 345.495 20.779,345.331 20.833,344.572 20.833 C 343.878 20.833,343.667 20.892,343.667 21.083 C 343.667 21.258,343.491 21.333,343.083 21.333 C 342.611 21.333,342.500 21.397,342.500 21.667 C 342.500 21.937,342.389 22.000,341.917 22.000 C 341.444 22.000,341.333 22.063,341.333 22.333 C 341.333 22.556,341.222 22.667,341.000 22.667 C 340.815 22.667,340.667 22.778,340.667 22.917 C 340.667 23.054,340.523 23.167,340.347 23.167 C 339.850 23.167,339.500 23.346,339.500 23.601 C 339.500 23.729,339.391 23.833,339.258 23.833 C 339.112 23.833,338.971 24.067,338.906 24.417 C 338.843 24.751,338.697 25.000,338.565 25.000 C 338.437 25.000,338.333 25.150,338.333 25.333 C 338.333 25.556,338.222 25.667,338.000 25.667 C 337.730 25.667,337.667 25.778,337.667 26.250 C 337.667 26.657,337.591 26.833,337.417 26.833 C 337.242 26.833,337.167 27.009,337.167 27.417 C 337.167 27.889,337.103 28.000,336.833 28.000 C 336.530 28.000,336.500 27.889,336.500 26.750 C 336.500 25.750,336.550 25.500,336.750 25.500 C 336.948 25.500,337.000 25.264,337.000 24.373 C 337.000 23.427,337.053 23.213,337.333 23.039 C 337.621 22.859,337.667 22.650,337.667 21.499 L 337.667 20.167 335.318 20.167 C 333.109 20.167,332.964 20.187,332.882 20.500 C 332.809 20.776,332.654 20.833,331.975 20.833 C 331.401 20.833,331.128 20.908,331.060 21.083 C 331.008 21.221,330.766 21.334,330.524 21.336 C 329.827 21.339,329.333 21.519,329.333 21.769 C 329.333 21.921,329.137 22.000,328.762 22.000 C 328.358 22.000,328.169 22.085,328.115 22.292 C 328.073 22.452,328.030 22.040,328.019 21.375 L 328.000 20.167 326.568 20.167 C 325.276 20.167,325.127 20.199,325.048 20.500 C 324.969 20.802,324.821 20.833,323.481 20.833 C 322.276 20.833,322.000 20.880,322.000 21.083 C 322.000 21.287,321.722 21.333,320.500 21.333 C 319.222 21.333,318.951 21.383,318.667 21.667 C 318.216 22.117,318.187 23.623,318.625 23.784 C 318.785 23.843,318.977 23.991,319.050 24.112 C 319.140 24.262,319.558 24.333,320.342 24.333 C 321.389 24.333,321.500 24.365,321.500 24.667 C 321.500 24.852,321.611 25.000,321.750 25.000 C 321.969 25.000,322.000 25.981,322.000 32.833 C 322.000 39.685,321.969 40.667,321.750 40.667 C 321.612 40.667,321.500 40.779,321.500 40.917 C 321.500 41.323,317.346 41.311,317.117 40.903 C 317.043 40.773,316.762 40.667,316.492 40.667 C 316.053 40.667,316.000 40.611,316.000 40.151 C 316.000 39.776,315.909 39.612,315.667 39.548 C 315.345 39.464,315.333 39.321,315.333 35.583 C 315.333 31.846,315.345 31.702,315.667 31.618 C 315.980 31.537,316.000 31.391,316.000 29.250 C 316.000 27.109,315.980 26.963,315.667 26.882 C 315.371 26.804,315.333 26.654,315.333 25.564 C 315.333 24.581,315.283 24.333,315.083 24.333 C 314.946 24.333,314.833 24.189,314.833 24.014 C 314.833 23.517,314.654 23.167,314.399 23.167 C 314.271 23.167,314.167 23.054,314.167 22.917 C 314.167 22.778,314.019 22.667,313.833 22.667 C 313.611 22.667,313.500 22.556,313.500 22.333 C 313.500 22.148,313.389 22.000,313.250 22.000 C 313.112 22.000,313.000 21.893,313.000 21.761 C 313.000 21.630,312.857 21.477,312.682 21.422 C 312.507 21.366,312.322 21.211,312.271 21.077 C 312.206 20.909,311.923 20.833,311.358 20.833 C 310.675 20.833,310.524 20.777,310.450 20.495 C 310.316 19.979,302.347 19.995,302.212 20.511 M370.333 23.397 C 370.333 23.650,370.828 23.828,371.542 23.831 C 371.837 23.833,372.000 23.922,372.000 24.083 C 372.000 24.222,372.148 24.333,372.333 24.333 C 372.603 24.333,372.667 24.444,372.667 24.917 C 372.667 25.324,372.742 25.500,372.917 25.500 C 373.113 25.500,373.167 25.731,373.167 26.582 C 373.167 27.483,373.222 27.699,373.500 27.872 C 374.625 28.575,374.106 28.667,369.000 28.667 L 364.167 28.667 364.167 28.083 C 364.167 27.722,364.294 27.373,364.500 27.167 C 364.683 26.983,364.833 26.681,364.833 26.495 C 364.833 26.309,364.946 26.113,365.083 26.060 C 365.226 26.006,365.333 25.757,365.333 25.482 C 365.333 25.111,365.410 25.000,365.667 25.000 C 365.889 25.000,366.000 24.889,366.000 24.667 C 366.000 24.410,366.111 24.333,366.482 24.333 C 366.757 24.333,367.006 24.226,367.060 24.083 C 367.117 23.935,367.368 23.833,367.677 23.833 C 368.058 23.833,368.221 23.744,368.285 23.500 C 368.394 23.082,370.333 22.985,370.333 23.397 M309.333 36.667 L 309.333 40.000 308.234 40.000 C 307.276 40.000,307.124 40.043,307.048 40.333 C 306.971 40.629,306.821 40.667,305.731 40.667 C 304.611 40.667,304.500 40.637,304.500 40.333 C 304.500 40.040,304.389 40.000,303.583 40.000 C 302.880 40.000,302.667 39.942,302.667 39.750 C 302.667 39.612,302.563 39.500,302.436 39.500 C 302.309 39.500,302.166 39.350,302.118 39.167 C 302.070 38.983,301.912 38.833,301.766 38.833 C 301.562 38.833,301.500 38.659,301.500 38.092 C 301.500 37.561,301.417 37.302,301.208 37.180 C 300.931 37.018,300.931 37.010,301.208 37.005 C 301.450 37.001,301.500 36.843,301.500 36.083 C 301.500 35.278,301.540 35.167,301.833 35.167 C 302.017 35.167,302.167 35.060,302.167 34.930 C 302.167 34.800,302.385 34.645,302.653 34.586 C 302.920 34.528,303.180 34.372,303.231 34.240 C 303.292 34.080,303.574 34.000,304.072 34.000 C 304.651 34.000,304.862 33.924,305.000 33.667 C 305.164 33.361,305.349 33.333,307.256 33.333 L 309.333 33.333 309.333 36.667 " stroke="none" fill="#2c2c44" fill-rule="evenodd"></path></g></svg>